<?xml version="1.0" standalone="no"?>
<!DOCTYPE svg PUBLIC "-//W3C//DTD SVG 1.1//EN" "http://www.w3.org/Graphics/SVG/1.1/DTD/svg11.dtd" >
<svg>
<metadata>
Created by FontForge 20120731 at Fri May 27 08:31:04 2016
 By Apache
Spaced and kerned with iKern.
</metadata>
<defs>
<font id="MuseoSansRounded-700" horiz-adv-x="584" >
  <font-face 
    font-family="Museo Sans Rounded 700"
    font-weight="600"
    font-stretch="normal"
    units-per-em="1000"
    panose-1="2 0 0 0 0 0 0 0 0 0"
    ascent="750"
    descent="-250"
    x-height="510"
    cap-height="710"
    bbox="-108.54 -219 1129 902"
    underline-thickness="50"
    underline-position="-50"
    stemh="111"
    stemv="128"
    unicode-range="U+0020-FB04"
  />
<missing-glyph horiz-adv-x="571" 
d="M35 42v616c0 28 15 42 42 42h417c27 0 41 -14 41 -42v-616c0 -28 -14 -42 -41 -42h-417c-27 0 -42 14 -42 42zM285 395l170 255h-340zM315 350l170 -255v510zM85 95l170 255l-170 255v-510zM115 50h340l-170 255z" />
    <glyph glyph-name="f_f" unicode="ff" horiz-adv-x="676" 
d="M90 42v367h-24c-28 0 -42 14 -42 42v17c0 27 14 42 42 42h24v17c0 162 143 187 196 187h14c27 0 42 -14 42 -42v-26c0 -27 -15 -39 -43 -41c-32 -2 -82 -9 -82 -83v-12h211v17c0 162 143 187 196 187h14c27 0 42 -14 42 -42v-26c0 -27 -15 -39 -43 -41
c-31 -2 -82 -9 -82 -83v-12h68c28 0 42 -15 42 -42v-17c0 -28 -13 -42 -36 -42h-74v-367c0 -28 -14 -42 -41 -42h-44c-27 0 -42 14 -42 42v367h-211v-367c0 -28 -14 -42 -42 -42h-43c-27 0 -42 14 -42 42z" />
    <glyph glyph-name="fi" unicode="fi" horiz-adv-x="590" 
d="M90 42v367h-25c-27 0 -41 14 -41 42v17c0 27 14 42 41 42h25v17c0 162 143 187 195 187h15c27 0 41 -14 41 -42v-26c0 -27 -15 -39 -43 -41c-31 -2 -81 -9 -81 -83v-12h269c27 0 42 -15 42 -42v-426c0 -28 -15 -42 -42 -42h-44c-27 0 -41 14 -41 42v367h-184v-367
c0 -28 -15 -42 -42 -42h-44c-27 0 -41 14 -41 42zM442 597c-27 0 -41 14 -41 41v30c0 27 14 42 41 42h44c27 0 42 -15 42 -42v-30c0 -27 -15 -41 -42 -41h-44z" />
    <glyph glyph-name="fl" unicode="fl" horiz-adv-x="618" 
d="M400 159v509c0 27 14 42 41 42h44c27 0 41 -15 41 -42v-499c0 -50 21 -59 40 -61c18 -2 31 -13 31 -36v-34c0 -26 -12 -43 -42 -43c-68 0 -155 18 -155 164zM90 42v360h-25c-27 0 -41 14 -41 42v17c0 27 14 42 41 42h25v24c0 162 143 187 195 187h15c27 0 41 -14 41 -42
v-26c0 -27 -15 -39 -43 -41c-31 -2 -81 -9 -81 -83v-19h68c27 0 41 -15 41 -42v-17c0 -28 -14 -42 -41 -42h-68v-360c0 -28 -15 -42 -42 -42h-44c-27 0 -41 14 -41 42z" />
    <glyph glyph-name="f_f_i" unicode="ffi" horiz-adv-x="929" 
d="M90 42l-3 367h-22c-27 0 -41 14 -41 42v17c0 27 14 42 41 42h22l3 17c0 162 143 187 195 187h15c27 0 41 -14 41 -42v-26c0 -27 -15 -39 -43 -41c-31 -2 -81 -9 -81 -83v-12h211v17c0 162 143 187 196 187h14c27 0 41 -14 41 -42v-26c0 -27 -14 -39 -43 -41
c-31 -2 -81 -9 -81 -83v-12h269c27 0 42 -15 42 -42v-426c0 -28 -15 -42 -42 -42h-43c-27 0 -42 14 -42 42v367h-184v-367c0 -28 -15 -42 -42 -42h-43c-27 0 -42 14 -42 42v367h-211v-367c0 -28 -15 -42 -42 -42h-44c-27 0 -41 14 -41 42zM739 638v30c0 27 14 42 42 42h43
c28 0 42 -15 42 -42v-30c0 -27 -14 -41 -42 -41h-43c-28 0 -42 14 -42 41z" />
    <glyph glyph-name="f_f_l" unicode="ffl" horiz-adv-x="956" 
d="M90 42l-3 367h-21c-28 0 -42 14 -42 42v17c0 27 14 42 42 42h21l3 17c0 162 143 187 196 187h14c27 0 42 -14 42 -42v-26c0 -27 -15 -39 -43 -41c-32 -2 -82 -9 -82 -83v-12h211v17c0 162 143 187 196 187h14c27 0 42 -14 42 -42v-26c0 -27 -15 -39 -43 -41
c-31 -2 -82 -9 -82 -83v-12h68c28 0 42 -15 42 -42v-17c0 -28 -13 -42 -36 -42h-74v-367c0 -28 -14 -42 -41 -42h-44c-27 0 -42 14 -42 42v367h-211v-367c0 -28 -14 -42 -42 -42h-43c-27 0 -42 14 -42 42zM739 159v509c0 27 14 42 41 42h44c27 0 41 -15 41 -42v-499
c0 -50 21 -59 40 -61c18 -2 31 -13 31 -36v-34c0 -26 -12 -43 -43 -43c-67 0 -154 18 -154 164z" />
    <glyph glyph-name="f_j" unicode="fj" horiz-adv-x="593" 
d="M90 42v367h-24c-28 0 -42 14 -42 42v17c0 27 14 42 42 42h24v17c0 162 143 187 196 187h14c27 0 42 -14 42 -42v-26c0 -27 -15 -39 -43 -41c-32 -2 -82 -9 -82 -83v-12h271c27 0 41 -15 41 -42v-481c0 -166 -145 -194 -195 -194h-14c-28 0 -42 14 -42 42v26
c0 27 14 38 42 41c35 3 83 17 83 93v414h-186v-367c0 -28 -14 -42 -42 -42h-43c-27 0 -42 14 -42 42zM444 597c-27 0 -42 14 -42 41v30c0 27 15 42 42 42h44c27 0 41 -15 41 -42v-30c0 -27 -14 -41 -41 -41h-44z" />
    <glyph glyph-name=".notdef" horiz-adv-x="571" 
d="M35 42v616c0 28 15 42 42 42h417c27 0 41 -14 41 -42v-616c0 -28 -14 -42 -41 -42h-417c-27 0 -42 14 -42 42zM285 395l170 255h-340zM315 350l170 -255v510zM85 95l170 255l-170 255v-510zM115 50h340l-170 255z" />
    <glyph glyph-name="space" unicode=" " horiz-adv-x="250" 
 />
    <glyph glyph-name="exclam" unicode="!" horiz-adv-x="270" 
d="M120 205c-26 0 -41 14 -42 41l-8 421c0 28 14 43 41 43h47c27 0 42 -15 41 -43l-8 -421c0 -27 -15 -41 -42 -41h-29zM74 42v35c0 27 14 42 41 42h40c27 0 42 -15 42 -42v-35c0 -28 -15 -42 -42 -42h-40c-27 0 -41 14 -41 42z" />
    <glyph glyph-name="quotedbl" unicode="&#x22;" horiz-adv-x="354" 
d="M252 500c-27 0 -42 14 -42 41v140c0 27 15 42 42 42h11c27 0 41 -15 41 -42v-140c0 -27 -14 -41 -41 -41h-11zM91 500c-27 0 -41 14 -41 41v140c0 27 14 42 41 42h11c28 0 42 -15 42 -42v-140c0 -27 -14 -41 -42 -41h-11z" />
    <glyph glyph-name="numbersign" unicode="#" horiz-adv-x="696" 
d="M124 45l25 142h-73c-29 0 -43 16 -38 44l2 10c3 25 19 37 44 37h81l25 140h-73c-28 0 -42 17 -38 44l2 10c4 25 19 38 44 38h80l28 162c5 25 20 38 46 38h17c29 0 43 -17 38 -45l-27 -155h136l29 162c4 25 19 38 45 38h18c29 0 42 -17 38 -45l-28 -155h75
c29 0 43 -17 38 -45l-1 -9c-4 -25 -19 -38 -45 -38h-82l-25 -140h74c29 0 42 -16 38 -44l-2 -10c-4 -25 -19 -37 -45 -37h-80l-26 -149c-4 -25 -19 -38 -45 -38h-18c-29 0 -43 17 -38 45l25 142h-137l-25 -149c-5 -25 -20 -38 -46 -38h-18c-28 0 -42 17 -38 45zM267 278h136
l25 140h-137z" />
    <glyph glyph-name="dollar" unicode="$" horiz-adv-x="549" 
d="M63 59c-21 15 -22 37 -7 58l22 31c16 22 35 24 58 9c30 -21 81 -50 143 -50c54 0 104 28 104 86c0 120 -338 108 -338 323c0 103 77 183 188 201v53c0 27 12 41 40 41h7c26 0 39 -12 39 -35v-57c69 -5 118 -31 145 -50c22 -13 24 -34 12 -56l-17 -34
c-13 -24 -32 -27 -57 -13c-26 16 -69 37 -120 37c-60 0 -108 -35 -108 -85c0 -119 338 -98 338 -322c0 -102 -71 -189 -193 -205v-50c0 -27 -13 -42 -39 -42h-7c-28 0 -40 13 -40 35v57c-82 9 -140 45 -170 68z" />
    <glyph glyph-name="percent" unicode="%" horiz-adv-x="792" 
d="M202 406c-91 0 -163 70 -163 158c0 86 72 158 163 158c90 0 163 -72 163 -158c0 -88 -73 -158 -163 -158zM104 51l486 634c13 17 28 25 51 25h20c36 0 47 -23 25 -51l-486 -634c-13 -17 -28 -25 -51 -25h-21c-35 0 -46 23 -24 51zM202 498c37 0 67 29 67 66
c0 36 -30 66 -67 66s-66 -30 -66 -66c0 -37 29 -66 66 -66zM427 145c0 86 72 158 163 158c90 0 163 -72 163 -158c0 -87 -73 -157 -163 -157c-91 0 -163 70 -163 157zM524 146c0 -37 29 -66 66 -66s67 29 67 66c0 36 -30 66 -67 66s-66 -30 -66 -66z" />
    <glyph glyph-name="ampersand" unicode="&#x26;" horiz-adv-x="652" 
d="M39 201c0 77 46 151 121 177v2s-90 35 -90 155c0 126 101 187 224 187h42c27 0 42 -15 42 -42v-25c0 -27 -15 -41 -42 -41h-33c-65 0 -103 -43 -103 -95c0 -41 23 -94 108 -94h113v51c0 27 15 41 42 41h43c27 0 42 -11 42 -34v-58h50c27 0 42 -15 42 -42v-28
c0 -27 -15 -42 -42 -42h-50v-84c0 -145 -95 -241 -256 -241c-153 0 -253 93 -253 213zM171 209c0 -57 48 -103 121 -103c81 0 129 44 129 130v77h-120c-79 0 -130 -35 -130 -104z" />
    <glyph glyph-name="quotesingle" unicode="'" horiz-adv-x="194" 
d="M91 514c-27 0 -42 14 -42 42v125c0 27 15 42 42 42h13c27 0 41 -15 41 -42v-125c0 -28 -14 -42 -41 -42h-13z" />
    <glyph glyph-name="parenleft" unicode="(" horiz-adv-x="285" 
d="M147 -70c-65 117 -104 260 -104 413c0 133 36 258 101 370c12 21 27 28 50 28h19c32 0 44 -19 29 -49c-55 -110 -86 -228 -86 -350c0 -132 30 -264 89 -388c13 -29 2 -49 -30 -49h-21c-23 0 -37 7 -47 25z" />
    <glyph glyph-name="parenright" unicode=")" horiz-adv-x="285" 
d="M40 -44c58 124 88 255 88 386c0 122 -30 240 -86 350c-15 30 -5 49 27 49h21c23 0 38 -7 50 -28c65 -112 102 -237 102 -370c0 -151 -39 -294 -103 -410c-11 -20 -26 -28 -49 -28h-20c-33 0 -43 21 -30 51z" />
    <glyph glyph-name="asterisk" unicode="*" horiz-adv-x="469" 
d="M129 347l-21 15c-22 16 -25 37 -7 57l55 68v2l-83 22c-27 6 -38 24 -30 50l8 25c9 26 27 36 52 25l82 -32l-5 87c-3 28 12 44 40 44h28c27 0 42 -15 39 -43l-5 -88l81 32c26 10 46 2 54 -24l8 -25c8 -26 -1 -44 -28 -50l-86 -23v-2l55 -66c19 -21 16 -42 -6 -59l-21 -15
c-22 -17 -43 -13 -57 11l-47 73h-2l-46 -72c-15 -24 -35 -29 -58 -12z" />
    <glyph glyph-name="plus" unicode="+" horiz-adv-x="619" 
d="M84 236c-28 0 -42 15 -42 42v15c0 27 14 42 42 42h174v195c0 27 15 42 42 42h20c27 0 41 -15 41 -42v-195h175c27 0 41 -15 41 -42v-15c0 -27 -14 -42 -41 -42h-175v-194c0 -28 -14 -42 -41 -42h-20c-27 0 -42 14 -42 42v194h-174z" />
    <glyph glyph-name="comma" unicode="," horiz-adv-x="244" 
d="M21 -72l49 166c7 24 23 35 47 35h38c31 0 44 -20 32 -49l-69 -167c-9 -22 -24 -32 -48 -32h-13c-31 0 -44 18 -36 47z" />
    <glyph glyph-name="hyphen" unicode="-" horiz-adv-x="417" 
d="M100 230c-27 0 -42 14 -42 42v28c0 27 15 41 42 41h217c27 0 42 -14 42 -41v-28c0 -28 -15 -42 -42 -42h-217z" />
    <glyph glyph-name="period" unicode="." horiz-adv-x="238" 
d="M55 42v45c0 27 14 41 42 41h44c27 0 42 -14 42 -41v-45c0 -28 -15 -42 -42 -42h-44c-28 0 -42 14 -42 42z" />
    <glyph glyph-name="slash" unicode="/" horiz-adv-x="406" 
d="M36 5l229 707c8 23 23 34 48 34h22c30 0 44 -18 35 -47l-229 -707c-7 -23 -23 -34 -47 -34h-23c-30 0 -44 18 -35 47z" />
    <glyph glyph-name="zero" unicode="0" horiz-adv-x="624" 
d="M312 -12c-194 0 -257 164 -257 368s63 366 257 366s258 -162 258 -366s-64 -368 -258 -368zM312 106c97 0 125 110 125 250c0 138 -28 247 -125 247s-125 -109 -125 -247c0 -140 28 -250 125 -250z" />
    <glyph glyph-name="one" unicode="1" horiz-adv-x="492" 
d="M43 42v28c0 27 14 41 41 41h113v394c0 24 1 48 1 48h-2s-9 -19 -27 -36l-31 -30c-20 -18 -40 -18 -58 2l-19 20c-19 19 -18 40 1 59l126 121c16 14 31 21 52 21h42c27 0 41 -15 41 -42v-557h112c27 0 42 -14 42 -41v-28c0 -28 -15 -42 -42 -42h-351c-27 0 -41 14 -41 42z
" />
    <glyph glyph-name="two" unicode="2" horiz-adv-x="567" 
d="M43 42v21c0 256 332 297 332 438c0 62 -48 99 -108 99c-51 0 -87 -31 -105 -53c-19 -19 -39 -26 -59 -9l-27 21c-21 16 -26 35 -11 56c31 41 97 107 213 107c124 0 231 -76 231 -210c0 -228 -318 -267 -324 -401h293c28 0 42 -14 42 -41v-28c0 -28 -14 -42 -42 -42h-390
c-26 0 -45 14 -45 42z" />
    <glyph glyph-name="three" unicode="3" horiz-adv-x="560" 
d="M54 57c-21 16 -23 37 -8 58l20 31c15 23 34 24 57 9c26 -18 71 -45 128 -45c74 0 128 45 128 106c0 75 -69 110 -152 110h-15c-23 0 -36 8 -46 29l-4 8c-9 18 -6 37 9 54l109 129c27 33 51 54 51 54v2s-22 -3 -63 -3h-171c-27 0 -41 14 -41 41v28c0 27 14 42 41 42h350
c28 0 42 -14 42 -41v-11c0 -21 -5 -36 -19 -51l-155 -179c99 -14 194 -84 194 -207c0 -121 -91 -233 -250 -233c-99 0 -170 43 -205 69z" />
    <glyph glyph-name="four" unicode="4" horiz-adv-x="607" 
d="M61 183c-27 0 -41 14 -41 41v10c0 20 4 35 15 51l274 398c12 19 27 27 50 27h78c28 0 42 -15 42 -42v-378h50c27 0 42 -14 42 -41v-25c0 -27 -12 -41 -34 -41h-58v-141c0 -28 -14 -42 -42 -42h-44c-27 0 -41 14 -41 42v141h-291zM156 290h196v220c0 35 5 74 5 74h-2
s-16 -38 -35 -65l-164 -227v-2z" />
    <glyph glyph-name="five" unicode="5" horiz-adv-x="560" 
d="M63 59c-20 15 -21 37 -6 57l20 30c15 23 34 24 57 8c23 -18 63 -44 118 -44c69 0 133 46 133 121c0 74 -61 123 -142 123c-36 0 -65 -11 -82 -18c-20 -7 -37 -9 -56 -2l-9 3c-23 9 -33 25 -31 50l26 283c2 26 17 40 43 40h292c28 0 42 -15 42 -42v-28
c0 -27 -14 -41 -42 -41h-220l-11 -117c-1 -19 -5 -33 -5 -33h2s33 16 76 16c157 0 250 -105 250 -233c0 -140 -109 -244 -256 -244c-99 0 -165 43 -199 71z" />
    <glyph glyph-name="six" unicode="6" horiz-adv-x="599" 
d="M49 321c0 193 108 401 327 401c43 0 84 -8 107 -16c25 -8 34 -26 25 -53l-12 -33c-9 -28 -25 -32 -49 -27c-17 5 -36 10 -64 10c-115 0 -173 -95 -191 -196h2c23 29 74 56 143 56c135 0 220 -104 220 -228c0 -134 -93 -247 -234 -247c-148 0 -274 124 -274 333zM183 274
c0 -72 59 -168 140 -168c65 0 107 51 107 121c0 71 -44 130 -136 130c-63 0 -111 -33 -111 -83z" />
    <glyph glyph-name="seven" unicode="7" horiz-adv-x="527" 
d="M92 49l242 485c22 44 40 65 40 65v2s-11 -2 -46 -2h-262c-27 0 -41 14 -41 41v28c0 27 14 42 41 42h405c27 0 42 -14 42 -41v-22c0 -19 -3 -34 -12 -51l-284 -566c-11 -21 -26 -30 -50 -30h-45c-32 0 -44 20 -30 49z" />
    <glyph glyph-name="eight" unicode="8" horiz-adv-x="605" 
d="M48 201c0 105 86 170 109 186c-48 34 -81 78 -81 142c0 96 73 193 227 193c134 0 233 -75 233 -192c0 -91 -64 -162 -80 -178c57 -34 98 -83 98 -154c0 -107 -93 -210 -252 -210c-154 0 -254 97 -254 213zM364 397c11 16 47 60 47 118c0 61 -42 95 -107 95
c-68 0 -102 -37 -102 -83c0 -69 77 -94 162 -130zM177 215c0 -69 57 -115 126 -115c64 0 119 41 119 100c0 68 -75 89 -178 135c-19 -17 -67 -56 -67 -120z" />
    <glyph glyph-name="nine" unicode="9" horiz-adv-x="599" 
d="M91 56l12 34c9 28 25 31 49 27c18 -5 36 -11 64 -11c115 0 173 96 191 197h-2c-25 -32 -82 -57 -145 -57c-130 0 -218 107 -218 233c0 133 93 243 233 243c149 0 275 -124 275 -333c0 -192 -107 -401 -327 -401c-42 0 -84 8 -107 16c-25 8 -34 26 -25 52zM305 352
c63 0 111 34 111 84c0 71 -59 167 -140 167c-65 0 -106 -50 -106 -121c0 -70 43 -130 135 -130z" />
    <glyph glyph-name="colon" unicode=":" horiz-adv-x="245" 
d="M101 383c-27 0 -41 14 -41 41v44c0 27 14 42 41 42h43c28 0 42 -15 42 -42v-44c0 -27 -14 -41 -42 -41h-43zM60 42v43c0 28 14 42 41 42h43c28 0 42 -14 42 -42v-43c0 -28 -14 -42 -42 -42h-43c-27 0 -41 14 -41 42z" />
    <glyph glyph-name="semicolon" unicode=";" horiz-adv-x="276" 
d="M130 381c-27 0 -41 15 -41 42v45c0 27 14 42 41 42h41c27 0 42 -15 42 -42v-45c0 -27 -15 -42 -42 -42h-41zM37 -73l42 166c6 24 21 36 46 36h38c32 0 45 -19 33 -48l-61 -167c-8 -23 -23 -33 -48 -33h-14c-30 0 -43 18 -36 46z" />
    <glyph glyph-name="less" unicode="&#x3c;" horiz-adv-x="619" 
d="M87 231c-22 9 -31 24 -31 49v12c0 24 9 39 31 49l401 178c29 13 49 0 49 -31v-23c0 -24 -11 -39 -33 -48l-314 -130v-2l314 -130c22 -9 33 -24 33 -48v-23c0 -32 -20 -44 -49 -32z" />
    <glyph glyph-name="equal" unicode="=" horiz-adv-x="619" 
d="M107 339c-27 0 -41 15 -41 42v15c0 27 14 41 41 41h405c27 0 42 -14 42 -41v-15c0 -27 -15 -42 -42 -42h-405zM107 134c-27 0 -41 14 -41 41v15c0 28 14 42 41 42h405c27 0 42 -14 42 -42v-15c0 -27 -15 -41 -42 -41h-405z" />
    <glyph glyph-name="greater" unicode="&#x3e;" horiz-adv-x="619" 
d="M83 84v23c0 24 10 39 32 48l314 130v2l-314 130c-22 9 -32 24 -32 48v23c0 31 19 44 48 31l401 -178c22 -10 32 -25 32 -49v-12c0 -25 -10 -40 -32 -49l-401 -178c-29 -13 -48 0 -48 31z" />
    <glyph glyph-name="question" unicode="?" horiz-adv-x="469" 
d="M171 205c-27 0 -42 14 -42 41v16c0 127 165 160 165 262c0 47 -42 83 -97 83c-30 0 -56 -11 -74 -20c-23 -12 -46 -12 -60 10l-17 25c-16 22 -16 41 7 56c30 20 84 46 155 46c113 0 219 -70 219 -188c0 -157 -162 -184 -174 -285l-2 -17c-5 -21 -16 -29 -40 -29h-40z
M129 42v35c0 27 15 42 42 42h40c27 0 41 -15 41 -42v-35c0 -28 -14 -42 -41 -42h-40c-27 0 -42 14 -42 42z" />
    <glyph glyph-name="at" unicode="@" horiz-adv-x="810" 
d="M46 240c0 208 165 373 377 373c204 0 275 -103 275 -218v-250h31c27 0 41 -14 41 -41v-8c0 -27 -14 -42 -41 -42h-235c-135 0 -215 90 -215 186c0 95 78 183 215 183h84c-1 52 -64 88 -151 88c-145 0 -255 -129 -255 -271c0 -134 88 -248 231 -266c26 -4 40 -16 40 -43
v-16c0 -27 -15 -43 -43 -40c-213 18 -354 172 -354 365zM405 243c0 -54 38 -98 97 -98h76v196h-74c-61 0 -99 -45 -99 -98z" />
    <glyph glyph-name="A" unicode="A" horiz-adv-x="634" 
d="M16 48l222 628c8 23 23 34 47 34h64c24 0 40 -11 47 -34l222 -628c10 -29 -3 -48 -34 -48h-46c-24 0 -40 11 -47 34l-50 148h-249l-49 -147c-7 -24 -23 -35 -47 -35h-46c-31 0 -44 19 -34 48zM224 287h185l-63 190c-12 40 -28 110 -28 110h-2s-16 -70 -28 -110z" />
    <glyph glyph-name="B" unicode="B" horiz-adv-x="624" 
d="M82 42v626c0 27 14 42 41 42h212c128 0 220 -66 220 -183c0 -66 -32 -123 -86 -152v-2c77 -23 114 -95 114 -167c0 -142 -113 -206 -245 -206h-215c-27 0 -41 14 -41 42zM210 420h126c56 0 87 40 87 91s-30 88 -90 88h-123v-179zM210 111h138c66 0 103 43 103 103
c0 59 -38 102 -103 102h-138v-205z" />
    <glyph glyph-name="C" unicode="C" horiz-adv-x="704" 
d="M40 358c0 206 151 364 366 364c116 0 194 -44 232 -71c21 -16 22 -36 8 -58l-18 -29c-14 -23 -33 -25 -57 -10c-31 20 -87 50 -160 50c-155 0 -238 -113 -238 -244c0 -133 86 -254 239 -254c80 0 141 38 174 62c22 16 42 16 58 -7l20 -27c15 -20 14 -41 -6 -58
c-40 -32 -125 -88 -251 -88c-223 0 -367 161 -367 370z" />
    <glyph glyph-name="D" unicode="D" horiz-adv-x="728" 
d="M82 42v626c0 27 14 42 41 42h201c219 0 362 -130 362 -354s-143 -356 -362 -356h-201c-27 0 -41 14 -41 42zM210 111h107c144 0 236 85 236 245c0 158 -94 243 -236 243h-107v-488z" />
    <glyph glyph-name="E" unicode="E" horiz-adv-x="557" 
d="M82 42v626c0 27 14 42 41 42h342c27 0 42 -15 42 -42v-28c0 -27 -15 -41 -42 -41h-255v-186h198c27 0 42 -14 42 -41v-28c0 -28 -15 -42 -42 -42h-198v-191h271c27 0 42 -14 42 -41v-28c0 -28 -15 -42 -42 -42h-358c-27 0 -41 14 -41 42z" />
    <glyph glyph-name="F" unicode="F" horiz-adv-x="512" 
d="M82 42v626c0 27 14 42 41 42h325c27 0 42 -15 42 -42v-28c0 -27 -15 -41 -42 -41h-238v-201h194c27 0 42 -14 42 -41v-28c0 -27 -15 -42 -42 -42h-194v-245c0 -28 -14 -42 -41 -42h-46c-27 0 -41 14 -41 42z" />
    <glyph glyph-name="G" unicode="G" horiz-adv-x="754" 
d="M40 352c0 212 155 370 367 370c117 0 202 -44 232 -65c22 -17 24 -35 9 -58l-18 -28c-15 -23 -33 -25 -58 -11c-31 18 -82 44 -158 44c-155 0 -241 -112 -241 -246c0 -149 105 -252 237 -252c119 0 180 78 180 78v79h-68c-27 0 -42 15 -42 42v27c0 28 15 42 42 42h142
c27 0 41 -14 41 -42v-290c0 -28 -14 -42 -41 -42h-25c-27 0 -41 14 -41 34v17c0 9 1 17 1 17h-2s-71 -80 -208 -80c-188 0 -349 147 -349 364z" />
    <glyph glyph-name="H" unicode="H" horiz-adv-x="745" 
d="M82 42v626c0 27 14 42 41 42h46c27 0 41 -15 41 -42v-259h325v259c0 27 14 42 42 42h45c27 0 41 -15 41 -42v-626c0 -28 -14 -42 -41 -42h-45c-28 0 -42 14 -42 42v256h-325v-256c0 -28 -14 -42 -41 -42h-46c-27 0 -41 14 -41 42z" />
    <glyph glyph-name="I" unicode="I" horiz-adv-x="292" 
d="M82 42v626c0 27 14 42 41 42h46c27 0 41 -15 41 -42v-626c0 -28 -14 -42 -41 -42h-46c-27 0 -41 14 -41 42z" />
    <glyph glyph-name="J" unicode="J" horiz-adv-x="535" 
d="M19 210c0 27 14 41 41 41h47c27 0 37 -11 40 -40c4 -57 30 -105 93 -105c49 0 92 30 92 106v387h-141c-28 0 -42 14 -42 41v28c0 27 14 42 42 42h228c27 0 42 -15 42 -42v-458c0 -155 -112 -222 -221 -222c-110 0 -221 70 -221 222z" />
    <glyph glyph-name="K" unicode="K" horiz-adv-x="628" 
d="M82 42v626c0 27 14 42 41 42h46c27 0 41 -15 41 -42v-247h93l150 260c11 20 26 29 49 29h49c33 0 45 -22 29 -50l-172 -288v-2l185 -320c17 -29 4 -50 -29 -50h-55c-23 0 -38 9 -49 29l-157 281h-93v-268c0 -28 -14 -42 -41 -42h-46c-27 0 -41 14 -41 42z" />
    <glyph glyph-name="L" unicode="L" horiz-adv-x="521" 
d="M82 42v626c0 27 14 42 41 42h46c27 0 41 -15 41 -42v-557h265c28 0 42 -14 42 -41v-28c0 -28 -14 -42 -42 -42h-352c-27 0 -41 14 -41 42z" />
    <glyph glyph-name="M" unicode="M" horiz-adv-x="853" 
d="M59 43l51 627c3 26 17 40 43 40h63c24 0 39 -11 47 -34l127 -317c16 -42 36 -104 36 -104h2s19 62 35 104l127 317c8 23 23 34 48 34h62c26 0 41 -14 43 -40l51 -627c2 -27 -12 -43 -40 -43h-45c-26 0 -41 14 -43 40l-27 357c-3 47 -1 110 -1 110h-2s-22 -69 -38 -110
l-103 -242c-8 -22 -23 -33 -47 -33h-42c-25 0 -40 11 -48 33l-102 242c-16 41 -39 111 -39 111h-2s2 -64 -1 -111l-27 -357c-2 -26 -16 -40 -43 -40h-45c-28 0 -42 16 -40 43z" />
    <glyph glyph-name="N" unicode="N" horiz-adv-x="743" 
d="M82 42v626c0 27 14 42 41 42h54c24 0 39 -8 50 -28l252 -382c27 -42 59 -110 59 -110h2s-7 68 -7 110v368c0 27 15 42 42 42h45c27 0 42 -15 42 -42v-626c0 -28 -15 -42 -42 -42h-54c-22 0 -38 8 -49 28l-253 381c-26 42 -59 110 -59 110h-2s7 -68 7 -110v-367
c0 -28 -14 -42 -41 -42h-46c-27 0 -41 14 -41 42z" />
    <glyph glyph-name="O" unicode="O" horiz-adv-x="814" 
d="M40 360c0 203 152 362 367 362s367 -159 367 -362c0 -209 -152 -372 -367 -372s-367 163 -367 372zM173 360c0 -144 98 -254 234 -254s234 110 234 254c0 138 -98 244 -234 244s-234 -106 -234 -244z" />
    <glyph glyph-name="P" unicode="P" horiz-adv-x="604" 
d="M82 42v626c0 27 14 42 41 42h232c133 0 226 -93 226 -231s-93 -234 -226 -234h-145v-203c0 -28 -14 -42 -41 -42h-46c-27 0 -41 14 -41 42zM210 357h121c76 0 119 48 119 122c0 73 -43 120 -117 120h-123v-242z" />
    <glyph glyph-name="Q" unicode="Q" horiz-adv-x="814" 
d="M40 359c0 204 153 363 367 363c215 0 367 -159 367 -363c0 -86 -30 -163 -78 -225l48 -45c20 -17 22 -38 4 -59l-18 -19c-18 -19 -38 -21 -55 -4l-51 51c-60 -45 -134 -70 -217 -70c-215 0 -367 164 -367 371zM173 359c0 -143 100 -253 234 -253c44 0 90 13 124 38
l-49 47c-19 17 -21 38 -3 58l18 19c18 20 38 22 55 5l50 -51c25 39 39 87 39 137c0 140 -101 245 -234 245c-134 0 -234 -105 -234 -245z" />
    <glyph glyph-name="R" unicode="R" horiz-adv-x="626" 
d="M82 42v626c0 27 14 42 41 42h192c70 0 105 -6 135 -19c72 -30 119 -98 119 -194c0 -84 -44 -164 -118 -194v-2s9 -11 23 -37l117 -214c17 -29 4 -50 -29 -50h-54c-23 0 -38 9 -49 29l-125 236h-124v-223c0 -28 -14 -42 -41 -42h-46c-27 0 -41 14 -41 42zM210 377h116
c69 0 112 43 112 113c0 45 -17 81 -56 97c-17 8 -39 12 -77 12h-95v-222z" />
    <glyph glyph-name="S" unicode="S" horiz-adv-x="549" 
d="M57 60c-16 14 -26 31 -6 58l22 32c16 22 33 23 58 9c23 -16 74 -52 144 -52c66 0 106 33 106 81c0 135 -331 107 -331 328c0 125 104 206 239 206c84 0 153 -32 183 -54c22 -16 25 -35 13 -57l-18 -33c-15 -29 -36 -25 -57 -14c-29 17 -68 39 -123 39
c-66 0 -108 -32 -108 -80c0 -133 331 -99 331 -325c0 -115 -86 -210 -235 -210c-101 0 -183 45 -218 72z" />
    <glyph glyph-name="T" unicode="T" horiz-adv-x="605" 
d="M239 42v557h-191c-28 0 -42 14 -42 41v28c0 27 14 42 42 42h510c27 0 41 -15 41 -42v-28c0 -27 -14 -41 -41 -41h-191v-557c0 -28 -14 -42 -42 -42h-45c-27 0 -41 14 -41 42z" />
    <glyph glyph-name="U" unicode="U" horiz-adv-x="719" 
d="M74 255v413c0 27 14 42 41 42h45c28 0 42 -15 42 -42v-412c0 -96 62 -150 157 -150s158 54 158 150v412c0 27 14 42 41 42h46c27 0 41 -15 41 -42v-413c0 -159 -114 -267 -285 -267c-172 0 -286 108 -286 267z" />
    <glyph glyph-name="V" unicode="V" horiz-adv-x="638" 
d="M240 33l-228 629c-10 29 3 48 34 48h53c24 0 40 -11 47 -35l145 -428c13 -41 27 -104 27 -104h2s13 63 27 104l147 428c6 24 22 35 46 35h51c31 0 44 -19 34 -48l-227 -629c-8 -23 -23 -33 -47 -33h-64c-24 0 -39 10 -47 33z" />
    <glyph glyph-name="W" unicode="W" horiz-adv-x="960" 
d="M192 36l-157 628c-7 28 6 46 36 46h50c24 0 39 -12 45 -37l103 -454c9 -40 11 -75 11 -75h2s4 34 15 75l118 455c7 24 22 36 47 36h34c25 0 40 -12 45 -36l117 -455c11 -41 15 -75 15 -75h2s3 35 12 75l109 454c5 25 20 37 46 37h47c30 0 44 -18 37 -46l-163 -629
c-7 -24 -22 -35 -47 -35h-71c-25 0 -40 12 -46 36l-101 384c-12 46 -19 93 -19 93h-3s-7 -47 -18 -93l-102 -384c-6 -24 -21 -36 -46 -36h-72c-25 0 -40 12 -46 36z" />
    <glyph glyph-name="X" unicode="X" horiz-adv-x="608" 
d="M36 50l190 310l-182 300c-17 28 -5 50 28 50h56c23 0 38 -9 49 -29l82 -145c22 -41 44 -87 44 -87h2s21 45 44 87l83 145c11 20 26 29 49 29h56c33 0 45 -22 28 -50l-183 -300l190 -310c18 -29 6 -50 -28 -50h-52c-23 0 -38 9 -49 29l-95 162c-23 41 -44 84 -44 84h-2
s-20 -43 -43 -84l-94 -162c-11 -20 -26 -29 -49 -29h-51c-34 0 -47 21 -29 50z" />
    <glyph glyph-name="Y" unicode="Y" horiz-adv-x="580" 
d="M226 42v255l-208 363c-17 28 -4 50 28 50h56c23 0 38 -10 48 -31l96 -178c22 -44 43 -95 43 -95h2s21 51 43 95l96 178c10 21 25 31 48 31h56c33 0 45 -22 29 -50l-209 -363v-255c0 -28 -14 -42 -41 -42h-45c-28 0 -42 14 -42 42z" />
    <glyph glyph-name="Z" unicode="Z" horiz-adv-x="601" 
d="M31 42v12c0 21 5 36 17 53l298 428c28 41 52 64 52 64v2s-20 -2 -53 -2h-256c-27 0 -42 14 -42 41v28c0 27 15 42 42 42h430c27 0 41 -15 41 -41v-12c0 -21 -4 -36 -16 -53l-299 -429c-28 -41 -52 -64 -52 -64v-2s20 2 53 2h277c27 0 42 -14 42 -41v-28
c0 -28 -15 -42 -42 -42h-450c-27 0 -42 14 -42 42z" />
    <glyph glyph-name="bracketleft" unicode="[" horiz-adv-x="303" 
d="M72 -53v753c0 27 15 41 42 41h114c27 0 42 -14 42 -41v-9c0 -27 -14 -42 -39 -42h-50v-652h47c27 0 42 -15 42 -42v-8c0 -28 -15 -42 -42 -42h-114c-27 0 -42 14 -42 42z" />
    <glyph glyph-name="backslash" unicode="\" horiz-adv-x="406" 
d="M264 -8l-228 707c-9 29 5 47 35 47h22c25 0 40 -11 48 -34l228 -707c10 -29 -4 -47 -34 -47h-23c-25 0 -40 11 -48 34z" />
    <glyph glyph-name="bracketright" unicode="]" horiz-adv-x="303" 
d="M34 -45c0 27 14 42 41 42h48v652h-48c-27 0 -41 15 -41 42v9c0 27 14 41 41 41h115c27 0 41 -14 41 -41v-753c0 -28 -14 -42 -41 -42h-115c-27 0 -41 14 -41 42v8z" />
    <glyph glyph-name="asciicircum" unicode="^" horiz-adv-x="619" 
d="M118 245c-32 0 -45 20 -33 48l167 385c9 22 24 32 48 32h11c25 0 40 -10 49 -32l166 -385c12 -28 0 -48 -32 -48h-22c-24 0 -39 10 -48 33l-118 298l-119 -298c-8 -23 -23 -33 -48 -33h-21z" />
    <glyph glyph-name="underscore" unicode="_" horiz-adv-x="564" 
d="M1 -42c0 28 15 42 42 42h478c27 0 41 -14 41 -42v-15c0 -27 -14 -41 -41 -41h-478c-27 0 -42 14 -42 41v15z" />
    <glyph glyph-name="grave" unicode="`" horiz-adv-x="493" 
d="M279 757c-22 0 -37 8 -51 25l-45 61c-22 27 -14 50 21 50h37c22 0 37 -8 49 -29l35 -61c13 -23 9 -46 -20 -46h-26z" />
    <glyph glyph-name="a" unicode="a" horiz-adv-x="525" 
d="M24 141c0 149 184 174 298 174h21v12c0 67 -43 90 -95 90c-43 0 -82 -16 -106 -29c-25 -11 -44 -7 -56 17l-10 19c-12 23 -8 43 16 56c33 17 91 42 167 42c132 0 211 -74 211 -203v-277c0 -28 -14 -42 -42 -42h-34c-27 0 -41 14 -41 42v20c0 14 2 22 2 22h-2
s-48 -96 -160 -96c-93 0 -169 60 -169 153zM150 152c0 -34 26 -67 77 -67c71 0 117 72 117 134v19h-21c-64 0 -173 -10 -173 -86z" />
    <glyph glyph-name="b" unicode="b" horiz-adv-x="603" 
d="M63 42v626c0 27 15 42 42 42h43c28 0 42 -15 42 -42v-185c0 -25 -3 -43 -3 -43h2s45 82 156 82c135 0 225 -109 225 -266c0 -163 -101 -268 -233 -268c-115 0 -156 86 -156 86h-2s2 -8 2 -22v-16c0 -22 -14 -36 -42 -36h-34c-27 0 -42 14 -42 42zM186 255
c0 -83 43 -160 126 -160c71 0 129 57 129 158c0 96 -52 160 -126 160c-66 0 -129 -49 -129 -158z" />
    <glyph glyph-name="c" unicode="c" horiz-adv-x="530" 
d="M31 255c0 145 108 267 277 267c82 0 137 -30 167 -51c21 -14 22 -35 8 -57l-13 -20c-15 -23 -32 -23 -56 -11c-21 14 -55 31 -99 31c-94 0 -155 -71 -155 -158c0 -86 61 -160 159 -160c50 0 90 22 114 39c25 14 44 11 57 -13l10 -19c12 -22 9 -42 -11 -56
c-31 -23 -93 -59 -181 -59c-169 0 -277 119 -277 267z" />
    <glyph glyph-name="d" unicode="d" horiz-adv-x="603" 
d="M33 255c0 162 96 267 231 267c112 0 149 -73 149 -73h2s-2 13 -2 29v190c0 27 14 42 41 42h44c27 0 41 -15 41 -42v-626c0 -28 -14 -42 -41 -42h-37c-27 0 -41 13 -41 38v20c0 10 2 18 2 18h-2s-43 -88 -160 -88c-138 0 -227 109 -227 267zM161 255
c0 -97 52 -160 127 -160c66 0 128 48 128 161c0 79 -41 157 -127 157c-69 0 -128 -57 -128 -158z" />
    <glyph glyph-name="e" unicode="e" horiz-adv-x="546" 
d="M32 255c0 157 106 267 259 267c145 0 226 -103 226 -243c0 -22 -19 -43 -44 -43h-311c8 -92 76 -140 153 -140c47 0 86 18 110 33c25 12 43 9 56 -14l12 -20c12 -23 8 -43 -14 -56c-33 -21 -93 -51 -173 -51c-169 0 -274 122 -274 267zM165 313h226
c-2 71 -45 113 -103 113c-65 0 -111 -45 -123 -113z" />
    <glyph glyph-name="f" unicode="f" horiz-adv-x="338" 
d="M90 42v360h-25c-27 0 -41 14 -41 42v17c0 27 14 42 41 42h25v24c0 162 143 187 195 187h15c27 0 41 -14 41 -42v-26c0 -27 -15 -39 -43 -41c-31 -2 -81 -9 -81 -83v-19h68c27 0 41 -15 41 -42v-17c0 -28 -14 -42 -41 -42h-68v-360c0 -28 -15 -42 -42 -42h-44
c-27 0 -41 14 -41 42z" />
    <glyph glyph-name="g" unicode="g" horiz-adv-x="595" 
d="M105 -106c11 25 26 32 53 23c24 -9 56 -19 103 -19c78 0 144 33 144 124v38c0 12 2 26 2 26h-2c-28 -48 -72 -76 -140 -76c-149 0 -231 118 -231 259c0 139 78 253 230 253c119 0 151 -78 151 -78h2s-1 5 -1 13v19c0 19 14 34 41 34h34c27 0 41 -15 41 -42v-437
c0 -175 -138 -241 -264 -241c-57 0 -114 12 -149 27c-26 11 -33 28 -22 54zM290 117c60 0 118 35 118 149c0 117 -58 148 -124 148c-79 0 -122 -56 -122 -140c0 -92 46 -157 128 -157z" />
    <glyph glyph-name="h" unicode="h" horiz-adv-x="599" 
d="M63 42v626c0 27 15 42 42 42h43c28 0 42 -15 42 -42v-206c0 -25 -3 -43 -3 -43h2c25 49 89 103 177 103c113 0 178 -59 178 -194v-286c0 -28 -15 -42 -42 -42h-43c-28 0 -42 14 -42 42v260c0 62 -16 104 -80 104c-89 0 -147 -72 -147 -169v-195c0 -28 -14 -42 -42 -42
h-43c-27 0 -42 14 -42 42z" />
    <glyph glyph-name="i" unicode="i" horiz-adv-x="252" 
d="M104 597c-27 0 -41 14 -41 41v30c0 27 14 42 41 42h44c27 0 42 -15 42 -42v-30c0 -27 -15 -41 -42 -41h-44zM63 42v426c0 27 14 42 41 42h44c27 0 41 -15 41 -42v-426c0 -28 -14 -42 -41 -42h-44c-27 0 -41 14 -41 42z" />
    <glyph glyph-name="j" unicode="j" horiz-adv-x="253" 
d="M105 597c-27 0 -42 14 -42 41v30c0 27 15 42 42 42h44c27 0 41 -15 41 -42v-30c0 -27 -14 -41 -41 -41h-44zM63 -5v473c0 27 15 42 42 42h43c28 0 42 -15 42 -42v-481c0 -166 -145 -194 -195 -194h-15c-27 0 -41 14 -41 42v26c0 32 20 38 41 41c35 4 83 15 83 93z" />
    <glyph glyph-name="k" unicode="k" horiz-adv-x="533" 
d="M63 42v626c0 27 15 42 42 42h43c28 0 42 -15 42 -42v-338h63l106 152c12 20 27 28 50 28h48c34 0 45 -23 26 -50l-127 -178v-2l150 -230c17 -29 6 -50 -28 -50h-54c-23 0 -38 9 -49 29l-119 194h-66v-181c0 -28 -14 -42 -42 -42h-43c-27 0 -42 14 -42 42z" />
    <glyph glyph-name="l" unicode="l" horiz-adv-x="279" 
d="M62 159v509c0 27 14 42 41 42h44c27 0 41 -15 41 -42v-499c0 -50 21 -59 40 -61c18 -2 31 -13 31 -36v-34c0 -26 -12 -43 -42 -43c-68 0 -155 18 -155 164z" />
    <glyph glyph-name="m" unicode="m" horiz-adv-x="898" 
d="M63 42v426c0 27 14 42 41 42h39c27 0 41 -15 41 -42v-31c0 -11 -2 -23 -2 -23h2c25 50 87 108 167 108c77 0 128 -36 149 -105h2c27 53 94 105 174 105c106 0 167 -60 167 -194v-286c0 -28 -15 -42 -42 -42h-43c-28 0 -42 14 -42 42v262c0 58 -11 102 -70 102
c-86 0 -130 -88 -130 -177v-187c0 -28 -14 -42 -41 -42h-44c-27 0 -42 14 -42 42v262c0 55 -8 102 -68 102c-90 0 -132 -92 -132 -177v-187c0 -28 -14 -42 -41 -42h-44c-27 0 -41 14 -41 42z" />
    <glyph glyph-name="n" unicode="n" horiz-adv-x="599" 
d="M63 42v426c0 27 14 42 41 42h39c27 0 41 -15 41 -42v-31c0 -11 -2 -23 -2 -23h2c22 43 78 108 181 108c113 0 178 -59 178 -194v-286c0 -28 -14 -42 -42 -42h-43c-27 0 -42 14 -42 42v260c0 62 -16 104 -80 104c-90 0 -147 -75 -147 -167v-197c0 -28 -14 -42 -41 -42h-44
c-27 0 -41 14 -41 42z" />
    <glyph glyph-name="o" unicode="o" horiz-adv-x="622" 
d="M31 255c0 156 125 267 280 267s281 -111 281 -267c0 -157 -126 -267 -281 -267s-280 110 -280 267zM160 255c0 -95 68 -159 151 -159s152 64 152 159c0 94 -69 159 -152 159s-151 -65 -151 -159z" />
    <glyph glyph-name="p" unicode="p" horiz-adv-x="603" 
d="M63 -158v626c0 27 15 42 42 42h32c27 0 41 -15 41 -35v-23c0 -11 -1 -20 -1 -20h2s45 90 164 90c138 0 227 -109 227 -267c0 -162 -100 -267 -234 -267c-106 0 -147 78 -147 78h-2s3 -18 3 -44v-180c0 -28 -14 -42 -42 -42h-43c-27 0 -42 14 -42 42zM186 252
c0 -79 44 -157 127 -157c70 0 128 57 128 158c0 97 -52 160 -126 160c-66 0 -129 -48 -129 -161z" />
    <glyph glyph-name="q" unicode="q" horiz-adv-x="603" 
d="M33 255c0 162 97 267 233 267c117 0 157 -84 157 -84h2s-2 8 -2 20v18c0 19 14 34 42 34h33c27 0 41 -15 41 -42v-626c0 -28 -14 -42 -41 -42h-44c-27 0 -41 14 -41 42v185c0 26 2 44 2 44h-2s-38 -83 -157 -83c-132 0 -223 109 -223 267zM161 255
c0 -97 52 -160 127 -160c66 0 128 48 128 161c0 79 -41 157 -127 157c-69 0 -128 -57 -128 -158z" />
    <glyph glyph-name="r" unicode="r" horiz-adv-x="375" 
d="M63 42v426c0 27 14 42 41 42h39c27 0 42 -15 42 -42v-48c0 -19 -3 -35 -3 -35h2c20 61 76 129 148 129c28 0 38 -14 38 -42v-39c0 -27 -16 -42 -43 -42c-93 0 -138 -92 -138 -185v-164c0 -28 -14 -42 -41 -42h-44c-27 0 -41 14 -41 42z" />
    <glyph glyph-name="s" unicode="s" horiz-adv-x="447" 
d="M51 40c-23 13 -25 35 -10 57l12 18c15 21 32 23 57 10c24 -13 62 -35 114 -35c44 0 71 20 71 52c0 83 -253 52 -253 227c0 100 88 153 195 153c68 0 115 -22 142 -37c23 -12 26 -33 15 -56l-10 -18c-12 -24 -31 -27 -56 -16c-22 10 -55 25 -97 25c-44 0 -69 -18 -69 -50
c0 -84 253 -51 253 -225c0 -90 -76 -157 -194 -157c-82 0 -139 31 -170 52z" />
    <glyph glyph-name="t" unicode="t" horiz-adv-x="364" 
d="M91 182v220h-27c-27 0 -41 14 -41 42v17c0 27 14 42 42 42h29v104c0 27 15 42 42 42h40c27 0 42 -15 42 -42v-104h74c27 0 42 -15 42 -42v-17c0 -28 -15 -42 -41 -42h-75v-198c0 -76 47 -91 82 -95c31 -3 42 -13 42 -41v-31c0 -30 -17 -42 -52 -42
c-91 0 -199 49 -199 187z" />
    <glyph glyph-name="u" unicode="u" horiz-adv-x="594" 
d="M56 182v286c0 27 15 42 42 42h43c28 0 42 -15 42 -42v-260c0 -62 16 -104 79 -104c92 0 143 81 143 172v192c0 27 14 42 42 42h43c27 0 42 -15 42 -42v-426c0 -28 -15 -42 -42 -42h-39c-27 0 -41 14 -41 42v30c0 12 2 23 2 23h-2c-24 -52 -90 -107 -177 -107
c-109 0 -177 55 -177 194z" />
    <glyph glyph-name="v" unicode="v" horiz-adv-x="520" 
d="M174 34l-156 428c-10 29 2 48 33 48h47c24 0 40 -11 47 -35l95 -281c10 -30 19 -77 19 -77h2s8 47 18 77l95 281c7 24 23 35 47 35h47c31 0 44 -19 34 -48l-154 -428c-8 -24 -23 -34 -47 -34h-80c-24 0 -40 10 -47 34z" />
    <glyph glyph-name="w" unicode="w" horiz-adv-x="810" 
d="M154 35l-132 428c-8 28 6 47 35 47h48c25 0 40 -12 45 -37l82 -298c6 -27 10 -54 10 -54h2s4 27 11 54l86 298c5 24 21 36 46 36h38c25 0 40 -12 46 -36l85 -298c8 -27 11 -54 11 -54h2s4 27 11 54l81 298c6 25 21 37 46 37h46c30 0 43 -19 35 -47l-131 -428
c-7 -24 -23 -35 -47 -35h-67c-25 0 -41 12 -47 36l-77 255c-8 27 -12 55 -12 55h-2s-5 -28 -13 -55l-77 -255c-6 -24 -21 -36 -46 -36h-69c-24 0 -39 11 -46 35z" />
    <glyph glyph-name="x" unicode="x" horiz-adv-x="498" 
d="M37 50l136 208l-132 202c-19 28 -7 50 27 50h51c23 0 38 -10 49 -30l64 -109c7 -13 16 -32 16 -32h2s10 19 16 32l64 109c11 20 26 30 49 30h51c34 0 46 -22 27 -50l-131 -202l136 -208c18 -28 6 -50 -28 -50h-48c-23 0 -38 9 -49 29l-73 119c-6 11 -14 27 -14 27h-2
s-7 -16 -14 -27l-72 -119c-12 -20 -27 -29 -49 -29h-49c-34 0 -46 22 -27 50z" />
    <glyph glyph-name="y" unicode="y" horiz-adv-x="514" 
d="M24 -119c11 23 28 27 45 23c9 -4 21 -9 36 -9c37 0 66 32 81 68l19 45l-194 453c-13 29 0 49 32 49h54c25 0 39 -11 47 -34l96 -260c9 -27 19 -69 19 -69h2s9 40 17 67l90 261c7 24 22 35 47 35h50c31 0 44 -19 34 -48l-210 -538c-35 -93 -109 -134 -184 -134
c-28 0 -53 8 -71 15c-24 9 -30 31 -19 54z" />
    <glyph glyph-name="z" unicode="z" horiz-adv-x="510" 
d="M28 34v10c0 21 5 31 18 47l211 264c24 29 43 47 43 47v2s-14 -2 -47 -2h-173c-28 0 -42 15 -42 42v24c0 27 14 42 42 42h350c27 0 42 -12 42 -34v-10c0 -21 -5 -31 -18 -47l-211 -265c-23 -29 -44 -47 -44 -47v-2s15 3 48 3h190c28 0 42 -15 42 -42v-24
c0 -28 -14 -42 -42 -42h-367c-27 0 -42 12 -42 34z" />
    <glyph glyph-name="braceleft" unicode="{" horiz-adv-x="343" 
d="M109 71v97c0 57 -29 82 -51 94c-21 12 -34 21 -34 46v39c0 25 13 34 33 47c23 10 52 36 52 95v85c0 145 110 170 153 170h13c27 0 42 -14 42 -42v-15c0 -27 -15 -41 -42 -41c-20 0 -58 -8 -58 -85v-105c0 -100 -82 -127 -82 -127v-2s82 -23 82 -126v-117
c0 -76 38 -84 58 -84c27 0 42 -15 42 -42v-15c0 -27 -15 -42 -42 -42h-13c-43 0 -153 26 -153 170z" />
    <glyph glyph-name="bar" unicode="|" horiz-adv-x="251" 
d="M71 -120v874c0 28 15 42 42 42h25c27 0 42 -14 42 -42v-874c0 -27 -15 -41 -42 -41h-25c-27 0 -42 14 -42 41z" />
    <glyph glyph-name="braceright" unicode="}" horiz-adv-x="344" 
d="M26 -42c0 27 15 42 42 42c20 0 58 8 58 84v117c0 103 82 126 82 126v2s-82 27 -82 127v105c0 77 -38 85 -58 85c-27 0 -42 14 -42 41v15c0 28 15 42 42 42h13c43 0 153 -25 153 -170v-85c0 -59 29 -85 52 -95c20 -13 33 -22 33 -47v-39c0 -25 -13 -34 -34 -46
c-22 -12 -51 -37 -51 -94v-97c0 -144 -110 -170 -153 -170h-13c-27 0 -42 15 -42 42v15z" />
    <glyph glyph-name="asciitilde" unicode="~" horiz-adv-x="593" 
d="M90 199c-28 0 -44 18 -39 52c14 88 67 130 149 130c101 0 118 -91 184 -91c33 0 48 25 56 49c10 24 19 38 44 38h20c27 0 44 -16 40 -44c-12 -94 -66 -138 -150 -138c-100 0 -118 90 -185 90c-32 0 -47 -24 -54 -49c-11 -23 -20 -37 -45 -37h-20z" />
    <glyph glyph-name="exclamdown" unicode="&#xa1;" horiz-adv-x="262" 
d="M145 304c26 0 41 -14 42 -41l8 -421c0 -28 -14 -43 -41 -43h-47c-27 0 -42 15 -41 43l8 421c0 27 15 41 42 41h29zM191 467v-35c0 -27 -14 -42 -41 -42h-40c-27 0 -42 15 -42 42v35c0 28 15 42 42 42h40c27 0 41 -14 41 -42z" />
    <glyph glyph-name="cent" unicode="&#xa2;" horiz-adv-x="563" 
d="M253 29v45c-126 21 -211 137 -211 281s85 260 211 282v42c0 28 13 42 40 42h7c27 0 40 -12 40 -33v-51c75 -12 143 -67 172 -123c12 -24 5 -43 -22 -54l-38 -15c-29 -11 -40 1 -55 19c-23 35 -54 56 -95 56c-79 0 -132 -67 -132 -167c0 -96 49 -163 131 -163
c43 0 73 21 96 56c14 17 27 30 55 20l38 -15c26 -11 34 -30 22 -55c-28 -53 -95 -115 -172 -122v-45c0 -27 -13 -41 -40 -41h-7c-27 0 -40 14 -40 41z" />
    <glyph glyph-name="sterling" unicode="&#xa3;" horiz-adv-x="591" 
d="M52 42v28c0 27 14 41 41 41h21v200h-17c-27 0 -38 13 -38 40v6c0 27 11 41 38 41h17v121c0 118 95 203 227 203c65 0 116 -26 146 -46c22 -15 22 -37 5 -58l-19 -25c-17 -21 -36 -21 -59 -8c-16 9 -42 20 -70 20c-60 0 -99 -39 -99 -90v-117h135c27 0 41 -14 41 -41v-6
c0 -27 -14 -40 -41 -40h-135v-200h269c28 0 42 -14 42 -41v-28c0 -28 -14 -42 -42 -42h-421c-27 0 -41 14 -41 42z" />
    <glyph glyph-name="yen" unicode="&#xa5;" horiz-adv-x="600" 
d="M113 186c-27 0 -41 12 -41 36v6c0 23 14 35 41 35h122v33l-26 48h-96c-27 0 -41 11 -41 35v6c0 24 12 35 36 35h62l-129 241c-15 28 -2 49 30 49h58c24 0 39 -11 47 -33l81 -157c22 -55 43 -114 43 -114h2s20 59 43 114l80 157c8 22 24 33 47 33h57c33 0 46 -21 31 -49
l-130 -241h57c27 0 41 -11 41 -35v-6c0 -24 -14 -35 -41 -35h-96l-25 -48v-33h121c27 0 41 -12 41 -35v-6c0 -24 -14 -36 -41 -36h-121v-144c0 -28 -15 -42 -42 -42h-48c-27 0 -41 14 -41 42v144h-122z" />
    <glyph glyph-name="section" unicode="&#xa7;" horiz-adv-x="468" 
d="M129 174l-64 308c-5 19 -7 39 -7 57c0 104 73 183 205 183c60 0 106 -20 135 -38c22 -13 24 -35 9 -57l-11 -15c-15 -22 -33 -23 -57 -12c-18 9 -45 18 -75 18c-57 0 -103 -27 -103 -94c0 -14 2 -31 7 -50l58 -290c7 -28 -6 -46 -36 -46h-15c-25 0 -40 11 -46 36zM61 33
l10 17c15 23 33 24 57 12c20 -11 47 -21 78 -21c57 0 103 31 103 101c0 16 -2 35 -9 57l-54 277c-8 28 6 46 35 46h15c25 0 40 -11 46 -36l63 -308c4 -20 7 -39 7 -57c0 -105 -74 -183 -205 -183c-61 0 -107 20 -135 38c-23 14 -25 35 -11 57z" />
    <glyph glyph-name="dieresis" unicode="&#xa8;" horiz-adv-x="493" 
d="M331 777c-27 0 -41 14 -41 42v33c0 27 14 41 41 41h15c27 0 41 -14 41 -41v-33c0 -28 -14 -42 -41 -42h-15zM148 777c-28 0 -42 14 -42 42v33c0 27 14 41 42 41h14c27 0 42 -14 42 -41v-33c0 -28 -15 -42 -42 -42h-14z" />
    <glyph glyph-name="copyright" unicode="&#xa9;" horiz-adv-x="808" 
d="M45 355c0 203 159 366 358 366s360 -163 360 -366s-161 -367 -360 -367s-358 164 -358 367zM134 355c0 -160 117 -286 269 -286s271 126 271 286c0 159 -118 285 -271 285s-269 -126 -269 -285zM220 353c0 106 77 195 190 195c69 0 119 -40 139 -68c13 -19 7 -35 -4 -44
l-15 -13c-15 -13 -36 -7 -49 9c-12 13 -33 33 -69 33c-61 0 -100 -48 -100 -114c0 -61 36 -110 100 -110c41 0 63 22 74 36c14 15 29 18 44 6l14 -12c19 -16 15 -32 4 -46c-20 -25 -68 -67 -138 -67c-114 0 -190 89 -190 195z" />
    <glyph glyph-name="ordfeminine" unicode="&#xaa;" horiz-adv-x="398" 
d="M162 383c-55 0 -108 35 -108 99c0 106 135 109 186 109h8v7c0 39 -25 52 -57 52c-18 0 -40 -6 -52 -12c-21 -8 -38 -5 -46 12l-3 7c-8 16 -4 33 23 44c18 8 51 19 91 19c87 0 134 -49 134 -130v-159c0 -27 -13 -42 -38 -42h-3c-25 0 -38 14 -38 39v14h-2s-26 -59 -95 -59
zM184 453c37 0 63 37 63 72v7h-11c-35 0 -92 -5 -92 -45c0 -20 15 -34 40 -34zM97 266c-28 0 -42 10 -42 32v5c0 21 14 31 42 31h203c27 0 42 -10 42 -31v-5c0 -22 -15 -32 -42 -32h-203z" />
    <glyph glyph-name="guillemotleft" unicode="&#xab;" horiz-adv-x="554" 
d="M274 253c-16 19 -16 39 0 58l121 153c14 16 29 24 51 24h24c36 0 47 -23 24 -51l-123 -155l123 -154c22 -28 14 -51 -19 -51h-29c-22 0 -37 8 -51 24zM170 101l-121 152c-16 19 -16 39 0 58l121 153c14 16 29 24 51 24h25c35 0 46 -23 24 -51l-123 -155l123 -154
c22 -28 13 -51 -20 -51h-29c-22 0 -37 8 -51 24z" />
    <glyph glyph-name="logicalnot" unicode="&#xac;" horiz-adv-x="611" 
d="M95 339c-27 0 -41 15 -41 42v15c0 27 14 41 41 41h405c28 0 42 -14 42 -41v-211c0 -27 -14 -42 -42 -42h-19c-27 0 -41 15 -41 42v154h-345z" />
    <glyph glyph-name="registered" unicode="&#xae;" horiz-adv-x="808" 
d="M45 355c0 203 160 366 357 366c201 0 361 -163 361 -366s-160 -367 -361 -367c-197 0 -357 164 -357 367zM134 355c0 -160 117 -286 268 -286c154 0 272 126 272 286c0 159 -118 285 -272 285c-151 0 -268 -126 -268 -285zM277 216v282c0 27 14 42 42 42h110
c73 0 120 -46 120 -116c0 -57 -39 -88 -64 -95v-2s4 -4 13 -21l43 -83c15 -29 6 -49 -21 -49h-13c-24 0 -39 10 -48 31l-48 104h-49v-93c0 -28 -12 -42 -39 -42h-7c-27 0 -39 14 -39 42zM362 369h47c34 0 53 21 53 55c0 35 -19 54 -51 54h-49v-109z" />
    <glyph glyph-name="macron" unicode="&#xaf;" horiz-adv-x="493" 
d="M157 783c-27 0 -41 13 -41 40v7c0 28 14 40 41 40h179c27 0 42 -12 42 -40v-7c0 -27 -15 -40 -42 -40h-179z" />
    <glyph glyph-name="degree" unicode="&#xb0;" horiz-adv-x="392" 
d="M196 408c-91 0 -163 69 -163 157c0 86 72 158 163 158c90 0 163 -72 163 -158c0 -88 -73 -157 -163 -157zM196 499c37 0 67 29 67 66c0 36 -30 66 -67 66s-66 -30 -66 -66c0 -37 29 -66 66 -66z" />
    <glyph glyph-name="plusminus" unicode="&#xb1;" horiz-adv-x="619" 
d="M84 236c-28 0 -42 15 -42 42v15c0 27 14 42 42 42h174v195c0 27 15 42 42 42h20c27 0 41 -15 41 -42v-195h175c27 0 41 -15 41 -42v-15c0 -27 -14 -42 -41 -42h-175v-194c0 -28 -14 -42 -41 -42h-20c-27 0 -42 14 -42 42v194h-174zM97 -85h425c27 0 42 -15 42 -42v-15
c0 -27 -15 -41 -42 -41h-425c-27 0 -41 14 -41 41v15c0 27 14 42 41 42z" />
    <glyph glyph-name="twosuperior" unicode="&#xb2;" horiz-adv-x="367" 
d="M68 423c-27 0 -42 14 -42 42c0 171 207 181 207 267c0 31 -27 52 -61 52c-21 0 -39 -10 -51 -19c-22 -15 -38 -19 -57 -2l-5 4c-20 18 -22 39 -2 57c23 21 63 48 121 48c79 0 151 -49 151 -136c0 -143 -190 -157 -198 -230h163c27 0 42 -13 42 -39v-5
c0 -27 -15 -39 -42 -39h-226z" />
    <glyph glyph-name="threesuperior" unicode="&#xb3;" horiz-adv-x="362" 
d="M166 413c-60 0 -101 23 -124 41c-21 14 -22 33 -8 54l5 6c15 22 31 21 54 9c15 -11 36 -23 68 -23c39 0 71 27 71 63s-37 57 -73 57h-11c-20 0 -32 7 -39 23c-6 15 -3 31 13 48l56 64c8 10 24 24 24 24v2s-20 -3 -35 -3h-88c-27 0 -41 13 -41 40v5c0 26 14 39 41 39h197
c27 0 42 -11 42 -30v-6c0 -20 -6 -31 -20 -47l-79 -90c63 -12 109 -55 109 -127c0 -77 -61 -149 -162 -149z" />
    <glyph glyph-name="acute" unicode="&#xb4;" horiz-adv-x="493" 
d="M193 757c-29 0 -40 21 -25 47l35 60c12 21 27 29 49 29h36c36 0 44 -23 22 -50l-45 -61c-14 -17 -29 -25 -51 -25h-21z" />
    <glyph glyph-name="mu" unicode="&#xb5;" horiz-adv-x="637" 
d="M77 -158v626c0 27 15 42 42 42h43c28 0 42 -15 42 -42v-260c0 -62 16 -104 79 -104c92 0 143 81 143 172v192c0 27 14 42 42 42h43c27 0 42 -15 42 -42v-426c0 -28 -15 -42 -42 -42h-39c-27 0 -41 14 -41 42v29c0 11 1 23 1 23h-2c-18 -36 -77 -106 -177 -106
c-49 0 -71 21 -71 21h-2s7 -49 7 -83v-84c0 -28 -14 -42 -41 -42h-27c-27 0 -42 14 -42 42z" />
    <glyph glyph-name="paragraph" unicode="&#xb6;" horiz-adv-x="620" 
d="M270 -8v249c-129 0 -236 103 -236 235s106 234 235 234h264c27 0 41 -15 41 -42v-28c0 -27 -14 -41 -41 -41h-171v-607c0 -28 -14 -42 -41 -42h-10c-27 0 -41 14 -41 42zM424 -8v510c0 28 15 42 42 42h9c27 0 42 -14 42 -42v-510c0 -28 -15 -42 -42 -42h-9
c-27 0 -42 14 -42 42z" />
    <glyph glyph-name="periodcentered" unicode="&#xb7;" horiz-adv-x="241" 
d="M100 228c-27 0 -41 14 -41 41v46c0 27 14 41 41 41h41c27 0 42 -14 42 -41v-46c0 -27 -15 -41 -42 -41h-41z" />
    <glyph glyph-name="cedilla" unicode="&#xb8;" horiz-adv-x="493" 
d="M189 -53l20 73h63l-14 -64c41 -5 73 -29 73 -76c0 -66 -54 -88 -108 -88c-22 0 -57 3 -57 34c0 22 10 35 21 35c9 0 16 -3 25 -3c21 0 37 9 37 29c0 19 -19 26 -45 29c-14 1 -20 12 -15 31z" />
    <glyph glyph-name="onesuperior" unicode="&#xb9;" horiz-adv-x="317" 
d="M70 423c-27 0 -41 12 -41 39v5c0 26 12 39 35 39h56v207c0 16 3 28 3 28h-2s-3 -6 -14 -16l-16 -15c-10 -9 -24 -8 -36 3l-11 11c-18 19 -15 39 5 57l61 60c16 14 30 21 51 21h13c27 0 41 -15 41 -42v-314h50c27 0 41 -13 41 -39v-5c0 -27 -14 -39 -41 -39h-195z" />
    <glyph glyph-name="ordmasculine" unicode="&#xba;" horiz-adv-x="447" 
d="M223 384c-96 0 -175 70 -175 169c0 98 79 167 175 167c97 0 176 -69 176 -167c0 -99 -79 -169 -176 -169zM223 464c47 0 85 36 85 89c0 52 -38 88 -85 88c-46 0 -84 -36 -84 -88c0 -53 38 -89 84 -89zM104 266c-27 0 -41 10 -41 32v5c0 21 14 31 41 31h240
c27 0 41 -10 41 -31v-5c0 -22 -14 -32 -41 -32h-240z" />
    <glyph glyph-name="guillemotright" unicode="&#xbb;" horiz-adv-x="554" 
d="M284 128l123 154l-123 155c-23 28 -13 51 20 51h29c22 0 37 -8 51 -24l120 -153c16 -19 16 -39 0 -58l-120 -152c-14 -16 -29 -24 -51 -24h-25c-36 0 -46 23 -24 51zM83 77c-35 0 -46 23 -24 51l123 154l-123 155c-22 28 -13 51 20 51h29c22 0 37 -8 51 -24l121 -153
c16 -19 16 -39 0 -58l-121 -152c-14 -16 -29 -24 -51 -24h-25z" />
    <glyph glyph-name="onequarter" unicode="&#xbc;" horiz-adv-x="965" 
d="M819 0c-27 0 -42 14 -42 42v57h-162c-27 0 -41 11 -41 32v11c0 20 4 27 15 44l156 226c13 18 28 27 50 27h34c27 0 42 -15 42 -42v-216h26c25 0 35 -14 35 -38v-5c0 -25 -10 -39 -35 -39h-26v-57c0 -28 -15 -42 -42 -42h-10zM670 181h107v110c0 26 4 55 4 55h-2
s-12 -27 -26 -47l-83 -116v-2zM363 31c-10 -21 -25 -31 -48 -31h-14c-27 0 -36 20 -22 49l299 630c10 21 25 31 48 31h14c27 0 35 -20 22 -49zM87 272c-27 0 -41 12 -41 39v5c0 26 12 39 35 39h56v207c0 16 3 28 3 28h-2s-3 -6 -14 -16l-16 -15c-10 -9 -24 -8 -36 3l-11 11
c-18 19 -15 39 5 57l61 60c16 14 30 21 51 21h13c27 0 41 -15 41 -42v-314h50c27 0 41 -13 41 -39v-5c0 -27 -14 -39 -41 -39h-195z" />
    <glyph glyph-name="onehalf" unicode="&#xbd;" horiz-adv-x="949" 
d="M642 0c-27 0 -42 14 -42 42c0 171 207 181 207 267c0 31 -27 52 -61 52c-21 0 -39 -10 -51 -19c-22 -15 -38 -19 -57 -2l-5 4c-20 18 -22 39 -2 57c23 21 63 48 121 48c79 0 151 -49 151 -136c0 -143 -190 -157 -198 -230h163c27 0 42 -13 42 -39v-5
c0 -27 -15 -39 -42 -39h-226zM362 31c-10 -21 -25 -31 -48 -31h-14c-27 0 -36 20 -22 49l299 630c10 21 25 31 48 31h14c27 0 35 -20 22 -49zM83 272c-27 0 -41 12 -41 39v5c0 26 12 39 35 39h56v207c0 16 3 28 3 28h-2s-3 -6 -14 -16l-16 -15c-10 -9 -24 -8 -36 3l-11 11
c-18 19 -15 39 5 57l61 60c16 14 30 21 51 21h13c27 0 41 -15 41 -42v-314h50c27 0 41 -13 41 -39v-5c0 -27 -14 -39 -41 -39h-195z" />
    <glyph glyph-name="threequarters" unicode="&#xbe;" horiz-adv-x="977" 
d="M830 0c-27 0 -42 14 -42 42v57h-162c-27 0 -41 11 -41 32v11c0 20 4 27 15 44l156 226c13 18 28 27 50 27h34c27 0 42 -15 42 -42v-216h26c25 0 35 -14 35 -38v-5c0 -25 -10 -39 -35 -39h-26v-57c0 -28 -15 -42 -42 -42h-10zM681 181h107v110c0 26 4 55 4 55h-2
s-12 -27 -26 -47l-83 -116v-2zM182 262c-60 0 -101 23 -124 41c-21 14 -22 33 -8 54l5 6c15 22 31 21 54 9c15 -11 36 -23 68 -23c39 0 71 27 71 63s-37 57 -73 57h-11c-20 0 -32 7 -39 23c-6 15 -3 31 13 48l56 64c8 10 24 24 24 24v2s-20 -3 -35 -3h-88
c-27 0 -41 13 -41 40v5c0 26 14 39 41 39h197c27 0 42 -11 42 -30v-6c0 -20 -6 -31 -20 -47l-79 -90c63 -12 109 -55 109 -127c0 -77 -61 -149 -162 -149zM374 31c-10 -21 -25 -31 -48 -31h-14c-27 0 -36 20 -22 49l299 630c10 21 25 31 48 31h14c27 0 35 -20 22 -49z" />
    <glyph glyph-name="questiondown" unicode="&#xbf;" horiz-adv-x="467" 
d="M302 304c27 0 42 -14 42 -41v-16c0 -127 -165 -160 -165 -262c0 -47 42 -83 97 -83c30 0 56 11 74 20c23 12 46 12 60 -10l17 -25c16 -22 16 -41 -7 -56c-30 -20 -84 -46 -155 -46c-113 0 -219 70 -219 188c0 157 162 184 174 285l2 17c5 21 16 29 40 29h40zM344 467v-35
c0 -27 -15 -42 -42 -42h-40c-27 0 -41 15 -41 42v35c0 28 14 42 41 42h40c27 0 42 -14 42 -42z" />
    <glyph glyph-name="Agrave" unicode="&#xc0;" horiz-adv-x="634" 
d="M16 48l222 628c8 23 23 34 47 34h64c24 0 40 -11 47 -34l222 -628c10 -29 -3 -48 -34 -48h-46c-24 0 -40 11 -47 34l-50 148h-249l-49 -147c-7 -24 -23 -35 -47 -35h-46c-31 0 -44 19 -34 48zM224 287h185l-63 190c-12 40 -28 110 -28 110h-2s-16 -70 -28 -110zM300 757
c-22 0 -37 8 -51 25l-45 61c-22 27 -14 50 21 50h37c22 0 37 -8 49 -29l35 -61c13 -23 9 -46 -20 -46h-26z" />
    <glyph glyph-name="Aacute" unicode="&#xc1;" horiz-adv-x="634" 
d="M16 48l222 628c8 23 23 34 47 34h64c24 0 40 -11 47 -34l222 -628c10 -29 -3 -48 -34 -48h-46c-24 0 -40 11 -47 34l-50 148h-249l-49 -147c-7 -24 -23 -35 -47 -35h-46c-31 0 -44 19 -34 48zM224 287h185l-63 190c-12 40 -28 110 -28 110h-2s-16 -70 -28 -110zM312 757
c-29 0 -40 21 -25 47l35 60c12 21 27 29 49 29h36c36 0 44 -23 22 -50l-45 -61c-14 -17 -29 -25 -51 -25h-21z" />
    <glyph glyph-name="Acircumflex" unicode="&#xc2;" horiz-adv-x="634" 
d="M16 48l222 628c8 23 23 34 47 34h64c24 0 40 -11 47 -34l222 -628c10 -29 -3 -48 -34 -48h-46c-24 0 -40 11 -47 34l-50 148h-249l-49 -147c-7 -24 -23 -35 -47 -35h-46c-31 0 -44 19 -34 48zM224 287h185l-63 190c-12 40 -28 110 -28 110h-2s-16 -70 -28 -110zM213 757
c-29 0 -37 22 -18 51l40 58c13 19 28 27 51 27h62c23 0 38 -8 51 -27l40 -58c19 -29 11 -51 -18 -51h-26c-24 0 -32 9 -44 29l-33 52h-2l-34 -52c-11 -20 -20 -29 -43 -29h-26z" />
    <glyph glyph-name="Atilde" unicode="&#xc3;" horiz-adv-x="634" 
d="M16 48l222 628c8 23 23 34 47 34h64c24 0 40 -11 47 -34l222 -628c10 -29 -3 -48 -34 -48h-46c-24 0 -40 11 -47 34l-50 148h-249l-49 -147c-7 -24 -23 -35 -47 -35h-46c-31 0 -44 19 -34 48zM224 287h185l-63 190c-12 40 -28 110 -28 110h-2s-16 -70 -28 -110zM175 758
c-23 0 -36 13 -36 38c0 54 41 99 101 99c75 0 95 -65 137 -65c22 0 33 16 35 39c1 14 15 23 36 23h10c25 0 37 -10 37 -34c0 -61 -41 -103 -101 -103c-76 0 -95 65 -137 65c-23 0 -36 -18 -38 -40c-2 -14 -14 -22 -34 -22h-10z" />
    <glyph glyph-name="Adieresis" unicode="&#xc4;" horiz-adv-x="634" 
d="M16 48l222 628c8 23 23 34 47 34h64c24 0 40 -11 47 -34l222 -628c10 -29 -3 -48 -34 -48h-46c-24 0 -40 11 -47 34l-50 148h-249l-49 -147c-7 -24 -23 -35 -47 -35h-46c-31 0 -44 19 -34 48zM224 287h185l-63 190c-12 40 -28 110 -28 110h-2s-16 -70 -28 -110zM401 777
c-27 0 -41 14 -41 42v33c0 27 14 41 41 41h15c27 0 41 -14 41 -41v-33c0 -28 -14 -42 -41 -42h-15zM218 777c-28 0 -42 14 -42 42v33c0 27 14 41 42 41h14c27 0 42 -14 42 -41v-33c0 -28 -15 -42 -42 -42h-14z" />
    <glyph glyph-name="Aring" unicode="&#xc5;" horiz-adv-x="634" 
d="M16 48l222 628c8 23 23 34 47 34h64c24 0 40 -11 47 -34l222 -628c10 -29 -3 -48 -34 -48h-46c-24 0 -40 11 -47 34l-50 148h-249l-49 -147c-7 -24 -23 -35 -47 -35h-46c-31 0 -44 19 -34 48zM224 287h185l-63 190c-12 40 -28 110 -28 110h-2s-16 -70 -28 -110zM317 745
c-48 0 -95 27 -95 78c0 52 47 79 95 79c47 0 94 -27 94 -79c0 -51 -47 -78 -94 -78zM317 789c20 0 34 14 34 34c0 21 -14 35 -34 35s-34 -14 -34 -35c0 -20 13 -34 34 -34z" />
    <glyph glyph-name="AE" unicode="&#xc6;" horiz-adv-x="887" 
d="M10 48l261 630c8 22 24 32 48 32h477c27 0 41 -15 41 -42v-28c0 -27 -14 -41 -41 -41h-255v-186h198c27 0 41 -14 41 -41v-28c0 -28 -14 -42 -41 -42h-198v-191h270c27 0 41 -14 41 -41v-28c0 -28 -14 -42 -41 -42h-357c-27 0 -42 14 -42 42v262h-169l-107 -272
c-9 -22 -24 -32 -47 -32h-48c-30 0 -44 20 -31 48zM284 409h128v190h-52z" />
    <glyph glyph-name="Ccedilla" unicode="&#xc7;" horiz-adv-x="706" 
d="M350 -53l12 43c-197 20 -321 173 -321 368c0 206 151 364 366 364c116 0 194 -44 232 -71c21 -16 22 -36 8 -58l-18 -29c-14 -23 -33 -25 -57 -10c-31 20 -87 50 -160 50c-155 0 -238 -113 -238 -244c0 -133 86 -254 239 -254c80 0 141 38 174 62c22 16 42 16 58 -7
l20 -27c15 -20 14 -41 -6 -58c-38 -31 -117 -82 -233 -87l-7 -33c41 -5 73 -29 73 -76c0 -66 -54 -88 -108 -88c-22 0 -57 3 -57 34c0 22 10 35 21 35c9 0 16 -3 25 -3c21 0 37 9 37 29c0 19 -19 26 -45 29c-14 1 -20 12 -15 31z" />
    <glyph glyph-name="Egrave" unicode="&#xc8;" horiz-adv-x="557" 
d="M82 42v626c0 27 14 42 41 42h342c27 0 42 -15 42 -42v-28c0 -27 -15 -41 -42 -41h-255v-186h198c27 0 42 -14 42 -41v-28c0 -28 -15 -42 -42 -42h-198v-191h271c27 0 42 -14 42 -41v-28c0 -28 -15 -42 -42 -42h-358c-27 0 -41 14 -41 42zM287 757c-22 0 -37 8 -51 25
l-45 61c-22 27 -14 50 21 50h37c22 0 37 -8 49 -29l35 -61c13 -23 9 -46 -20 -46h-26z" />
    <glyph glyph-name="Eacute" unicode="&#xc9;" horiz-adv-x="557" 
d="M298 757c-29 0 -40 21 -25 47l35 60c12 21 27 29 49 29h36c36 0 44 -23 22 -50l-45 -61c-14 -17 -29 -25 -51 -25h-21zM82 42v626c0 27 14 42 41 42h342c27 0 42 -15 42 -42v-28c0 -27 -15 -41 -42 -41h-255v-186h198c27 0 42 -14 42 -41v-28c0 -28 -15 -42 -42 -42h-198
v-191h271c27 0 42 -14 42 -41v-28c0 -28 -15 -42 -42 -42h-358c-27 0 -41 14 -41 42z" />
    <glyph glyph-name="Ecircumflex" unicode="&#xca;" horiz-adv-x="557" 
d="M199 757c-29 0 -37 22 -18 51l40 58c13 19 28 27 51 27h62c23 0 38 -8 51 -27l40 -58c19 -29 11 -51 -18 -51h-26c-24 0 -32 9 -44 29l-33 52h-2l-34 -52c-11 -20 -20 -29 -43 -29h-26zM82 42v626c0 27 14 42 41 42h342c27 0 42 -15 42 -42v-28c0 -27 -15 -41 -42 -41
h-255v-186h198c27 0 42 -14 42 -41v-28c0 -28 -15 -42 -42 -42h-198v-191h271c27 0 42 -14 42 -41v-28c0 -28 -15 -42 -42 -42h-358c-27 0 -41 14 -41 42z" />
    <glyph glyph-name="Edieresis" unicode="&#xcb;" horiz-adv-x="557" 
d="M388 777c-27 0 -41 14 -41 42v33c0 27 14 41 41 41h15c27 0 41 -14 41 -41v-33c0 -28 -14 -42 -41 -42h-15zM205 777c-28 0 -42 14 -42 42v33c0 27 14 41 42 41h14c27 0 42 -14 42 -41v-33c0 -28 -15 -42 -42 -42h-14zM82 42v626c0 27 14 42 41 42h342
c27 0 42 -15 42 -42v-28c0 -27 -15 -41 -42 -41h-255v-186h198c27 0 42 -14 42 -41v-28c0 -28 -15 -42 -42 -42h-198v-191h271c27 0 42 -14 42 -41v-28c0 -28 -15 -42 -42 -42h-358c-27 0 -41 14 -41 42z" />
    <glyph glyph-name="Igrave" unicode="&#xcc;" horiz-adv-x="292" 
d="M82 42v626c0 27 14 42 41 42h46c27 0 41 -15 41 -42v-626c0 -28 -14 -42 -41 -42h-46c-27 0 -41 14 -41 42zM131 757c-22 0 -37 8 -51 25l-45 61c-22 27 -14 50 21 50h37c22 0 37 -8 49 -29l35 -61c13 -23 9 -46 -20 -46h-26z" />
    <glyph glyph-name="Iacute" unicode="&#xcd;" horiz-adv-x="292" 
d="M82 42v626c0 27 14 42 41 42h46c27 0 41 -15 41 -42v-626c0 -28 -14 -42 -41 -42h-46c-27 0 -41 14 -41 42zM142 757c-29 0 -40 21 -25 47l35 60c12 21 27 29 49 29h36c36 0 44 -23 22 -50l-45 -61c-14 -17 -29 -25 -51 -25h-21z" />
    <glyph glyph-name="Icircumflex" unicode="&#xce;" horiz-adv-x="292" 
d="M82 42v626c0 27 14 42 41 42h46c27 0 41 -15 41 -42v-626c0 -28 -14 -42 -41 -42h-46c-27 0 -41 14 -41 42zM43 757c-29 0 -37 22 -18 51l40 58c13 19 28 27 51 27h62c23 0 38 -8 51 -27l40 -58c19 -29 11 -51 -18 -51h-26c-24 0 -32 9 -44 29l-33 52h-2l-34 -52
c-11 -20 -20 -29 -43 -29h-26z" />
    <glyph glyph-name="Idieresis" unicode="&#xcf;" horiz-adv-x="292" 
d="M82 42v626c0 27 14 42 41 42h46c27 0 41 -15 41 -42v-626c0 -28 -14 -42 -41 -42h-46c-27 0 -41 14 -41 42zM232 777c-27 0 -41 14 -41 42v33c0 27 14 41 41 41h15c27 0 41 -14 41 -41v-33c0 -28 -14 -42 -41 -42h-15zM49 777c-28 0 -42 14 -42 42v33c0 27 14 41 42 41
h14c27 0 42 -14 42 -41v-33c0 -28 -15 -42 -42 -42h-14z" />
    <glyph glyph-name="Eth" unicode="&#xd0;" horiz-adv-x="729" 
d="M83 42v259h-16c-28 0 -42 15 -42 42v21c0 28 9 42 25 42h33v262c0 27 14 42 42 42h200c219 0 362 -130 362 -354s-143 -356 -362 -356h-200c-28 0 -42 14 -42 42zM211 111h107c144 0 236 85 236 245c0 158 -94 243 -236 243h-107v-193h91c27 0 41 -14 41 -42v-21
c0 -27 -13 -42 -39 -42h-93v-190z" />
    <glyph glyph-name="Ntilde" unicode="&#xd1;" horiz-adv-x="743" 
d="M82 42v626c0 27 14 42 41 42h54c24 0 39 -8 50 -28l252 -382c27 -42 59 -110 59 -110h2s-7 68 -7 110v368c0 27 15 42 42 42h45c27 0 42 -15 42 -42v-626c0 -28 -15 -42 -42 -42h-54c-22 0 -38 8 -49 28l-253 381c-26 42 -59 110 -59 110h-2s7 -68 7 -110v-367
c0 -28 -14 -42 -41 -42h-46c-27 0 -41 14 -41 42zM230 758c-23 0 -36 13 -36 38c0 54 41 99 101 99c75 0 95 -65 137 -65c22 0 33 16 35 39c1 14 15 23 36 23h10c25 0 37 -10 37 -34c0 -61 -41 -103 -101 -103c-76 0 -95 65 -137 65c-23 0 -36 -18 -38 -40
c-2 -14 -14 -22 -34 -22h-10z" />
    <glyph glyph-name="Ograve" unicode="&#xd2;" horiz-adv-x="814" 
d="M40 360c0 203 152 362 367 362s367 -159 367 -362c0 -209 -152 -372 -367 -372s-367 163 -367 372zM173 360c0 -144 98 -254 234 -254s234 110 234 254c0 138 -98 244 -234 244s-234 -106 -234 -244zM390 757c-22 0 -37 8 -51 25l-45 61c-22 27 -14 50 21 50h37
c22 0 37 -8 49 -29l35 -61c13 -23 9 -46 -20 -46h-26z" />
    <glyph glyph-name="Oacute" unicode="&#xd3;" horiz-adv-x="814" 
d="M402 757c-29 0 -40 21 -25 47l35 60c12 21 27 29 49 29h36c36 0 44 -23 22 -50l-45 -61c-14 -17 -29 -25 -51 -25h-21zM40 360c0 203 152 362 367 362s367 -159 367 -362c0 -209 -152 -372 -367 -372s-367 163 -367 372zM173 360c0 -144 98 -254 234 -254
s234 110 234 254c0 138 -98 244 -234 244s-234 -106 -234 -244z" />
    <glyph glyph-name="Ocircumflex" unicode="&#xd4;" horiz-adv-x="814" 
d="M303 757c-29 0 -37 22 -18 51l40 58c13 19 28 27 51 27h62c23 0 38 -8 51 -27l40 -58c19 -29 11 -51 -18 -51h-26c-24 0 -32 9 -44 29l-33 52h-2l-34 -52c-11 -20 -20 -29 -43 -29h-26zM40 360c0 203 152 362 367 362s367 -159 367 -362c0 -209 -152 -372 -367 -372
s-367 163 -367 372zM173 360c0 -144 98 -254 234 -254s234 110 234 254c0 138 -98 244 -234 244s-234 -106 -234 -244z" />
    <glyph glyph-name="Otilde" unicode="&#xd5;" horiz-adv-x="814" 
d="M40 360c0 203 152 362 367 362s367 -159 367 -362c0 -209 -152 -372 -367 -372s-367 163 -367 372zM173 360c0 -144 98 -254 234 -254s234 110 234 254c0 138 -98 244 -234 244s-234 -106 -234 -244zM265 758c-23 0 -36 13 -36 38c0 54 41 99 101 99c75 0 95 -65 137 -65
c22 0 33 16 35 39c1 14 15 23 36 23h10c25 0 37 -10 37 -34c0 -61 -41 -103 -101 -103c-76 0 -95 65 -137 65c-23 0 -36 -18 -38 -40c-2 -14 -14 -22 -34 -22h-10z" />
    <glyph glyph-name="Odieresis" unicode="&#xd6;" horiz-adv-x="814" 
d="M491 777c-27 0 -41 14 -41 42v33c0 27 14 41 41 41h15c27 0 41 -14 41 -41v-33c0 -28 -14 -42 -41 -42h-15zM308 777c-28 0 -42 14 -42 42v33c0 27 14 41 42 41h14c27 0 42 -14 42 -41v-33c0 -28 -15 -42 -42 -42h-14zM40 360c0 203 152 362 367 362s367 -159 367 -362
c0 -209 -152 -372 -367 -372s-367 163 -367 372zM173 360c0 -144 98 -254 234 -254s234 110 234 254c0 138 -98 244 -234 244s-234 -106 -234 -244z" />
    <glyph glyph-name="multiply" unicode="&#xd7;" horiz-adv-x="619" 
d="M74 41c-19 19 -19 39 -1 59l169 186l-169 186c-18 20 -18 40 1 59l10 11c20 19 41 19 59 -1l166 -183l166 183c18 20 39 20 59 1l11 -11c19 -19 19 -39 1 -59l-170 -186l170 -186c18 -20 18 -40 -1 -59l-11 -11c-20 -20 -41 -19 -59 1l-166 182l-166 -182
c-18 -20 -39 -21 -59 -1z" />
    <glyph glyph-name="Oslash" unicode="&#xd8;" horiz-adv-x="813" 
d="M131 40l29 41c-74 67 -120 166 -120 278c0 204 158 363 367 363c67 0 129 -17 182 -46l19 28c16 21 34 26 54 13c18 -14 22 -28 11 -42l-26 -38c78 -66 127 -164 127 -278c0 -208 -158 -371 -367 -371c-71 0 -135 18 -191 52l-22 -33c-17 -22 -34 -27 -54 -13
c-19 13 -22 29 -9 46zM236 186l280 389c-32 18 -69 29 -109 29c-130 0 -234 -104 -234 -245c0 -69 25 -130 63 -173zM288 140c35 -22 76 -34 119 -34c130 0 234 108 234 253c0 70 -26 131 -69 174z" />
    <glyph glyph-name="Ugrave" unicode="&#xd9;" horiz-adv-x="719" 
d="M74 255v413c0 27 14 42 41 42h45c28 0 42 -15 42 -42v-412c0 -96 62 -150 157 -150s158 54 158 150v412c0 27 14 42 41 42h46c27 0 41 -15 41 -42v-413c0 -159 -114 -267 -285 -267c-172 0 -286 108 -286 267zM342 757c-22 0 -37 8 -51 25l-45 61c-22 27 -14 50 21 50h37
c22 0 37 -8 49 -29l35 -61c13 -23 9 -46 -20 -46h-26z" />
    <glyph glyph-name="Uacute" unicode="&#xda;" horiz-adv-x="719" 
d="M354 757c-29 0 -40 21 -25 47l35 60c12 21 27 29 49 29h36c36 0 44 -23 22 -50l-45 -61c-14 -17 -29 -25 -51 -25h-21zM74 255v413c0 27 14 42 41 42h45c28 0 42 -15 42 -42v-412c0 -96 62 -150 157 -150s158 54 158 150v412c0 27 14 42 41 42h46c27 0 41 -15 41 -42
v-413c0 -159 -114 -267 -285 -267c-172 0 -286 108 -286 267z" />
    <glyph glyph-name="Ucircumflex" unicode="&#xdb;" horiz-adv-x="719" 
d="M255 757c-29 0 -37 22 -18 51l40 58c13 19 28 27 51 27h62c23 0 38 -8 51 -27l40 -58c19 -29 11 -51 -18 -51h-26c-24 0 -32 9 -44 29l-33 52h-2l-34 -52c-11 -20 -20 -29 -43 -29h-26zM74 255v413c0 27 14 42 41 42h45c28 0 42 -15 42 -42v-412c0 -96 62 -150 157 -150
s158 54 158 150v412c0 27 14 42 41 42h46c27 0 41 -15 41 -42v-413c0 -159 -114 -267 -285 -267c-172 0 -286 108 -286 267z" />
    <glyph glyph-name="Udieresis" unicode="&#xdc;" horiz-adv-x="719" 
d="M444 777c-27 0 -41 14 -41 42v33c0 27 14 41 41 41h15c27 0 41 -14 41 -41v-33c0 -28 -14 -42 -41 -42h-15zM261 777c-28 0 -42 14 -42 42v33c0 27 14 41 42 41h14c27 0 42 -14 42 -41v-33c0 -28 -15 -42 -42 -42h-14zM74 255v413c0 27 14 42 41 42h45
c28 0 42 -15 42 -42v-412c0 -96 62 -150 157 -150s158 54 158 150v412c0 27 14 42 41 42h46c27 0 41 -15 41 -42v-413c0 -159 -114 -267 -285 -267c-172 0 -286 108 -286 267z" />
    <glyph glyph-name="Yacute" unicode="&#xdd;" horiz-adv-x="580" 
d="M226 42v255l-208 363c-17 28 -4 50 28 50h56c23 0 38 -10 48 -31l96 -178c22 -44 43 -95 43 -95h2s21 51 43 95l96 178c10 21 25 31 48 31h56c33 0 45 -22 29 -50l-209 -363v-255c0 -28 -14 -42 -41 -42h-45c-28 0 -42 14 -42 42zM285 757c-29 0 -40 21 -25 47l35 60
c12 21 27 29 49 29h36c36 0 44 -23 22 -50l-45 -61c-14 -17 -29 -25 -51 -25h-21z" />
    <glyph glyph-name="Thorn" unicode="&#xde;" horiz-adv-x="606" 
d="M82 42v626c0 27 14 42 41 42h46c27 0 41 -15 41 -41v-74h145c133 0 226 -93 226 -231s-93 -233 -227 -233h-144v-89c0 -28 -14 -42 -41 -42h-46c-27 0 -41 14 -41 42zM210 242h121c76 0 119 48 119 122s-43 120 -117 120h-123v-242z" />
    <glyph glyph-name="germandbls" unicode="&#xdf;" horiz-adv-x="597" 
d="M63 42v487c0 126 115 193 232 193c115 0 206 -74 206 -174c0 -91 -89 -118 -89 -176s161 -91 161 -218c0 -108 -86 -161 -180 -161c-47 0 -81 9 -101 15c-24 5 -34 22 -34 46v25c0 30 14 41 38 35c18 -6 46 -13 79 -13c36 0 70 16 70 60c0 67 -161 99 -161 208
c0 79 89 112 89 177c0 35 -29 68 -82 68c-52 0 -101 -28 -101 -94v-478c0 -28 -14 -42 -42 -42h-43c-27 0 -42 14 -42 42z" />
    <glyph glyph-name="agrave" unicode="&#xe0;" horiz-adv-x="525" 
d="M24 141c0 149 184 174 298 174h21v12c0 67 -43 90 -95 90c-43 0 -82 -16 -106 -29c-25 -11 -44 -7 -56 17l-10 19c-12 23 -8 43 16 56c33 17 91 42 167 42c132 0 211 -74 211 -203v-277c0 -28 -14 -42 -42 -42h-34c-27 0 -41 14 -41 42v20c0 14 2 22 2 22h-2
s-48 -96 -160 -96c-93 0 -169 60 -169 153zM150 152c0 -34 26 -67 77 -67c71 0 117 72 117 134v19h-21c-64 0 -173 -10 -173 -86zM247 574c-22 0 -37 8 -51 25l-45 61c-22 27 -14 50 21 50h37c22 0 37 -8 49 -29l35 -61c13 -23 9 -46 -20 -46h-26z" />
    <glyph glyph-name="aacute" unicode="&#xe1;" horiz-adv-x="525" 
d="M24 141c0 149 184 174 298 174h21v12c0 67 -43 90 -95 90c-43 0 -82 -16 -106 -29c-25 -11 -44 -7 -56 17l-10 19c-12 23 -8 43 16 56c33 17 91 42 167 42c132 0 211 -74 211 -203v-277c0 -28 -14 -42 -42 -42h-34c-27 0 -41 14 -41 42v20c0 14 2 22 2 22h-2
s-48 -96 -160 -96c-93 0 -169 60 -169 153zM150 152c0 -34 26 -67 77 -67c71 0 117 72 117 134v19h-21c-64 0 -173 -10 -173 -86zM256 574c-29 0 -40 21 -25 47l35 60c12 21 27 29 49 29h36c36 0 44 -23 22 -50l-45 -61c-14 -17 -29 -25 -51 -25h-21z" />
    <glyph glyph-name="acircumflex" unicode="&#xe2;" horiz-adv-x="525" 
d="M24 141c0 149 184 174 298 174h21v12c0 67 -43 90 -95 90c-43 0 -82 -16 -106 -29c-25 -11 -44 -7 -56 17l-10 19c-12 23 -8 43 16 56c33 17 91 42 167 42c132 0 211 -74 211 -203v-277c0 -28 -14 -42 -42 -42h-34c-27 0 -41 14 -41 42v20c0 14 2 22 2 22h-2
s-48 -96 -160 -96c-93 0 -169 60 -169 153zM150 152c0 -34 26 -67 77 -67c71 0 117 72 117 134v19h-21c-64 0 -173 -10 -173 -86zM158 574c-29 0 -37 22 -18 51l40 58c13 19 28 27 51 27h62c23 0 38 -8 51 -27l40 -58c19 -29 11 -51 -18 -51h-26c-24 0 -32 9 -44 29l-33 52
h-2l-34 -52c-11 -20 -20 -29 -43 -29h-26z" />
    <glyph glyph-name="atilde" unicode="&#xe3;" horiz-adv-x="525" 
d="M24 141c0 149 184 174 298 174h21v12c0 67 -43 90 -95 90c-43 0 -82 -16 -106 -29c-25 -11 -44 -7 -56 17l-10 19c-12 23 -8 43 16 56c33 17 91 42 167 42c132 0 211 -74 211 -203v-277c0 -28 -14 -42 -42 -42h-34c-27 0 -41 14 -41 42v20c0 14 2 22 2 22h-2
s-48 -96 -160 -96c-93 0 -169 60 -169 153zM150 152c0 -34 26 -67 77 -67c71 0 117 72 117 134v19h-21c-64 0 -173 -10 -173 -86zM120 575c-23 0 -36 13 -36 38c0 54 41 99 101 99c75 0 95 -65 137 -65c22 0 33 16 35 39c1 14 15 23 36 23h10c25 0 37 -10 37 -34
c0 -61 -41 -103 -101 -103c-76 0 -95 65 -137 65c-23 0 -36 -18 -38 -40c-2 -14 -14 -22 -34 -22h-10z" />
    <glyph glyph-name="adieresis" unicode="&#xe4;" horiz-adv-x="525" 
d="M24 141c0 149 184 174 298 174h21v12c0 67 -43 90 -95 90c-43 0 -82 -16 -106 -29c-25 -11 -44 -7 -56 17l-10 19c-12 23 -8 43 16 56c33 17 91 42 167 42c132 0 211 -74 211 -203v-277c0 -28 -14 -42 -42 -42h-34c-27 0 -41 14 -41 42v20c0 14 2 22 2 22h-2
s-48 -96 -160 -96c-93 0 -169 60 -169 153zM150 152c0 -34 26 -67 77 -67c71 0 117 72 117 134v19h-21c-64 0 -173 -10 -173 -86zM346 594c-27 0 -41 14 -41 42v33c0 27 14 41 41 41h15c27 0 41 -14 41 -41v-33c0 -28 -14 -42 -41 -42h-15zM163 594c-28 0 -42 14 -42 42v33
c0 27 14 41 42 41h14c27 0 42 -14 42 -41v-33c0 -28 -15 -42 -42 -42h-14z" />
    <glyph glyph-name="aring" unicode="&#xe5;" horiz-adv-x="525" 
d="M24 141c0 149 184 174 298 174h21v12c0 67 -43 90 -95 90c-43 0 -82 -16 -106 -29c-25 -11 -44 -7 -56 17l-10 19c-12 23 -8 43 16 56c33 17 91 42 167 42c132 0 211 -74 211 -203v-277c0 -28 -14 -42 -42 -42h-34c-27 0 -41 14 -41 42v20c0 14 2 22 2 22h-2
s-48 -96 -160 -96c-93 0 -169 60 -169 153zM150 152c0 -34 26 -67 77 -67c71 0 117 72 117 134v19h-21c-64 0 -173 -10 -173 -86zM262 562c-48 0 -95 27 -95 78c0 52 47 79 95 79c47 0 94 -27 94 -79c0 -51 -47 -78 -94 -78zM262 606c20 0 34 14 34 34c0 21 -14 35 -34 35
s-34 -14 -34 -35c0 -20 13 -34 34 -34z" />
    <glyph glyph-name="ae" unicode="&#xe6;" horiz-adv-x="847" 
d="M26 147c0 157 206 168 302 168h16v12c0 67 -41 90 -98 90c-41 0 -79 -16 -103 -29c-25 -11 -44 -7 -57 17l-9 18c-12 23 -8 44 15 56c32 18 89 43 163 43c88 0 137 -29 166 -75h2c40 49 97 75 169 75c145 0 226 -103 226 -242c0 -21 -19 -43 -44 -43h-308
c8 -95 73 -141 150 -141c47 0 86 18 110 33c25 12 44 9 57 -15l10 -19c13 -23 9 -43 -13 -56c-33 -21 -93 -51 -173 -51c-101 0 -172 43 -214 112h-2c-10 -24 -64 -111 -191 -111c-95 0 -174 58 -174 158zM470 315h220c-2 67 -46 108 -99 108c-65 0 -108 -40 -121 -108z
M154 153c0 -35 25 -66 78 -66c69 0 114 72 114 135v15h-35c-68 0 -157 -15 -157 -84z" />
    <glyph glyph-name="ccedilla" unicode="&#xe7;" horiz-adv-x="533" 
d="M248 -53l12 45c-141 20 -228 130 -228 263c0 145 108 267 277 267c82 0 137 -30 167 -51c21 -14 22 -35 8 -57l-13 -20c-15 -23 -32 -23 -56 -11c-21 14 -55 31 -99 31c-94 0 -155 -71 -155 -158c0 -86 61 -160 159 -160c50 0 90 22 114 39c25 14 44 11 57 -13l10 -19
c12 -22 9 -42 -11 -56c-29 -22 -86 -54 -166 -58l-7 -33c41 -5 73 -29 73 -76c0 -66 -54 -88 -108 -88c-22 0 -57 3 -57 34c0 22 10 35 21 35c9 0 16 -3 25 -3c21 0 37 9 37 29c0 19 -19 26 -45 29c-14 1 -20 12 -15 31z" />
    <glyph glyph-name="egrave" unicode="&#xe8;" horiz-adv-x="546" 
d="M32 255c0 157 106 267 259 267c145 0 226 -103 226 -243c0 -22 -19 -43 -44 -43h-311c8 -92 76 -140 153 -140c47 0 86 18 110 33c25 12 43 9 56 -14l12 -20c12 -23 8 -43 -14 -56c-33 -21 -93 -51 -173 -51c-169 0 -274 122 -274 267zM165 313h226
c-2 71 -45 113 -103 113c-65 0 -111 -45 -123 -113zM274 574c-22 0 -37 8 -51 25l-45 61c-22 27 -14 50 21 50h37c22 0 37 -8 49 -29l35 -61c13 -23 9 -46 -20 -46h-26z" />
    <glyph glyph-name="eacute" unicode="&#xe9;" horiz-adv-x="546" 
d="M283 574c-29 0 -40 21 -25 47l35 60c12 21 27 29 49 29h36c36 0 44 -23 22 -50l-45 -61c-14 -17 -29 -25 -51 -25h-21zM32 255c0 157 106 267 259 267c145 0 226 -103 226 -243c0 -22 -19 -43 -44 -43h-311c8 -92 76 -140 153 -140c47 0 86 18 110 33c25 12 43 9 56 -14
l12 -20c12 -23 8 -43 -14 -56c-33 -21 -93 -51 -173 -51c-169 0 -274 122 -274 267zM165 313h226c-2 71 -45 113 -103 113c-65 0 -111 -45 -123 -113z" />
    <glyph glyph-name="ecircumflex" unicode="&#xea;" horiz-adv-x="546" 
d="M184 574c-29 0 -37 22 -18 51l40 58c13 19 28 27 51 27h62c23 0 38 -8 51 -27l40 -58c19 -29 11 -51 -18 -51h-26c-24 0 -32 9 -44 29l-33 52h-2l-34 -52c-11 -20 -20 -29 -43 -29h-26zM32 255c0 157 106 267 259 267c145 0 226 -103 226 -243c0 -22 -19 -43 -44 -43
h-311c8 -92 76 -140 153 -140c47 0 86 18 110 33c25 12 43 9 56 -14l12 -20c12 -23 8 -43 -14 -56c-33 -21 -93 -51 -173 -51c-169 0 -274 122 -274 267zM165 313h226c-2 71 -45 113 -103 113c-65 0 -111 -45 -123 -113z" />
    <glyph glyph-name="edieresis" unicode="&#xeb;" horiz-adv-x="546" 
d="M373 594c-27 0 -41 14 -41 42v33c0 27 14 41 41 41h15c27 0 41 -14 41 -41v-33c0 -28 -14 -42 -41 -42h-15zM190 594c-28 0 -42 14 -42 42v33c0 27 14 41 42 41h14c27 0 42 -14 42 -41v-33c0 -28 -15 -42 -42 -42h-14zM32 255c0 157 106 267 259 267
c145 0 226 -103 226 -243c0 -22 -19 -43 -44 -43h-311c8 -92 76 -140 153 -140c47 0 86 18 110 33c25 12 43 9 56 -14l12 -20c12 -23 8 -43 -14 -56c-33 -21 -93 -51 -173 -51c-169 0 -274 122 -274 267zM165 313h226c-2 71 -45 113 -103 113c-65 0 -111 -45 -123 -113z" />
    <glyph glyph-name="igrave" unicode="&#xec;" horiz-adv-x="252" 
d="M63 42v426c0 27 14 42 41 42h44c27 0 41 -15 41 -42v-426c0 -28 -14 -42 -41 -42h-44c-27 0 -41 14 -41 42zM110 574c-22 0 -37 8 -51 25l-45 61c-22 27 -14 50 21 50h37c22 0 37 -8 49 -29l35 -61c13 -23 9 -46 -20 -46h-26z" />
    <glyph glyph-name="iacute" unicode="&#xed;" horiz-adv-x="252" 
d="M122 574c-29 0 -40 21 -25 47l35 60c12 21 27 29 49 29h36c36 0 44 -23 22 -50l-45 -61c-14 -17 -29 -25 -51 -25h-21zM63 42v426c0 27 14 42 41 42h44c27 0 41 -15 41 -42v-426c0 -28 -14 -42 -41 -42h-44c-27 0 -41 14 -41 42z" />
    <glyph glyph-name="icircumflex" unicode="&#xee;" horiz-adv-x="252" 
d="M23 574c-29 0 -37 22 -18 51l40 58c13 19 28 27 51 27h62c23 0 38 -8 51 -27l40 -58c19 -29 11 -51 -18 -51h-26c-24 0 -32 9 -44 29l-33 52h-2l-34 -52c-11 -20 -20 -29 -43 -29h-26zM63 42v426c0 27 14 42 41 42h44c27 0 41 -15 41 -42v-426c0 -28 -14 -42 -41 -42h-44
c-27 0 -41 14 -41 42z" />
    <glyph glyph-name="idieresis" unicode="&#xef;" horiz-adv-x="252" 
d="M211 594c-27 0 -41 14 -41 42v33c0 27 14 41 41 41h15c27 0 41 -14 41 -41v-33c0 -28 -14 -42 -41 -42h-15zM28 594c-28 0 -42 14 -42 42v33c0 27 14 41 42 41h14c27 0 42 -14 42 -41v-33c0 -28 -15 -42 -42 -42h-14zM63 42v426c0 27 14 42 41 42h44c27 0 41 -15 41 -42
v-426c0 -28 -14 -42 -41 -42h-44c-27 0 -41 14 -41 42z" />
    <glyph glyph-name="eth" unicode="&#xf0;" horiz-adv-x="579" 
d="M33 237c0 118 85 228 235 228c70 0 107 -35 107 -35h2c-19 45 -56 84 -99 112l-138 -60c-28 -12 -38 -9 -47 12l-5 12c-9 21 2 33 24 42l86 38c-23 12 -48 21 -74 28c-26 9 -36 26 -27 53l7 22c9 25 27 35 52 28c63 -17 124 -41 178 -74l101 44c28 11 38 5 45 -11l7 -15
c9 -18 -2 -30 -23 -39l-64 -29c82 -72 137 -176 137 -315c0 -136 -71 -290 -260 -290c-156 0 -244 122 -244 249zM161 234c0 -70 38 -139 119 -139c93 0 129 85 129 160c0 64 -45 111 -118 111c-88 0 -130 -65 -130 -132z" />
    <glyph glyph-name="ntilde" unicode="&#xf1;" horiz-adv-x="599" 
d="M63 42v426c0 27 14 42 41 42h39c27 0 41 -15 41 -42v-31c0 -11 -2 -23 -2 -23h2c22 43 78 108 181 108c113 0 178 -59 178 -194v-286c0 -28 -14 -42 -42 -42h-43c-27 0 -42 14 -42 42v260c0 62 -16 104 -80 104c-90 0 -147 -75 -147 -167v-197c0 -28 -14 -42 -41 -42h-44
c-27 0 -41 14 -41 42zM167 575c-23 0 -36 13 -36 38c0 54 41 99 101 99c75 0 95 -65 137 -65c22 0 33 16 35 39c1 14 15 23 36 23h10c25 0 37 -10 37 -34c0 -61 -41 -103 -101 -103c-76 0 -95 65 -137 65c-23 0 -36 -18 -38 -40c-2 -14 -14 -22 -34 -22h-10z" />
    <glyph glyph-name="ograve" unicode="&#xf2;" horiz-adv-x="622" 
d="M31 255c0 156 125 267 280 267s281 -111 281 -267c0 -157 -126 -267 -281 -267s-280 110 -280 267zM160 255c0 -95 68 -159 151 -159s152 64 152 159c0 94 -69 159 -152 159s-151 -65 -151 -159zM294 574c-22 0 -37 8 -51 25l-45 61c-22 27 -14 50 21 50h37
c22 0 37 -8 49 -29l35 -61c13 -23 9 -46 -20 -46h-26z" />
    <glyph glyph-name="oacute" unicode="&#xf3;" horiz-adv-x="622" 
d="M306 574c-29 0 -40 21 -25 47l35 60c12 21 27 29 49 29h36c36 0 44 -23 22 -50l-45 -61c-14 -17 -29 -25 -51 -25h-21zM31 255c0 156 125 267 280 267s281 -111 281 -267c0 -157 -126 -267 -281 -267s-280 110 -280 267zM160 255c0 -95 68 -159 151 -159s152 64 152 159
c0 94 -69 159 -152 159s-151 -65 -151 -159z" />
    <glyph glyph-name="ocircumflex" unicode="&#xf4;" horiz-adv-x="622" 
d="M207 574c-29 0 -37 22 -18 51l40 58c13 19 28 27 51 27h62c23 0 38 -8 51 -27l40 -58c19 -29 11 -51 -18 -51h-26c-24 0 -32 9 -44 29l-33 52h-2l-34 -52c-11 -20 -20 -29 -43 -29h-26zM31 255c0 156 125 267 280 267s281 -111 281 -267c0 -157 -126 -267 -281 -267
s-280 110 -280 267zM160 255c0 -95 68 -159 151 -159s152 64 152 159c0 94 -69 159 -152 159s-151 -65 -151 -159z" />
    <glyph glyph-name="otilde" unicode="&#xf5;" horiz-adv-x="622" 
d="M31 255c0 156 125 267 280 267s281 -111 281 -267c0 -157 -126 -267 -281 -267s-280 110 -280 267zM160 255c0 -95 68 -159 151 -159s152 64 152 159c0 94 -69 159 -152 159s-151 -65 -151 -159zM169 575c-23 0 -36 13 -36 38c0 54 41 99 101 99c75 0 95 -65 137 -65
c22 0 33 16 35 39c1 14 15 23 36 23h10c25 0 37 -10 37 -34c0 -61 -41 -103 -101 -103c-76 0 -95 65 -137 65c-23 0 -36 -18 -38 -40c-2 -14 -14 -22 -34 -22h-10z" />
    <glyph glyph-name="odieresis" unicode="&#xf6;" horiz-adv-x="622" 
d="M395 594c-27 0 -41 14 -41 42v33c0 27 14 41 41 41h15c27 0 41 -14 41 -41v-33c0 -28 -14 -42 -41 -42h-15zM212 594c-28 0 -42 14 -42 42v33c0 27 14 41 42 41h14c27 0 42 -14 42 -41v-33c0 -28 -15 -42 -42 -42h-14zM31 255c0 156 125 267 280 267s281 -111 281 -267
c0 -157 -126 -267 -281 -267s-280 110 -280 267zM160 255c0 -95 68 -159 151 -159s152 64 152 159c0 94 -69 159 -152 159s-151 -65 -151 -159z" />
    <glyph glyph-name="divide" unicode="&#xf7;" horiz-adv-x="619" 
d="M294 437c-27 0 -42 14 -42 41v25c0 28 15 42 42 42h31c27 0 42 -14 42 -42v-25c0 -27 -15 -41 -42 -41h-31zM91 236c-28 0 -42 15 -42 42v15c0 27 14 42 42 42h438c27 0 41 -15 41 -42v-15c0 -27 -14 -42 -41 -42h-438zM252 68v25c0 28 15 42 42 42h31
c27 0 42 -14 42 -42v-25c0 -27 -15 -41 -42 -41h-31c-27 0 -42 14 -42 41z" />
    <glyph glyph-name="oslash" unicode="&#xf8;" horiz-adv-x="623" 
d="M106 19l22 31c-60 47 -96 119 -96 205c0 156 125 267 280 267c48 0 93 -11 133 -31l16 23c16 22 33 27 52 15c18 -13 22 -28 11 -42l-23 -32c56 -48 92 -118 92 -200c0 -157 -126 -267 -281 -267c-46 0 -89 9 -126 27l-17 -24c-16 -22 -33 -27 -52 -14
c-18 13 -22 28 -11 42zM199 149l179 249c-20 10 -42 16 -66 16c-83 0 -151 -65 -151 -159c0 -43 14 -80 38 -106zM253 108c18 -8 38 -12 59 -12c83 0 152 64 152 159c0 39 -13 73 -35 99z" />
    <glyph glyph-name="ugrave" unicode="&#xf9;" horiz-adv-x="594" 
d="M56 182v286c0 27 15 42 42 42h43c28 0 42 -15 42 -42v-260c0 -62 16 -104 79 -104c92 0 143 81 143 172v192c0 27 14 42 42 42h43c27 0 42 -15 42 -42v-426c0 -28 -15 -42 -42 -42h-39c-27 0 -41 14 -41 42v30c0 12 2 23 2 23h-2c-24 -52 -90 -107 -177 -107
c-109 0 -177 55 -177 194zM279 574c-22 0 -37 8 -51 25l-45 61c-22 27 -14 50 21 50h37c22 0 37 -8 49 -29l35 -61c13 -23 9 -46 -20 -46h-26z" />
    <glyph glyph-name="uacute" unicode="&#xfa;" horiz-adv-x="594" 
d="M289 574c-29 0 -40 21 -25 47l35 60c12 21 27 29 49 29h36c36 0 44 -23 22 -50l-45 -61c-14 -17 -29 -25 -51 -25h-21zM56 182v286c0 27 15 42 42 42h43c28 0 42 -15 42 -42v-260c0 -62 16 -104 79 -104c92 0 143 81 143 172v192c0 27 14 42 42 42h43c27 0 42 -15 42 -42
v-426c0 -28 -15 -42 -42 -42h-39c-27 0 -41 14 -41 42v30c0 12 2 23 2 23h-2c-24 -52 -90 -107 -177 -107c-109 0 -177 55 -177 194z" />
    <glyph glyph-name="ucircumflex" unicode="&#xfb;" horiz-adv-x="594" 
d="M190 574c-29 0 -37 22 -18 51l40 58c13 19 28 27 51 27h62c23 0 38 -8 51 -27l40 -58c19 -29 11 -51 -18 -51h-26c-24 0 -32 9 -44 29l-33 52h-2l-34 -52c-11 -20 -20 -29 -43 -29h-26zM56 182v286c0 27 15 42 42 42h43c28 0 42 -15 42 -42v-260c0 -62 16 -104 79 -104
c92 0 143 81 143 172v192c0 27 14 42 42 42h43c27 0 42 -15 42 -42v-426c0 -28 -15 -42 -42 -42h-39c-27 0 -41 14 -41 42v30c0 12 2 23 2 23h-2c-24 -52 -90 -107 -177 -107c-109 0 -177 55 -177 194z" />
    <glyph glyph-name="udieresis" unicode="&#xfc;" horiz-adv-x="594" 
d="M378 594c-27 0 -41 14 -41 42v33c0 27 14 41 41 41h15c27 0 41 -14 41 -41v-33c0 -28 -14 -42 -41 -42h-15zM195 594c-28 0 -42 14 -42 42v33c0 27 14 41 42 41h14c27 0 42 -14 42 -41v-33c0 -28 -15 -42 -42 -42h-14zM56 182v286c0 27 15 42 42 42h43
c28 0 42 -15 42 -42v-260c0 -62 16 -104 79 -104c92 0 143 81 143 172v192c0 27 14 42 42 42h43c27 0 42 -15 42 -42v-426c0 -28 -15 -42 -42 -42h-39c-27 0 -41 14 -41 42v30c0 12 2 23 2 23h-2c-24 -52 -90 -107 -177 -107c-109 0 -177 55 -177 194z" />
    <glyph glyph-name="yacute" unicode="&#xfd;" horiz-adv-x="514" 
d="M24 -119c11 23 28 27 45 23c9 -4 21 -9 36 -9c37 0 66 32 81 68l19 45l-194 453c-13 29 0 49 32 49h54c25 0 39 -11 47 -34l96 -260c9 -27 19 -69 19 -69h2s9 40 17 67l90 261c7 24 22 35 47 35h50c31 0 44 -19 34 -48l-210 -538c-35 -93 -109 -134 -184 -134
c-28 0 -53 8 -71 15c-24 9 -30 31 -19 54zM254 573c-29 0 -40 21 -25 47l35 60c12 21 27 29 49 29h36c36 0 44 -23 22 -50l-45 -61c-14 -17 -29 -25 -51 -25h-21z" />
    <glyph glyph-name="thorn" unicode="&#xfe;" horiz-adv-x="603" 
d="M64 -158v826c0 27 15 42 42 42h43c28 0 42 -15 42 -42v-176c0 -25 -2 -42 -2 -42h2c20 22 61 72 150 72c139 0 229 -114 229 -267c0 -154 -94 -267 -231 -267c-109 0 -148 69 -148 69h-2s2 -18 2 -44v-171c0 -28 -14 -42 -42 -42h-43c-27 0 -42 14 -42 42zM187 254
c0 -100 52 -159 129 -159c74 0 126 67 126 160c0 92 -50 159 -124 159c-70 0 -131 -43 -131 -160z" />
    <glyph glyph-name="ydieresis" unicode="&#xff;" horiz-adv-x="514" 
d="M24 -119c11 23 28 27 45 23c9 -4 21 -9 36 -9c37 0 66 32 81 68l19 45l-194 453c-13 29 0 49 32 49h54c25 0 39 -11 47 -34l96 -260c9 -27 19 -69 19 -69h2s9 40 17 67l90 261c7 24 22 35 47 35h50c31 0 44 -19 34 -48l-210 -538c-35 -93 -109 -134 -184 -134
c-28 0 -53 8 -71 15c-24 9 -30 31 -19 54zM344 593c-27 0 -41 14 -41 42v33c0 27 14 41 41 41h15c27 0 41 -14 41 -41v-33c0 -28 -14 -42 -41 -42h-15zM161 593c-28 0 -42 14 -42 42v33c0 27 14 41 42 41h14c27 0 42 -14 42 -41v-33c0 -28 -15 -42 -42 -42h-14z" />
    <glyph glyph-name="Amacron" unicode="&#x100;" horiz-adv-x="634" 
d="M16 48l222 628c8 23 23 34 47 34h64c24 0 40 -11 47 -34l222 -628c10 -29 -3 -48 -34 -48h-46c-24 0 -40 11 -47 34l-50 148h-249l-49 -147c-7 -24 -23 -35 -47 -35h-46c-31 0 -44 19 -34 48zM224 287h185l-63 190c-12 40 -28 110 -28 110h-2s-16 -70 -28 -110zM227 783
c-27 0 -41 13 -41 40v7c0 28 14 40 41 40h179c27 0 42 -12 42 -40v-7c0 -27 -15 -40 -42 -40h-179z" />
    <glyph glyph-name="amacron" unicode="&#x101;" horiz-adv-x="525" 
d="M24 141c0 149 184 174 298 174h21v12c0 67 -43 90 -95 90c-43 0 -82 -16 -106 -29c-25 -11 -44 -7 -56 17l-10 19c-12 23 -8 43 16 56c33 17 91 42 167 42c132 0 211 -74 211 -203v-277c0 -28 -14 -42 -42 -42h-34c-27 0 -41 14 -41 42v20c0 14 2 22 2 22h-2
s-48 -96 -160 -96c-93 0 -169 60 -169 153zM150 152c0 -34 26 -67 77 -67c71 0 117 72 117 134v19h-21c-64 0 -173 -10 -173 -86zM172 600c-27 0 -41 13 -41 40v7c0 28 14 40 41 40h179c27 0 42 -12 42 -40v-7c0 -27 -15 -40 -42 -40h-179z" />
    <glyph glyph-name="Abreve" unicode="&#x102;" horiz-adv-x="634" 
d="M16 48l222 628c8 23 23 34 47 34h64c24 0 40 -11 47 -34l222 -628c10 -29 -3 -48 -34 -48h-46c-24 0 -40 11 -47 34l-50 148h-249l-49 -147c-7 -24 -23 -35 -47 -35h-46c-31 0 -44 19 -34 48zM224 287h185l-63 190c-12 40 -28 110 -28 110h-2s-16 -70 -28 -110zM317 753
c-71 0 -147 46 -147 115c0 15 10 25 35 25h19c25 0 33 -14 36 -28c7 -32 29 -43 57 -43c26 0 49 11 56 43c4 13 11 28 36 28h19c26 0 36 -9 36 -25c0 -70 -75 -115 -147 -115z" />
    <glyph glyph-name="abreve" unicode="&#x103;" horiz-adv-x="525" 
d="M24 141c0 149 184 174 298 174h21v12c0 67 -43 90 -95 90c-43 0 -82 -16 -106 -29c-25 -11 -44 -7 -56 17l-10 19c-12 23 -8 43 16 56c33 17 91 42 167 42c132 0 211 -74 211 -203v-277c0 -28 -14 -42 -42 -42h-34c-27 0 -41 14 -41 42v20c0 14 2 22 2 22h-2
s-48 -96 -160 -96c-93 0 -169 60 -169 153zM150 152c0 -34 26 -67 77 -67c71 0 117 72 117 134v19h-21c-64 0 -173 -10 -173 -86zM262 570c-71 0 -147 46 -147 115c0 15 10 25 35 25h19c25 0 33 -14 36 -28c7 -32 29 -43 57 -43c26 0 49 11 56 43c4 13 11 28 36 28h19
c26 0 36 -9 36 -25c0 -70 -75 -115 -147 -115z" />
    <glyph glyph-name="Aogonek" unicode="&#x104;" horiz-adv-x="634" 
d="M16 48l222 628c8 23 23 34 47 34h64c24 0 39 -11 47 -34l222 -628c10 -28 9 -48 -5 -61c-22 -19 -51 -39 -51 -67c0 -21 19 -29 34 -35c14 -6 18 -19 15 -39l-3 -21c-2 -21 -19 -30 -38 -28c-43 6 -108 33 -108 95c0 47 40 89 66 112c0 0 -30 2 -39 35l-48 143h-249
l-49 -147c-7 -24 -23 -35 -47 -35h-46c-31 0 -44 19 -34 48zM224 287h185l-63 190c-12 40 -28 110 -28 110h-2s-16 -70 -28 -110z" />
    <glyph glyph-name="aogonek" unicode="&#x105;" horiz-adv-x="527" 
d="M24 141c0 149 184 174 298 174h21v12c0 67 -43 90 -95 90c-43 0 -82 -16 -106 -29c-25 -11 -44 -7 -56 17l-10 19c-12 23 -8 43 16 56c33 17 91 42 167 42c132 0 211 -74 211 -203v-277c0 -50 -68 -67 -68 -122c0 -21 19 -29 34 -35c14 -6 18 -19 15 -39l-3 -21
c-3 -21 -19 -30 -38 -28c-43 6 -108 33 -108 95c0 51 36 92 64 117c-9 6 -13 18 -13 33v20c0 14 2 22 2 22h-2s-48 -96 -160 -96c-93 0 -169 60 -169 153zM150 152c0 -34 26 -67 77 -67c71 0 117 72 117 134v19h-21c-64 0 -173 -10 -173 -86z" />
    <glyph glyph-name="Cacute" unicode="&#x106;" horiz-adv-x="704" 
d="M392 757c-29 0 -40 21 -25 47l35 60c12 21 27 29 49 29h36c36 0 44 -23 22 -50l-45 -61c-14 -17 -29 -25 -51 -25h-21zM40 358c0 206 151 364 366 364c116 0 194 -44 232 -71c21 -16 22 -36 8 -58l-18 -29c-14 -23 -33 -25 -57 -10c-31 20 -87 50 -160 50
c-155 0 -238 -113 -238 -244c0 -133 86 -254 239 -254c80 0 141 38 174 62c22 16 42 16 58 -7l20 -27c15 -20 14 -41 -6 -58c-40 -32 -125 -88 -251 -88c-223 0 -367 161 -367 370z" />
    <glyph glyph-name="cacute" unicode="&#x107;" horiz-adv-x="530" 
d="M283 574c-29 0 -40 21 -25 47l35 60c12 21 27 29 49 29h36c36 0 44 -23 22 -50l-45 -61c-14 -17 -29 -25 -51 -25h-21zM31 255c0 145 108 267 277 267c82 0 137 -30 167 -51c21 -14 22 -35 8 -57l-13 -20c-15 -23 -32 -23 -56 -11c-21 14 -55 31 -99 31
c-94 0 -155 -71 -155 -158c0 -86 61 -160 159 -160c50 0 90 22 114 39c25 14 44 11 57 -13l10 -19c12 -22 9 -42 -11 -56c-31 -23 -93 -59 -181 -59c-169 0 -277 119 -277 267z" />
    <glyph glyph-name="Ccircumflex" unicode="&#x108;" horiz-adv-x="704" 
d="M293 757c-29 0 -37 22 -18 51l40 58c13 19 28 27 51 27h62c23 0 38 -8 51 -27l40 -58c19 -29 11 -51 -18 -51h-26c-24 0 -32 9 -44 29l-33 52h-2l-34 -52c-11 -20 -20 -29 -43 -29h-26zM40 358c0 206 151 364 366 364c116 0 194 -44 232 -71c21 -16 22 -36 8 -58l-18 -29
c-14 -23 -33 -25 -57 -10c-31 20 -87 50 -160 50c-155 0 -238 -113 -238 -244c0 -133 86 -254 239 -254c80 0 141 38 174 62c22 16 42 16 58 -7l20 -27c15 -20 14 -41 -6 -58c-40 -32 -125 -88 -251 -88c-223 0 -367 161 -367 370z" />
    <glyph glyph-name="ccircumflex" unicode="&#x109;" horiz-adv-x="530" 
d="M184 574c-29 0 -37 22 -18 51l40 58c13 19 28 27 51 27h62c23 0 38 -8 51 -27l40 -58c19 -29 11 -51 -18 -51h-26c-24 0 -32 9 -44 29l-33 52h-2l-34 -52c-11 -20 -20 -29 -43 -29h-26zM31 255c0 145 108 267 277 267c82 0 137 -30 167 -51c21 -14 22 -35 8 -57l-13 -20
c-15 -23 -32 -23 -56 -11c-21 14 -55 31 -99 31c-94 0 -155 -71 -155 -158c0 -86 61 -160 159 -160c50 0 90 22 114 39c25 14 44 11 57 -13l10 -19c12 -22 9 -42 -11 -56c-31 -23 -93 -59 -181 -59c-169 0 -277 119 -277 267z" />
    <glyph glyph-name="Cdotaccent" unicode="&#x10a;" horiz-adv-x="704" 
d="M40 358c0 206 151 364 366 364c116 0 194 -44 232 -71c21 -16 22 -36 8 -58l-18 -29c-14 -23 -33 -25 -57 -10c-31 20 -87 50 -160 50c-155 0 -238 -113 -238 -244c0 -133 86 -254 239 -254c80 0 141 38 174 62c22 16 42 16 58 -7l20 -27c15 -20 14 -41 -6 -58
c-40 -32 -125 -88 -251 -88c-223 0 -367 161 -367 370zM384 782c-27 0 -41 15 -41 42v28c0 27 14 41 41 41h26c27 0 41 -14 41 -41v-28c0 -27 -14 -42 -41 -42h-26z" />
    <glyph glyph-name="cdotaccent" unicode="&#x10b;" horiz-adv-x="530" 
d="M31 255c0 145 108 267 277 267c82 0 137 -30 167 -51c21 -14 22 -35 8 -57l-13 -20c-15 -23 -32 -23 -56 -11c-21 14 -55 31 -99 31c-94 0 -155 -71 -155 -158c0 -86 61 -160 159 -160c50 0 90 22 114 39c25 14 44 11 57 -13l10 -19c12 -22 9 -42 -11 -56
c-31 -23 -93 -59 -181 -59c-169 0 -277 119 -277 267zM276 599c-27 0 -41 15 -41 42v28c0 27 14 41 41 41h26c27 0 41 -14 41 -41v-28c0 -27 -14 -42 -41 -42h-26z" />
    <glyph glyph-name="Ccaron" unicode="&#x10c;" horiz-adv-x="704" 
d="M366 757c-23 0 -38 8 -51 27l-40 59c-19 28 -11 50 18 50h26c23 0 32 -8 43 -28l34 -53h2l33 53c12 20 20 28 44 28h26c29 0 37 -22 18 -50l-40 -59c-13 -19 -28 -27 -51 -27h-62zM40 358c0 206 151 364 366 364c116 0 194 -44 232 -71c21 -16 22 -36 8 -58l-18 -29
c-14 -23 -33 -25 -57 -10c-31 20 -87 50 -160 50c-155 0 -238 -113 -238 -244c0 -133 86 -254 239 -254c80 0 141 38 174 62c22 16 42 16 58 -7l20 -27c15 -20 14 -41 -6 -58c-40 -32 -125 -88 -251 -88c-223 0 -367 161 -367 370z" />
    <glyph glyph-name="ccaron" unicode="&#x10d;" horiz-adv-x="530" 
d="M257 574c-23 0 -38 8 -51 27l-40 59c-19 28 -11 50 18 50h26c23 0 32 -8 43 -28l34 -53h2l33 53c12 20 20 28 44 28h26c29 0 37 -22 18 -50l-40 -59c-13 -19 -28 -27 -51 -27h-62zM31 255c0 145 108 267 277 267c82 0 137 -30 167 -51c21 -14 22 -35 8 -57l-13 -20
c-15 -23 -32 -23 -56 -11c-21 14 -55 31 -99 31c-94 0 -155 -71 -155 -158c0 -86 61 -160 159 -160c50 0 90 22 114 39c25 14 44 11 57 -13l10 -19c12 -22 9 -42 -11 -56c-31 -23 -93 -59 -181 -59c-169 0 -277 119 -277 267z" />
    <glyph glyph-name="Dcaron" unicode="&#x10e;" horiz-adv-x="728" 
d="M306 757c-23 0 -38 8 -51 27l-40 59c-19 28 -11 50 18 50h26c23 0 32 -8 43 -28l34 -53h2l33 53c12 20 20 28 44 28h26c29 0 37 -22 18 -50l-40 -59c-13 -19 -28 -27 -51 -27h-62zM82 42v626c0 27 14 42 41 42h201c219 0 362 -130 362 -354s-143 -356 -362 -356h-201
c-27 0 -41 14 -41 42zM210 111h107c144 0 236 85 236 245c0 158 -94 243 -236 243h-107v-488z" />
    <glyph glyph-name="dcaron" unicode="&#x10f;" horiz-adv-x="603" 
d="M597 683c0 20 14 26 37 26h20c39 0 48 -31 48 -61c0 -55 -29 -103 -63 -103h-11c-24 0 -37 8 -37 23c0 18 11 31 11 66c0 22 -5 31 -5 49zM33 255c0 162 96 267 231 267c112 0 149 -73 149 -73h2s-2 13 -2 29v190c0 27 14 42 41 42h44c27 0 41 -15 41 -42v-626
c0 -28 -14 -42 -41 -42h-37c-27 0 -41 13 -41 38v20c0 10 2 18 2 18h-2s-43 -88 -160 -88c-138 0 -227 109 -227 267zM161 255c0 -97 52 -160 127 -160c66 0 128 48 128 161c0 79 -41 157 -127 157c-69 0 -128 -57 -128 -158z" />
    <glyph glyph-name="Dcroat" unicode="&#x110;" horiz-adv-x="729" 
d="M83 42v259h-16c-28 0 -42 15 -42 42v21c0 28 9 42 25 42h33v262c0 27 14 42 42 42h200c219 0 362 -130 362 -354s-143 -356 -362 -356h-200c-28 0 -42 14 -42 42zM211 111h107c144 0 236 85 236 245c0 158 -94 243 -236 243h-107v-193h91c27 0 41 -14 41 -42v-21
c0 -27 -13 -42 -39 -42h-93v-190z" />
    <glyph glyph-name="dcroat" unicode="&#x111;" horiz-adv-x="603" 
d="M33 255c0 162 96 267 231 267c112 0 148 -71 148 -71h2s-1 12 -1 29v79h-87c-27 0 -42 11 -42 35v6c0 24 15 35 42 35h87v33c0 27 14 42 41 42h44c27 0 41 -15 41 -42v-33h31c27 0 41 -11 41 -35v-6c0 -24 -9 -35 -27 -35h-45v-517c0 -28 -14 -42 -41 -42h-37
c-27 0 -41 13 -41 38v19c0 9 1 18 1 18h-2s-42 -87 -159 -87c-138 0 -227 109 -227 267zM161 255c0 -97 52 -160 127 -160c66 0 128 48 128 161c0 79 -41 157 -127 157c-69 0 -128 -57 -128 -158z" />
    <glyph glyph-name="Emacron" unicode="&#x112;" horiz-adv-x="557" 
d="M82 42v626c0 27 14 42 41 42h342c27 0 42 -15 42 -42v-28c0 -27 -15 -41 -42 -41h-255v-186h198c27 0 42 -14 42 -41v-28c0 -28 -15 -42 -42 -42h-198v-191h271c27 0 42 -14 42 -41v-28c0 -28 -15 -42 -42 -42h-358c-27 0 -41 14 -41 42zM214 783c-27 0 -41 13 -41 40v7
c0 28 14 40 41 40h179c27 0 42 -12 42 -40v-7c0 -27 -15 -40 -42 -40h-179z" />
    <glyph glyph-name="emacron" unicode="&#x113;" horiz-adv-x="546" 
d="M32 255c0 157 106 267 259 267c145 0 226 -103 226 -243c0 -22 -19 -43 -44 -43h-311c8 -92 76 -140 153 -140c47 0 86 18 110 33c25 12 43 9 56 -14l12 -20c12 -23 8 -43 -14 -56c-33 -21 -93 -51 -173 -51c-169 0 -274 122 -274 267zM165 313h226
c-2 71 -45 113 -103 113c-65 0 -111 -45 -123 -113zM199 600c-27 0 -41 13 -41 40v7c0 28 14 40 41 40h179c27 0 42 -12 42 -40v-7c0 -27 -15 -40 -42 -40h-179z" />
    <glyph glyph-name="Ebreve" unicode="&#x114;" horiz-adv-x="557" 
d="M82 42v626c0 27 14 42 41 42h342c27 0 42 -15 42 -42v-28c0 -27 -15 -41 -42 -41h-255v-186h198c27 0 42 -14 42 -41v-28c0 -28 -15 -42 -42 -42h-198v-191h271c27 0 42 -14 42 -41v-28c0 -28 -15 -42 -42 -42h-358c-27 0 -41 14 -41 42zM304 753c-71 0 -147 46 -147 115
c0 15 10 25 35 25h19c25 0 33 -14 36 -28c7 -32 29 -43 57 -43c26 0 49 11 56 43c4 13 11 28 36 28h19c26 0 36 -9 36 -25c0 -70 -75 -115 -147 -115z" />
    <glyph glyph-name="ebreve" unicode="&#x115;" horiz-adv-x="546" 
d="M32 255c0 157 106 267 259 267c145 0 226 -103 226 -243c0 -22 -19 -43 -44 -43h-311c8 -92 76 -140 153 -140c47 0 86 18 110 33c25 12 43 9 56 -14l12 -20c12 -23 8 -43 -14 -56c-33 -21 -93 -51 -173 -51c-169 0 -274 122 -274 267zM165 313h226
c-2 71 -45 113 -103 113c-65 0 -111 -45 -123 -113zM289 570c-71 0 -147 46 -147 115c0 15 10 25 35 25h19c25 0 33 -14 36 -28c7 -32 29 -43 57 -43c26 0 49 11 56 43c4 13 11 28 36 28h19c26 0 36 -9 36 -25c0 -70 -75 -115 -147 -115z" />
    <glyph glyph-name="Edotaccent" unicode="&#x116;" horiz-adv-x="557" 
d="M82 42v626c0 27 14 42 41 42h342c27 0 42 -15 42 -42v-28c0 -27 -15 -41 -42 -41h-255v-186h198c27 0 42 -14 42 -41v-28c0 -28 -15 -42 -42 -42h-198v-191h271c27 0 42 -14 42 -41v-28c0 -28 -15 -42 -42 -42h-358c-27 0 -41 14 -41 42zM291 782c-27 0 -41 15 -41 42v28
c0 27 14 41 41 41h26c27 0 41 -14 41 -41v-28c0 -27 -14 -42 -41 -42h-26z" />
    <glyph glyph-name="edotaccent" unicode="&#x117;" horiz-adv-x="546" 
d="M32 255c0 157 106 267 259 267c145 0 226 -103 226 -243c0 -22 -19 -43 -44 -43h-311c8 -92 76 -140 153 -140c47 0 86 18 110 33c25 12 43 9 56 -14l12 -20c12 -23 8 -43 -14 -56c-33 -21 -93 -51 -173 -51c-169 0 -274 122 -274 267zM165 313h226
c-2 71 -45 113 -103 113c-65 0 -111 -45 -123 -113zM276 599c-27 0 -41 15 -41 42v28c0 27 14 41 41 41h26c27 0 41 -14 41 -41v-28c0 -27 -14 -42 -41 -42h-26z" />
    <glyph glyph-name="Eogonek" unicode="&#x118;" horiz-adv-x="557" 
d="M82 42v626c0 27 14 42 41 42h342c27 0 42 -15 42 -42v-28c0 -27 -15 -41 -42 -41h-255v-186h198c27 0 42 -14 42 -41v-28c0 -28 -15 -42 -42 -42h-198v-191h271c27 0 42 -14 42 -41v-29c0 -46 -71 -66 -71 -121c0 -21 19 -29 34 -35s19 -19 16 -39l-3 -21
c-3 -21 -20 -30 -39 -28c-42 6 -108 33 -108 95c0 43 30 82 57 108h-286c-27 0 -41 14 -41 42z" />
    <glyph glyph-name="eogonek" unicode="&#x119;" horiz-adv-x="548" 
d="M32 255c0 157 106 267 259 267c145 0 226 -106 226 -246c-1 -20 -17 -40 -44 -40h-311c8 -92 76 -140 153 -140c47 0 86 18 110 33c25 12 44 9 57 -15l10 -19c12 -23 7 -40 -11 -58c-30 -28 -98 -75 -98 -117c0 -21 19 -29 34 -35c14 -6 19 -19 16 -39l-3 -21
c-3 -21 -20 -29 -39 -28c-42 4 -109 36 -109 91c0 44 27 77 57 104c-12 -2 -20 -4 -33 -4c-169 0 -274 122 -274 267zM165 313h224c-2 69 -45 111 -101 111c-65 0 -111 -45 -123 -111z" />
    <glyph glyph-name="Ecaron" unicode="&#x11a;" horiz-adv-x="557" 
d="M272 757c-23 0 -38 8 -51 27l-40 59c-19 28 -11 50 18 50h26c23 0 32 -8 43 -28l34 -53h2l33 53c12 20 20 28 44 28h26c29 0 37 -22 18 -50l-40 -59c-13 -19 -28 -27 -51 -27h-62zM82 42v626c0 27 14 42 41 42h342c27 0 42 -15 42 -42v-28c0 -27 -15 -41 -42 -41h-255
v-186h198c27 0 42 -14 42 -41v-28c0 -28 -15 -42 -42 -42h-198v-191h271c27 0 42 -14 42 -41v-28c0 -28 -15 -42 -42 -42h-358c-27 0 -41 14 -41 42z" />
    <glyph glyph-name="ecaron" unicode="&#x11b;" horiz-adv-x="546" 
d="M257 574c-23 0 -38 8 -51 27l-40 59c-19 28 -11 50 18 50h26c23 0 32 -8 43 -28l34 -53h2l33 53c12 20 20 28 44 28h26c29 0 37 -22 18 -50l-40 -59c-13 -19 -28 -27 -51 -27h-62zM32 255c0 157 106 267 259 267c145 0 226 -103 226 -243c0 -22 -19 -43 -44 -43h-311
c8 -92 76 -140 153 -140c47 0 86 18 110 33c25 12 43 9 56 -14l12 -20c12 -23 8 -43 -14 -56c-33 -21 -93 -51 -173 -51c-169 0 -274 122 -274 267zM165 313h226c-2 71 -45 113 -103 113c-65 0 -111 -45 -123 -113z" />
    <glyph glyph-name="Gcircumflex" unicode="&#x11c;" horiz-adv-x="754" 
d="M292 757c-29 0 -37 22 -18 51l40 58c13 19 28 27 51 27h62c23 0 38 -8 51 -27l40 -58c19 -29 11 -51 -18 -51h-26c-24 0 -32 9 -44 29l-33 52h-2l-34 -52c-11 -20 -20 -29 -43 -29h-26zM40 352c0 212 155 370 367 370c117 0 202 -44 232 -65c22 -17 24 -35 9 -58l-18 -28
c-15 -23 -33 -25 -58 -11c-31 18 -82 44 -158 44c-155 0 -241 -112 -241 -246c0 -149 105 -252 237 -252c119 0 180 78 180 78v79h-68c-27 0 -42 15 -42 42v27c0 28 15 42 42 42h142c27 0 41 -14 41 -42v-290c0 -28 -14 -42 -41 -42h-25c-27 0 -41 14 -41 34v17
c0 9 1 17 1 17h-2s-71 -80 -208 -80c-188 0 -349 147 -349 364z" />
    <glyph glyph-name="gcircumflex" unicode="&#x11d;" horiz-adv-x="595" 
d="M185 574c-29 0 -37 22 -18 51l40 58c13 19 28 27 51 27h62c23 0 38 -8 51 -27l40 -58c19 -29 11 -51 -18 -51h-26c-24 0 -32 9 -44 29l-33 52h-2l-34 -52c-11 -20 -20 -29 -43 -29h-26zM105 -106c11 25 26 32 53 23c24 -9 56 -19 103 -19c78 0 144 33 144 124v38
c0 12 2 26 2 26h-2c-28 -48 -72 -76 -140 -76c-149 0 -231 118 -231 259c0 139 78 253 230 253c119 0 151 -78 151 -78h2s-1 5 -1 13v19c0 19 14 34 41 34h34c27 0 41 -15 41 -42v-437c0 -175 -138 -241 -264 -241c-57 0 -114 12 -149 27c-26 11 -33 28 -22 54zM290 117
c60 0 118 35 118 149c0 117 -58 148 -124 148c-79 0 -122 -56 -122 -140c0 -92 46 -157 128 -157z" />
    <glyph glyph-name="Gbreve" unicode="&#x11e;" horiz-adv-x="754" 
d="M40 352c0 212 155 370 367 370c117 0 202 -44 232 -65c22 -17 24 -35 9 -58l-18 -28c-15 -23 -33 -25 -58 -11c-31 18 -82 44 -158 44c-155 0 -241 -112 -241 -246c0 -149 105 -252 237 -252c119 0 180 78 180 78v79h-68c-27 0 -42 15 -42 42v27c0 28 15 42 42 42h142
c27 0 41 -14 41 -42v-290c0 -28 -14 -42 -41 -42h-25c-27 0 -41 14 -41 34v17c0 9 1 17 1 17h-2s-71 -80 -208 -80c-188 0 -349 147 -349 364zM396 753c-71 0 -147 46 -147 115c0 15 10 25 35 25h19c25 0 33 -14 36 -28c7 -32 29 -43 57 -43c26 0 49 11 56 43
c4 13 11 28 36 28h19c26 0 36 -9 36 -25c0 -70 -75 -115 -147 -115z" />
    <glyph glyph-name="gbreve" unicode="&#x11f;" horiz-adv-x="595" 
d="M105 -106c11 25 26 32 53 23c24 -9 56 -19 103 -19c78 0 144 33 144 124v38c0 12 2 26 2 26h-2c-28 -48 -72 -76 -140 -76c-149 0 -231 118 -231 259c0 139 78 253 230 253c119 0 151 -78 151 -78h2s-1 5 -1 13v19c0 19 14 34 41 34h34c27 0 41 -15 41 -42v-437
c0 -175 -138 -241 -264 -241c-57 0 -114 12 -149 27c-26 11 -33 28 -22 54zM290 117c60 0 118 35 118 149c0 117 -58 148 -124 148c-79 0 -122 -56 -122 -140c0 -92 46 -157 128 -157zM290 570c-71 0 -147 46 -147 115c0 15 10 25 35 25h19c25 0 33 -14 36 -28
c7 -32 29 -43 57 -43c26 0 49 11 56 43c4 13 11 28 36 28h19c26 0 36 -9 36 -25c0 -70 -75 -115 -147 -115z" />
    <glyph glyph-name="Gdotaccent" unicode="&#x120;" horiz-adv-x="754" 
d="M40 352c0 212 155 370 367 370c117 0 202 -44 232 -65c22 -17 24 -35 9 -58l-18 -28c-15 -23 -33 -25 -58 -11c-31 18 -82 44 -158 44c-155 0 -241 -112 -241 -246c0 -149 105 -252 237 -252c119 0 180 78 180 78v79h-68c-27 0 -42 15 -42 42v27c0 28 15 42 42 42h142
c27 0 41 -14 41 -42v-290c0 -28 -14 -42 -41 -42h-25c-27 0 -41 14 -41 34v17c0 9 1 17 1 17h-2s-71 -80 -208 -80c-188 0 -349 147 -349 364zM383 782c-27 0 -41 15 -41 42v28c0 27 14 41 41 41h26c27 0 41 -14 41 -41v-28c0 -27 -14 -42 -41 -42h-26z" />
    <glyph glyph-name="gdotaccent" unicode="&#x121;" horiz-adv-x="595" 
d="M105 -106c11 25 26 32 53 23c24 -9 56 -19 103 -19c78 0 144 33 144 124v38c0 12 2 26 2 26h-2c-28 -48 -72 -76 -140 -76c-149 0 -231 118 -231 259c0 139 78 253 230 253c119 0 151 -78 151 -78h2s-1 5 -1 13v19c0 19 14 34 41 34h34c27 0 41 -15 41 -42v-437
c0 -175 -138 -241 -264 -241c-57 0 -114 12 -149 27c-26 11 -33 28 -22 54zM290 117c60 0 118 35 118 149c0 117 -58 148 -124 148c-79 0 -122 -56 -122 -140c0 -92 46 -157 128 -157zM277 599c-27 0 -41 15 -41 42v28c0 27 14 41 41 41h26c27 0 41 -14 41 -41v-28
c0 -27 -14 -42 -41 -42h-26z" />
    <glyph glyph-name="Gcommaaccent" unicode="&#x122;" horiz-adv-x="754" 
d="M339 -81c0 20 14 26 37 26h20c39 0 48 -31 48 -61c0 -55 -29 -103 -63 -103h-11c-24 0 -37 8 -37 23c0 18 11 31 11 66c0 22 -5 31 -5 49zM40 352c0 212 155 370 367 370c117 0 202 -44 232 -65c22 -17 24 -35 9 -58l-18 -28c-15 -23 -33 -25 -58 -11
c-31 18 -82 44 -158 44c-155 0 -241 -112 -241 -246c0 -149 105 -252 237 -252c119 0 180 78 180 78v79h-68c-27 0 -42 15 -42 42v27c0 28 15 42 42 42h142c27 0 41 -14 41 -42v-290c0 -28 -14 -42 -41 -42h-25c-27 0 -41 14 -41 34v17c0 9 1 17 1 17h-2s-71 -80 -208 -80
c-188 0 -349 147 -349 364z" />
    <glyph glyph-name="gcommaaccent" unicode="&#x123;" horiz-adv-x="595" 
d="M340 593c0 -20 -14 -26 -37 -26h-20c-39 0 -48 31 -48 61c0 55 29 103 63 103h11c24 0 37 -8 37 -23c0 -18 -11 -31 -11 -66c0 -22 5 -31 5 -49zM105 -106c11 25 26 32 53 23c24 -9 56 -19 103 -19c78 0 144 33 144 124v38c0 12 2 26 2 26h-2c-28 -48 -72 -76 -140 -76
c-149 0 -231 118 -231 259c0 139 78 253 230 253c119 0 151 -78 151 -78h2s-1 5 -1 13v19c0 19 14 34 41 34h34c27 0 41 -15 41 -42v-437c0 -175 -138 -241 -264 -241c-57 0 -114 12 -149 27c-26 11 -33 28 -22 54zM290 117c60 0 118 35 118 149c0 117 -58 148 -124 148
c-79 0 -122 -56 -122 -140c0 -92 46 -157 128 -157z" />
    <glyph glyph-name="Hcircumflex" unicode="&#x124;" horiz-adv-x="745" 
d="M268 757c-29 0 -37 22 -18 51l40 58c13 19 28 27 51 27h62c23 0 38 -8 51 -27l40 -58c19 -29 11 -51 -18 -51h-26c-24 0 -32 9 -44 29l-33 52h-2l-34 -52c-11 -20 -20 -29 -43 -29h-26zM82 42v626c0 27 14 42 41 42h46c27 0 41 -15 41 -42v-259h325v259c0 27 14 42 42 42
h45c27 0 41 -15 41 -42v-626c0 -28 -14 -42 -41 -42h-45c-28 0 -42 14 -42 42v256h-325v-256c0 -28 -14 -42 -41 -42h-46c-27 0 -41 14 -41 42z" />
    <glyph glyph-name="hcircumflex" unicode="&#x125;" horiz-adv-x="599" 
d="M24 757c-29 0 -37 22 -18 51l40 58c13 19 28 27 51 27h62c23 0 38 -8 51 -27l40 -58c19 -29 11 -51 -18 -51h-26c-24 0 -32 9 -44 29l-33 52h-2l-34 -52c-11 -20 -20 -29 -43 -29h-26zM63 42v626c0 27 15 42 42 42h43c28 0 42 -15 42 -42v-206c0 -25 -3 -43 -3 -43h2
c25 49 89 103 177 103c113 0 178 -59 178 -194v-286c0 -28 -15 -42 -42 -42h-43c-28 0 -42 14 -42 42v260c0 62 -16 104 -80 104c-89 0 -147 -72 -147 -169v-195c0 -28 -14 -42 -42 -42h-43c-27 0 -42 14 -42 42z" />
    <glyph glyph-name="Hbar" unicode="&#x126;" horiz-adv-x="743" 
d="M84 42v473h-24c-27 0 -41 12 -41 39v6c0 26 14 38 41 38h24v70c0 27 15 42 42 42h48c27 0 41 -13 41 -35v-77h314v70c0 27 14 42 41 42h48c27 0 42 -13 42 -35v-77h23c27 0 42 -12 42 -38v-6c0 -27 -15 -39 -42 -39h-23v-473c0 -28 -15 -42 -42 -42h-48
c-27 0 -41 14 -41 42v256h-314v-256c0 -28 -14 -42 -41 -42h-48c-27 0 -42 14 -42 42zM215 409h314v106h-314v-106z" />
    <glyph glyph-name="hbar" unicode="&#x127;" horiz-adv-x="599" 
d="M63 42v517h-24c-27 0 -42 11 -42 35v6c0 24 15 35 42 35h24v33c0 27 15 42 42 42h43c28 0 42 -10 42 -28v-47h92c27 0 42 -11 42 -35v-6c0 -24 -15 -35 -42 -35h-92v-95c0 -25 -2 -43 -2 -43h2c25 49 88 101 176 101c113 0 178 -59 178 -194v-286c0 -28 -15 -42 -42 -42
h-43c-28 0 -42 14 -42 42v260c0 62 -16 104 -80 104c-92 0 -147 -77 -147 -167v-197c0 -28 -14 -42 -42 -42h-43c-27 0 -42 14 -42 42z" />
    <glyph glyph-name="Itilde" unicode="&#x128;" horiz-adv-x="292" 
d="M82 42v626c0 27 14 42 41 42h46c27 0 41 -15 41 -42v-626c0 -28 -14 -42 -41 -42h-46c-27 0 -41 14 -41 42zM6 758c-23 0 -36 13 -36 38c0 54 41 99 101 99c75 0 95 -65 137 -65c22 0 33 16 35 39c1 14 15 23 36 23h10c25 0 37 -10 37 -34c0 -61 -41 -103 -101 -103
c-76 0 -95 65 -137 65c-23 0 -36 -18 -38 -40c-2 -14 -14 -22 -34 -22h-10z" />
    <glyph glyph-name="itilde" unicode="&#x129;" horiz-adv-x="252" 
d="M63 42v426c0 27 14 42 41 42h44c27 0 41 -15 41 -42v-426c0 -28 -14 -42 -41 -42h-44c-27 0 -41 14 -41 42zM-15 575c-23 0 -36 13 -36 38c0 54 41 99 101 99c75 0 95 -65 137 -65c22 0 33 16 35 39c1 14 15 23 36 23h10c25 0 37 -10 37 -34c0 -61 -41 -103 -101 -103
c-76 0 -95 65 -137 65c-23 0 -36 -18 -38 -40c-2 -14 -14 -22 -34 -22h-10z" />
    <glyph glyph-name="Imacron" unicode="&#x12a;" horiz-adv-x="292" 
d="M82 42v626c0 27 14 42 41 42h46c27 0 41 -15 41 -42v-626c0 -28 -14 -42 -41 -42h-46c-27 0 -41 14 -41 42zM58 783c-27 0 -41 13 -41 40v7c0 28 14 40 41 40h179c27 0 42 -12 42 -40v-7c0 -27 -15 -40 -42 -40h-179z" />
    <glyph glyph-name="imacron" unicode="&#x12b;" horiz-adv-x="252" 
d="M63 42v426c0 27 14 42 41 42h44c27 0 41 -15 41 -42v-426c0 -28 -14 -42 -41 -42h-44c-27 0 -41 14 -41 42zM37 600c-27 0 -41 13 -41 40v7c0 28 14 40 41 40h179c27 0 42 -12 42 -40v-7c0 -27 -15 -40 -42 -40h-179z" />
    <glyph glyph-name="Ibreve" unicode="&#x12c;" horiz-adv-x="292" 
d="M82 42v626c0 27 14 42 41 42h46c27 0 41 -15 41 -42v-626c0 -28 -14 -42 -41 -42h-46c-27 0 -41 14 -41 42zM147 753c-71 0 -147 46 -147 115c0 15 10 25 35 25h19c25 0 33 -14 36 -28c7 -32 29 -43 57 -43c26 0 49 11 56 43c4 13 11 28 36 28h19c26 0 36 -9 36 -25
c0 -70 -75 -115 -147 -115z" />
    <glyph glyph-name="ibreve" unicode="&#x12d;" horiz-adv-x="252" 
d="M63 42v426c0 27 14 42 41 42h44c27 0 41 -15 41 -42v-426c0 -28 -14 -42 -41 -42h-44c-27 0 -41 14 -41 42zM127 570c-71 0 -147 46 -147 115c0 15 10 25 35 25h19c25 0 33 -14 36 -28c7 -32 29 -43 57 -43c26 0 49 11 56 43c4 13 11 28 36 28h19c26 0 36 -9 36 -25
c0 -70 -75 -115 -147 -115z" />
    <glyph glyph-name="Iogonek" unicode="&#x12e;" horiz-adv-x="292" 
d="M82 42v626c0 27 14 42 41 42h46c27 0 41 -15 41 -42v-626c0 -45 -69 -67 -69 -122c0 -21 19 -29 34 -35s19 -19 16 -39l-3 -21c-3 -21 -20 -30 -39 -28c-42 6 -108 33 -108 95c0 45 37 88 64 112c-16 5 -23 18 -23 38z" />
    <glyph glyph-name="iogonek" unicode="&#x12f;" horiz-adv-x="252" 
d="M104 597c-27 0 -41 14 -41 41v30c0 27 14 42 41 42h44c27 0 42 -15 42 -42v-30c0 -27 -15 -41 -42 -41h-44zM63 42v426c0 27 14 42 42 42h43c27 0 42 -15 42 -42v-426c0 -45 -69 -67 -69 -122c0 -21 19 -29 34 -35c14 -6 19 -19 16 -39l-3 -21c-3 -21 -20 -30 -39 -28
c-43 6 -108 33 -108 95c0 45 37 88 64 112c-15 5 -22 18 -22 38z" />
    <glyph glyph-name="Idotaccent" unicode="&#x130;" horiz-adv-x="292" 
d="M82 42v626c0 27 14 42 41 42h46c27 0 41 -15 41 -42v-626c0 -28 -14 -42 -41 -42h-46c-27 0 -41 14 -41 42zM134 782c-27 0 -41 15 -41 42v28c0 27 14 41 41 41h26c27 0 41 -14 41 -41v-28c0 -27 -14 -42 -41 -42h-26z" />
    <glyph glyph-name="dotlessi" unicode="&#x131;" horiz-adv-x="252" 
d="M63 42v426c0 27 14 42 41 42h44c27 0 41 -15 41 -42v-426c0 -28 -14 -42 -41 -42h-44c-27 0 -41 14 -41 42z" />
    <glyph glyph-name="IJ" unicode="&#x132;" horiz-adv-x="627" 
d="M293 38v37c0 26 13 36 37 44c45 10 92 41 92 133v416c0 27 14 42 42 42h47c28 0 42 -15 42 -42v-424c0 -189 -133 -246 -218 -246c-27 0 -42 13 -42 40zM82 42v626c0 27 14 42 41 42h46c27 0 41 -15 41 -42v-626c0 -28 -14 -42 -41 -42h-46c-27 0 -41 14 -41 42z" />
    <glyph glyph-name="ij" unicode="&#x133;" horiz-adv-x="523" 
d="M104 597c-27 0 -41 14 -41 41v30c0 27 14 42 41 42h44c27 0 42 -15 42 -42v-30c0 -27 -15 -41 -42 -41h-44zM63 42v426c0 27 14 42 41 42h44c27 0 41 -15 41 -42v-426c0 -28 -14 -42 -41 -42h-44c-27 0 -41 14 -41 42zM375 597c-27 0 -42 14 -42 41v30c0 27 15 42 42 42
h44c27 0 41 -15 41 -42v-30c0 -27 -14 -41 -41 -41h-44zM333 -5v473c0 27 15 42 42 42h43c28 0 42 -15 42 -42v-481c0 -166 -145 -194 -195 -194h-15c-27 0 -41 14 -41 42v26c0 32 20 38 41 41c35 4 83 15 83 93z" />
    <glyph glyph-name="Jcircumflex" unicode="&#x134;" horiz-adv-x="536" 
d="M198 757c-29 0 -37 22 -18 51l40 58c13 19 28 27 51 27h62c23 0 38 -8 51 -27l40 -58c19 -29 11 -51 -18 -51h-26c-24 0 -32 9 -44 29l-33 52h-2l-34 -52c-11 -20 -20 -29 -43 -29h-26zM19 210c0 27 14 41 41 41h47c27 0 37 -11 40 -40c4 -57 30 -105 93 -105
c49 0 92 30 92 106v387h-141c-28 0 -42 14 -42 41v28c0 27 14 42 42 42h228c27 0 42 -15 42 -42v-458c0 -155 -112 -222 -221 -222c-110 0 -221 70 -221 222z" />
    <glyph glyph-name="jcircumflex" unicode="&#x135;" horiz-adv-x="253" 
d="M22 573c-30 0 -37 22 -18 51l40 59c13 19 28 27 50 27h63c22 0 37 -8 50 -27l41 -59c19 -29 11 -51 -18 -51h-27c-23 0 -31 9 -43 29l-33 53h-2l-34 -53c-11 -20 -20 -29 -43 -29h-26zM63 -5v473c0 27 15 42 42 42h43c28 0 42 -15 42 -42v-481
c0 -166 -145 -194 -195 -194h-15c-27 0 -41 14 -41 42v26c0 27 14 38 41 41c36 3 83 17 83 93z" />
    <glyph glyph-name="Kcommaaccent" unicode="&#x136;" horiz-adv-x="628" 
d="M273 -81c0 20 14 26 37 26h20c39 0 48 -31 48 -61c0 -55 -29 -103 -63 -103h-11c-24 0 -37 8 -37 23c0 18 11 31 11 66c0 22 -5 31 -5 49zM82 42v626c0 27 14 42 41 42h46c27 0 41 -15 41 -42v-247h93l150 260c11 20 26 29 49 29h49c33 0 45 -22 29 -50l-172 -288v-2
l185 -320c17 -29 4 -50 -29 -50h-55c-23 0 -38 9 -49 29l-157 281h-93v-268c0 -28 -14 -42 -41 -42h-46c-27 0 -41 14 -41 42z" />
    <glyph glyph-name="kcommaaccent" unicode="&#x137;" horiz-adv-x="534" 
d="M230 -81c0 20 14 26 37 26h20c39 0 48 -31 48 -61c0 -55 -29 -103 -63 -103h-11c-24 0 -37 8 -37 23c0 18 11 31 11 66c0 22 -5 31 -5 49zM63 42v626c0 27 15 42 42 42h43c28 0 42 -15 42 -42v-338h63l106 152c12 20 27 28 50 28h48c34 0 45 -23 26 -50l-127 -178v-2
l150 -230c17 -29 6 -50 -28 -50h-54c-23 0 -38 9 -49 29l-119 194h-66v-181c0 -28 -14 -42 -42 -42h-43c-27 0 -42 14 -42 42z" />
    <glyph glyph-name="kgreenlandic" unicode="&#x138;" horiz-adv-x="531" 
d="M63 42v426c0 27 14 42 41 42h44c27 0 41 -15 41 -42v-150h62l112 164c12 19 27 28 51 28h48c34 0 46 -23 27 -50l-134 -189v-2l142 -219c18 -29 7 -50 -27 -50h-57c-22 0 -37 9 -49 29l-109 182h-66v-169c0 -28 -14 -42 -41 -42h-44c-27 0 -41 14 -41 42z" />
    <glyph glyph-name="Lacute" unicode="&#x139;" horiz-adv-x="521" 
d="M142 757c-29 0 -40 21 -25 47l35 60c12 21 27 29 49 29h36c36 0 44 -23 22 -50l-45 -61c-14 -17 -29 -25 -51 -25h-21zM82 42v626c0 27 14 42 41 42h46c27 0 41 -15 41 -42v-557h265c28 0 42 -14 42 -41v-28c0 -28 -14 -42 -42 -42h-352c-27 0 -41 14 -41 42z" />
    <glyph glyph-name="lacute" unicode="&#x13a;" horiz-adv-x="279" 
d="M122 757c-29 0 -40 21 -25 47l35 60c12 21 27 29 49 29h36c36 0 44 -23 22 -50l-45 -61c-14 -17 -29 -25 -51 -25h-21zM62 159v509c0 27 14 42 41 42h44c27 0 41 -15 41 -42v-499c0 -50 21 -59 40 -61c18 -2 31 -13 31 -36v-34c0 -26 -12 -43 -42 -43
c-68 0 -155 18 -155 164z" />
    <glyph glyph-name="Lcommaaccent" unicode="&#x13b;" horiz-adv-x="521" 
d="M255 -81c0 20 14 26 37 26h20c39 0 48 -31 48 -61c0 -55 -29 -103 -63 -103h-11c-24 0 -37 8 -37 23c0 18 11 31 11 66c0 22 -5 31 -5 49zM82 42v626c0 27 14 42 41 42h46c27 0 41 -15 41 -42v-557h265c28 0 42 -14 42 -41v-28c0 -28 -14 -42 -42 -42h-352
c-27 0 -41 14 -41 42z" />
    <glyph glyph-name="lcommaaccent" unicode="&#x13c;" horiz-adv-x="279" 
d="M113 -81c0 20 14 26 37 26h20c39 0 48 -31 48 -61c0 -55 -29 -103 -63 -103h-11c-24 0 -37 8 -37 23c0 18 11 31 11 66c0 22 -5 31 -5 49zM62 159v509c0 27 14 42 41 42h44c27 0 41 -15 41 -42v-499c0 -50 21 -59 40 -61c18 -2 31 -13 31 -36v-34c0 -26 -12 -43 -42 -43
c-68 0 -155 18 -155 164z" />
    <glyph glyph-name="Lcaron" unicode="&#x13d;" horiz-adv-x="522" 
d="M294 683c0 20 14 26 37 26h20c39 0 48 -31 48 -61c0 -55 -29 -103 -63 -103h-11c-24 0 -37 8 -37 23c0 18 11 31 11 66c0 22 -5 31 -5 49zM82 42v626c0 27 14 42 41 42h46c27 0 41 -15 41 -42v-557h265c28 0 42 -14 42 -41v-28c0 -28 -14 -42 -42 -42h-352
c-27 0 -41 14 -41 42z" />
    <glyph glyph-name="lcaron" unicode="&#x13e;" horiz-adv-x="279" 
d="M247 683c0 20 14 26 37 26h20c39 0 48 -31 48 -61c0 -55 -29 -103 -63 -103h-11c-24 0 -37 8 -37 23c0 18 11 31 11 66c0 22 -5 31 -5 49zM62 159v509c0 27 14 42 41 42h44c27 0 41 -15 41 -42v-499c0 -50 21 -59 40 -61c18 -2 31 -13 31 -36v-34c0 -26 -12 -43 -42 -43
c-68 0 -155 18 -155 164z" />
    <glyph glyph-name="Ldot" unicode="&#x13f;" horiz-adv-x="523" 
d="M82 42v626c0 27 14 42 41 42h46c27 0 41 -15 41 -42v-557h265c28 0 42 -14 42 -41v-28c0 -28 -14 -42 -42 -42h-352c-27 0 -41 14 -41 42zM358 321c-27 0 -41 14 -41 41v46c0 27 14 41 41 41h41c27 0 42 -14 42 -41v-46c0 -27 -15 -41 -42 -41h-41z" />
    <glyph glyph-name="ldot" unicode="&#x140;" horiz-adv-x="377" 
d="M62 159v509c0 27 14 42 41 42h44c27 0 41 -15 41 -42v-499c0 -50 21 -59 40 -61c18 -2 31 -13 31 -36v-34c0 -26 -12 -43 -42 -43c-68 0 -155 18 -155 164zM292 321c-27 0 -41 14 -41 41v46c0 27 14 41 41 41h41c27 0 42 -14 42 -41v-46c0 -27 -15 -41 -42 -41h-41z" />
    <glyph glyph-name="Lslash" unicode="&#x141;" horiz-adv-x="523" 
d="M83 42v221l-20 -11c-19 -9 -37 3 -37 36v33c0 24 7 38 21 46l36 20v281c0 27 14 42 42 42h45c27 0 41 -15 41 -42v-207l57 32c28 17 49 5 49 -29v-33c0 -24 -9 -39 -28 -50l-78 -44v-226h266c27 0 41 -14 41 -41v-28c0 -28 -14 -42 -41 -42h-352c-28 0 -42 14 -42 42z
" />
    <glyph glyph-name="lslash" unicode="&#x142;" horiz-adv-x="290" 
d="M71 159v121l-26 -14c-21 -12 -38 2 -38 35v33c0 24 6 38 21 46l43 24v264c0 27 14 42 42 42h43c27 0 42 -15 42 -42v-191l27 16c29 17 50 5 50 -28v-34c0 -24 -9 -38 -26 -49l-51 -29v-185c0 -49 20 -58 39 -60s31 -13 31 -36v-34c0 -26 -11 -43 -42 -43
c-68 0 -155 18 -155 164z" />
    <glyph glyph-name="Nacute" unicode="&#x143;" horiz-adv-x="743" 
d="M366 757c-29 0 -40 21 -25 47l35 60c12 21 27 29 49 29h36c36 0 44 -23 22 -50l-45 -61c-14 -17 -29 -25 -51 -25h-21zM82 42v626c0 27 14 42 41 42h54c24 0 39 -8 50 -28l252 -382c27 -42 59 -110 59 -110h2s-7 68 -7 110v368c0 27 15 42 42 42h45c27 0 42 -15 42 -42
v-626c0 -28 -15 -42 -42 -42h-54c-22 0 -38 8 -49 28l-253 381c-26 42 -59 110 -59 110h-2s7 -68 7 -110v-367c0 -28 -14 -42 -41 -42h-46c-27 0 -41 14 -41 42z" />
    <glyph glyph-name="nacute" unicode="&#x144;" horiz-adv-x="599" 
d="M304 574c-29 0 -40 21 -25 47l35 60c12 21 27 29 49 29h36c36 0 44 -23 22 -50l-45 -61c-14 -17 -29 -25 -51 -25h-21zM63 42v426c0 27 14 42 41 42h39c27 0 41 -15 41 -42v-31c0 -11 -2 -23 -2 -23h2c22 43 78 108 181 108c113 0 178 -59 178 -194v-286
c0 -28 -14 -42 -42 -42h-43c-27 0 -42 14 -42 42v260c0 62 -16 104 -80 104c-90 0 -147 -75 -147 -167v-197c0 -28 -14 -42 -41 -42h-44c-27 0 -41 14 -41 42z" />
    <glyph glyph-name="Ncommaaccent" unicode="&#x145;" horiz-adv-x="743" 
d="M321 -81c0 20 14 26 37 26h20c39 0 48 -31 48 -61c0 -55 -29 -103 -63 -103h-11c-24 0 -37 8 -37 23c0 18 11 31 11 66c0 22 -5 31 -5 49zM82 42v626c0 27 14 42 41 42h54c24 0 39 -8 50 -28l252 -382c27 -42 59 -110 59 -110h2s-7 68 -7 110v368c0 27 15 42 42 42h45
c27 0 42 -15 42 -42v-626c0 -28 -15 -42 -42 -42h-54c-22 0 -38 8 -49 28l-253 381c-26 42 -59 110 -59 110h-2s7 -68 7 -110v-367c0 -28 -14 -42 -41 -42h-46c-27 0 -41 14 -41 42z" />
    <glyph glyph-name="ncommaaccent" unicode="&#x146;" horiz-adv-x="599" 
d="M250 -81c0 20 14 26 37 26h20c39 0 48 -31 48 -61c0 -55 -29 -103 -63 -103h-11c-24 0 -37 8 -37 23c0 18 11 31 11 66c0 22 -5 31 -5 49zM63 42v426c0 27 14 42 41 42h39c27 0 41 -15 41 -42v-31c0 -11 -2 -23 -2 -23h2c22 43 78 108 181 108c113 0 178 -59 178 -194
v-286c0 -28 -14 -42 -42 -42h-43c-27 0 -42 14 -42 42v260c0 62 -16 104 -80 104c-90 0 -147 -75 -147 -167v-197c0 -28 -14 -42 -41 -42h-44c-27 0 -41 14 -41 42z" />
    <glyph glyph-name="Ncaron" unicode="&#x147;" horiz-adv-x="743" 
d="M340 757c-23 0 -38 8 -51 27l-40 59c-19 28 -11 50 18 50h26c23 0 32 -8 43 -28l34 -53h2l33 53c12 20 20 28 44 28h26c29 0 37 -22 18 -50l-40 -59c-13 -19 -28 -27 -51 -27h-62zM82 42v626c0 27 14 42 41 42h54c24 0 39 -8 50 -28l252 -382c27 -42 59 -110 59 -110h2
s-7 68 -7 110v368c0 27 15 42 42 42h45c27 0 42 -15 42 -42v-626c0 -28 -15 -42 -42 -42h-54c-22 0 -38 8 -49 28l-253 381c-26 42 -59 110 -59 110h-2s7 -68 7 -110v-367c0 -28 -14 -42 -41 -42h-46c-27 0 -41 14 -41 42z" />
    <glyph glyph-name="ncaron" unicode="&#x148;" horiz-adv-x="599" 
d="M278 574c-23 0 -38 8 -51 27l-40 59c-19 28 -11 50 18 50h26c23 0 32 -8 43 -28l34 -53h2l33 53c12 20 20 28 44 28h26c29 0 37 -22 18 -50l-40 -59c-13 -19 -28 -27 -51 -27h-62zM63 42v426c0 27 14 42 41 42h39c27 0 41 -15 41 -42v-31c0 -11 -2 -23 -2 -23h2
c22 43 78 108 181 108c113 0 178 -59 178 -194v-286c0 -28 -14 -42 -42 -42h-43c-27 0 -42 14 -42 42v260c0 62 -16 104 -80 104c-90 0 -147 -75 -147 -167v-197c0 -28 -14 -42 -41 -42h-44c-27 0 -41 14 -41 42z" />
    <glyph glyph-name="napostrophe" unicode="&#x149;" horiz-adv-x="599" 
d="M-13 683c0 20 14 26 37 26h20c39 0 48 -31 48 -61c0 -55 -29 -103 -63 -103h-11c-24 0 -37 8 -37 23c0 18 11 31 11 66c0 22 -5 31 -5 49zM63 42v426c0 27 14 42 41 42h39c27 0 41 -15 41 -42v-31c0 -11 -2 -23 -2 -23h2c22 43 78 108 181 108c113 0 178 -59 178 -194
v-286c0 -28 -14 -42 -42 -42h-43c-27 0 -42 14 -42 42v260c0 62 -16 104 -80 104c-90 0 -147 -75 -147 -167v-197c0 -28 -14 -42 -41 -42h-44c-27 0 -41 14 -41 42z" />
    <glyph glyph-name="Eng" unicode="&#x14a;" horiz-adv-x="744" 
d="M82 42v626c0 27 14 42 41 42h54c24 0 39 -8 50 -28l252 -382c27 -42 59 -110 59 -110h2s-7 68 -7 110v368c0 27 15 42 42 42h45c27 0 42 -15 42 -42v-675c0 -157 -129 -197 -208 -200c-30 0 -45 14 -45 42v27c0 27 15 39 42 42c46 4 86 29 86 97l-273 408
c-27 42 -59 110 -59 110h-2s7 -68 7 -110v-367c0 -28 -14 -42 -41 -42h-46c-27 0 -41 14 -41 42z" />
    <glyph glyph-name="eng" unicode="&#x14b;" horiz-adv-x="602" 
d="M63 42v426c0 27 14 42 41 42h39c27 0 41 -15 41 -42v-31c0 -11 -2 -23 -2 -23h2c22 43 78 108 181 108c113 0 178 -59 178 -194v-341c0 -166 -145 -194 -195 -194h-15c-27 0 -41 14 -41 42v26c0 27 14 38 41 41c36 3 83 17 83 93v307c0 62 -16 104 -80 104
c-90 0 -147 -75 -147 -167v-197c0 -28 -14 -42 -41 -42h-44c-27 0 -41 14 -41 42z" />
    <glyph glyph-name="Omacron" unicode="&#x14c;" horiz-adv-x="814" 
d="M317 783c-27 0 -41 13 -41 40v7c0 28 14 40 41 40h179c27 0 42 -12 42 -40v-7c0 -27 -15 -40 -42 -40h-179zM40 360c0 203 152 362 367 362s367 -159 367 -362c0 -209 -152 -372 -367 -372s-367 163 -367 372zM173 360c0 -144 98 -254 234 -254s234 110 234 254
c0 138 -98 244 -234 244s-234 -106 -234 -244z" />
    <glyph glyph-name="omacron" unicode="&#x14d;" horiz-adv-x="622" 
d="M221 600c-27 0 -41 13 -41 40v7c0 28 14 40 41 40h179c27 0 42 -12 42 -40v-7c0 -27 -15 -40 -42 -40h-179zM31 255c0 156 125 267 280 267s281 -111 281 -267c0 -157 -126 -267 -281 -267s-280 110 -280 267zM160 255c0 -95 68 -159 151 -159s152 64 152 159
c0 94 -69 159 -152 159s-151 -65 -151 -159z" />
    <glyph glyph-name="Obreve" unicode="&#x14e;" horiz-adv-x="814" 
d="M40 360c0 203 152 362 367 362s367 -159 367 -362c0 -209 -152 -372 -367 -372s-367 163 -367 372zM173 360c0 -144 98 -254 234 -254s234 110 234 254c0 138 -98 244 -234 244s-234 -106 -234 -244zM407 753c-71 0 -147 46 -147 115c0 15 10 25 35 25h19
c25 0 33 -14 36 -28c7 -32 29 -43 57 -43c26 0 49 11 56 43c4 13 11 28 36 28h19c26 0 36 -9 36 -25c0 -70 -75 -115 -147 -115z" />
    <glyph glyph-name="obreve" unicode="&#x14f;" horiz-adv-x="622" 
d="M31 255c0 156 125 267 280 267s281 -111 281 -267c0 -157 -126 -267 -281 -267s-280 110 -280 267zM160 255c0 -95 68 -159 151 -159s152 64 152 159c0 94 -69 159 -152 159s-151 -65 -151 -159zM311 570c-71 0 -147 46 -147 115c0 15 10 25 35 25h19c25 0 33 -14 36 -28
c7 -32 29 -43 57 -43c26 0 49 11 56 43c4 13 11 28 36 28h19c26 0 36 -9 36 -25c0 -70 -75 -115 -147 -115z" />
    <glyph glyph-name="Ohungarumlaut" unicode="&#x150;" horiz-adv-x="814" 
d="M483 757c-33 0 -41 21 -26 50l33 57c12 21 27 29 49 29h31c36 0 43 -23 22 -50l-45 -61c-14 -17 -29 -25 -51 -25h-13zM308 757c-33 0 -42 21 -28 49l31 57c10 21 26 30 49 30h21c32 0 42 -20 26 -49l-31 -57c-12 -21 -27 -30 -49 -30h-19zM40 360c0 203 152 362 367 362
s367 -159 367 -362c0 -209 -152 -372 -367 -372s-367 163 -367 372zM173 360c0 -144 98 -254 234 -254s234 110 234 254c0 138 -98 244 -234 244s-234 -106 -234 -244z" />
    <glyph glyph-name="ohungarumlaut" unicode="&#x151;" horiz-adv-x="622" 
d="M387 574c-33 0 -41 21 -26 50l33 57c12 21 27 29 49 29h31c36 0 43 -23 22 -50l-45 -61c-14 -17 -29 -25 -51 -25h-13zM212 574c-33 0 -42 21 -28 49l31 57c10 21 26 30 49 30h21c32 0 42 -20 26 -49l-31 -57c-12 -21 -27 -30 -49 -30h-19zM31 255c0 156 125 267 280 267
s281 -111 281 -267c0 -157 -126 -267 -281 -267s-280 110 -280 267zM160 255c0 -95 68 -159 151 -159s152 64 152 159c0 94 -69 159 -152 159s-151 -65 -151 -159z" />
    <glyph glyph-name="OE" unicode="&#x152;" horiz-adv-x="958" 
d="M38 356c0 204 163 362 373 362c56 0 87 -8 126 -8h328c28 0 42 -15 42 -42v-28c0 -27 -14 -41 -42 -41h-255v-186h198c27 0 42 -14 42 -41v-28c0 -28 -15 -42 -42 -42h-198v-191h272c27 0 41 -14 41 -41v-28c0 -28 -14 -42 -41 -42h-345c-38 0 -70 -9 -126 -9
c-210 0 -373 161 -373 365zM171 356c0 -142 101 -254 240 -254c41 0 71 8 71 8v490s-30 8 -71 8c-139 0 -240 -112 -240 -252z" />
    <glyph glyph-name="oe" unicode="&#x153;" horiz-adv-x="977" 
d="M31 254c0 160 124 268 276 268c99 0 166 -42 211 -105h2c40 64 103 105 201 105c145 0 226 -103 226 -243c0 -22 -18 -43 -44 -43h-310c10 -92 77 -140 152 -140c47 0 86 18 111 33c24 12 43 9 56 -14l11 -20c12 -23 9 -43 -14 -56c-32 -21 -93 -51 -173 -51
c-106 0 -172 45 -213 108h-2c-45 -64 -113 -108 -214 -108c-152 0 -276 105 -276 266zM596 313h223c-2 67 -44 111 -99 111c-66 0 -112 -45 -124 -111zM159 254c0 -97 69 -158 152 -158c82 0 151 61 151 159c0 97 -70 159 -151 159c-83 0 -152 -63 -152 -160z" />
    <glyph glyph-name="Racute" unicode="&#x154;" horiz-adv-x="626" 
d="M300 757c-29 0 -40 21 -25 47l35 60c12 21 27 29 49 29h36c36 0 44 -23 22 -50l-45 -61c-14 -17 -29 -25 -51 -25h-21zM82 42v626c0 27 14 42 41 42h192c70 0 105 -6 135 -19c72 -30 119 -98 119 -194c0 -84 -44 -164 -118 -194v-2s9 -11 23 -37l117 -214
c17 -29 4 -50 -29 -50h-54c-23 0 -38 9 -49 29l-125 236h-124v-223c0 -28 -14 -42 -41 -42h-46c-27 0 -41 14 -41 42zM210 377h116c69 0 112 43 112 113c0 45 -17 81 -56 97c-17 8 -39 12 -77 12h-95v-222z" />
    <glyph glyph-name="racute" unicode="&#x155;" horiz-adv-x="375" 
d="M223 573c-29 0 -40 21 -25 47l35 60c12 21 27 29 49 29h36c36 0 44 -23 22 -50l-45 -61c-14 -17 -29 -25 -51 -25h-21zM63 42v426c0 27 14 42 41 42h39c27 0 42 -15 42 -42v-48c0 -19 -3 -35 -3 -35h2c20 61 76 129 148 129c28 0 38 -14 38 -42v-39
c0 -27 -16 -42 -43 -42c-93 0 -138 -92 -138 -185v-164c0 -28 -14 -42 -41 -42h-44c-27 0 -41 14 -41 42z" />
    <glyph glyph-name="Rcommaaccent" unicode="&#x156;" horiz-adv-x="626" 
d="M276 -81c0 20 14 26 37 26h20c39 0 48 -31 48 -61c0 -55 -29 -103 -63 -103h-11c-24 0 -37 8 -37 23c0 18 11 31 11 66c0 22 -5 31 -5 49zM82 42v626c0 27 14 42 41 42h192c70 0 105 -6 135 -19c72 -30 119 -98 119 -194c0 -84 -44 -164 -118 -194v-2s9 -11 23 -37
l117 -214c17 -29 4 -50 -29 -50h-54c-23 0 -38 9 -49 29l-125 236h-124v-223c0 -28 -14 -42 -41 -42h-46c-27 0 -41 14 -41 42zM210 377h116c69 0 112 43 112 113c0 45 -17 81 -56 97c-17 8 -39 12 -77 12h-95v-222z" />
    <glyph glyph-name="rcommaaccent" unicode="&#x157;" horiz-adv-x="375" 
d="M78 -81c0 20 14 26 37 26h20c39 0 48 -31 48 -61c0 -55 -29 -103 -63 -103h-11c-24 0 -37 8 -37 23c0 18 11 31 11 66c0 22 -5 31 -5 49zM63 42v426c0 27 14 42 41 42h39c27 0 42 -15 42 -42v-48c0 -19 -3 -35 -3 -35h2c20 61 76 129 148 129c28 0 38 -14 38 -42v-39
c0 -27 -16 -42 -43 -42c-93 0 -138 -92 -138 -185v-164c0 -28 -14 -42 -41 -42h-44c-27 0 -41 14 -41 42z" />
    <glyph glyph-name="Rcaron" unicode="&#x158;" horiz-adv-x="626" 
d="M274 757c-23 0 -38 8 -51 27l-40 59c-19 28 -11 50 18 50h26c23 0 32 -8 43 -28l34 -53h2l33 53c12 20 20 28 44 28h26c29 0 37 -22 18 -50l-40 -59c-13 -19 -28 -27 -51 -27h-62zM82 42v626c0 27 14 42 41 42h192c70 0 105 -6 135 -19c72 -30 119 -98 119 -194
c0 -84 -44 -164 -118 -194v-2s9 -11 23 -37l117 -214c17 -29 4 -50 -29 -50h-54c-23 0 -38 9 -49 29l-125 236h-124v-223c0 -28 -14 -42 -41 -42h-46c-27 0 -41 14 -41 42zM210 377h116c69 0 112 43 112 113c0 45 -17 81 -56 97c-17 8 -39 12 -77 12h-95v-222z" />
    <glyph glyph-name="rcaron" unicode="&#x159;" horiz-adv-x="375" 
d="M198 573c-23 0 -38 8 -51 27l-40 59c-19 28 -11 50 18 50h26c23 0 32 -8 43 -28l34 -53h2l33 53c12 20 20 28 44 28h26c29 0 37 -22 18 -50l-40 -59c-13 -19 -28 -27 -51 -27h-62zM63 42v426c0 27 14 42 41 42h39c27 0 42 -15 42 -42v-48c0 -19 -3 -35 -3 -35h2
c20 61 76 129 148 129c28 0 38 -14 38 -42v-39c0 -27 -16 -42 -43 -42c-93 0 -138 -92 -138 -185v-164c0 -28 -14 -42 -41 -42h-44c-27 0 -41 14 -41 42z" />
    <glyph glyph-name="Sacute" unicode="&#x15a;" horiz-adv-x="549" 
d="M270 757c-29 0 -40 21 -25 47l35 60c12 21 27 29 49 29h36c36 0 44 -23 22 -50l-45 -61c-14 -17 -29 -25 -51 -25h-21zM57 60c-16 14 -26 31 -6 58l22 32c16 22 33 23 58 9c23 -16 74 -52 144 -52c66 0 106 33 106 81c0 135 -331 107 -331 328c0 125 104 206 239 206
c84 0 153 -32 183 -54c22 -16 25 -35 13 -57l-18 -33c-15 -29 -36 -25 -57 -14c-29 17 -68 39 -123 39c-66 0 -108 -32 -108 -80c0 -133 331 -99 331 -325c0 -115 -86 -210 -235 -210c-101 0 -183 45 -218 72z" />
    <glyph glyph-name="sacute" unicode="&#x15b;" horiz-adv-x="447" 
d="M215 574c-29 0 -40 21 -25 47l35 60c12 21 27 29 49 29h36c36 0 44 -23 22 -50l-45 -61c-14 -17 -29 -25 -51 -25h-21zM51 40c-23 13 -25 35 -10 57l12 18c15 21 32 23 57 10c24 -13 62 -35 114 -35c44 0 71 20 71 52c0 83 -253 52 -253 227c0 100 88 153 195 153
c68 0 115 -22 142 -37c23 -12 26 -33 15 -56l-10 -18c-12 -24 -31 -27 -56 -16c-22 10 -55 25 -97 25c-44 0 -69 -18 -69 -50c0 -84 253 -51 253 -225c0 -90 -76 -157 -194 -157c-82 0 -139 31 -170 52z" />
    <glyph glyph-name="Scircumflex" unicode="&#x15c;" horiz-adv-x="549" 
d="M171 757c-29 0 -37 22 -18 51l40 58c13 19 28 27 51 27h62c23 0 38 -8 51 -27l40 -58c19 -29 11 -51 -18 -51h-26c-24 0 -32 9 -44 29l-33 52h-2l-34 -52c-11 -20 -20 -29 -43 -29h-26zM57 60c-16 14 -26 31 -6 58l22 32c16 22 33 23 58 9c23 -16 74 -52 144 -52
c66 0 106 33 106 81c0 135 -331 107 -331 328c0 125 104 206 239 206c84 0 153 -32 183 -54c22 -16 25 -35 13 -57l-18 -33c-15 -29 -36 -25 -57 -14c-29 17 -68 39 -123 39c-66 0 -108 -32 -108 -80c0 -133 331 -99 331 -325c0 -115 -86 -210 -235 -210
c-101 0 -183 45 -218 72z" />
    <glyph glyph-name="scircumflex" unicode="&#x15d;" horiz-adv-x="447" 
d="M118 574c-29 0 -37 22 -18 51l40 58c13 19 28 27 51 27h62c23 0 38 -8 51 -27l40 -58c19 -29 11 -51 -18 -51h-26c-24 0 -32 9 -44 29l-33 52h-2l-34 -52c-11 -20 -20 -29 -43 -29h-26zM51 40c-23 13 -25 35 -10 57l12 18c15 21 32 23 57 10c24 -13 62 -35 114 -35
c44 0 71 20 71 52c0 83 -253 52 -253 227c0 100 88 153 195 153c68 0 115 -22 142 -37c23 -12 26 -33 15 -56l-10 -18c-12 -24 -31 -27 -56 -16c-22 10 -55 25 -97 25c-44 0 -69 -18 -69 -50c0 -84 253 -51 253 -225c0 -90 -76 -157 -194 -157c-82 0 -139 31 -170 52z" />
    <glyph glyph-name="Scedilla" unicode="&#x15e;" horiz-adv-x="550" 
d="M230 -53l11 43c-85 8 -153 46 -184 70c-16 14 -26 31 -6 58l22 32c16 22 33 23 58 9c23 -16 74 -52 144 -52c66 0 106 33 106 81c0 135 -331 107 -331 328c0 125 104 206 239 206c84 0 153 -32 183 -54c22 -16 25 -35 13 -57l-18 -33c-15 -29 -36 -25 -57 -14
c-29 17 -68 39 -123 39c-66 0 -108 -32 -108 -80c0 -133 331 -99 331 -325c0 -107 -74 -196 -204 -208l-7 -34c41 -5 73 -29 73 -76c0 -66 -54 -88 -108 -88c-22 0 -57 3 -57 34c0 22 10 35 21 35c9 0 16 -3 25 -3c21 0 37 9 37 29c0 19 -19 26 -45 29c-14 1 -20 12 -15 31z
" />
    <glyph glyph-name="scedilla" unicode="&#x15f;" horiz-adv-x="449" 
d="M171 -53l12 44c-62 7 -106 31 -132 49c-23 13 -25 35 -10 57l12 18c15 21 32 23 57 10c24 -13 62 -35 114 -35c44 0 71 20 71 52c0 83 -253 52 -253 227c0 100 88 153 195 153c68 0 115 -22 142 -37c23 -12 26 -33 15 -56l-10 -18c-12 -24 -31 -27 -56 -16
c-22 10 -55 25 -97 25c-44 0 -69 -18 -69 -50c0 -84 253 -51 253 -225c0 -84 -65 -147 -168 -156l-7 -33c41 -5 73 -29 73 -76c0 -66 -54 -88 -108 -88c-22 0 -57 3 -57 34c0 22 10 35 21 35c9 0 16 -3 25 -3c21 0 37 9 37 29c0 19 -19 26 -45 29c-14 1 -20 12 -15 31z" />
    <glyph glyph-name="Scaron" unicode="&#x160;" horiz-adv-x="549" 
d="M244 757c-23 0 -38 8 -51 27l-40 59c-19 28 -11 50 18 50h26c23 0 32 -8 43 -28l34 -53h2l33 53c12 20 20 28 44 28h26c29 0 37 -22 18 -50l-40 -59c-13 -19 -28 -27 -51 -27h-62zM57 60c-16 14 -26 31 -6 58l22 32c16 22 33 23 58 9c23 -16 74 -52 144 -52
c66 0 106 33 106 81c0 135 -331 107 -331 328c0 125 104 206 239 206c84 0 153 -32 183 -54c22 -16 25 -35 13 -57l-18 -33c-15 -29 -36 -25 -57 -14c-29 17 -68 39 -123 39c-66 0 -108 -32 -108 -80c0 -133 331 -99 331 -325c0 -115 -86 -210 -235 -210
c-101 0 -183 45 -218 72z" />
    <glyph glyph-name="scaron" unicode="&#x161;" horiz-adv-x="447" 
d="M191 574c-23 0 -38 8 -51 27l-40 59c-19 28 -11 50 18 50h26c23 0 32 -8 43 -28l34 -53h2l33 53c12 20 20 28 44 28h26c29 0 37 -22 18 -50l-40 -59c-13 -19 -28 -27 -51 -27h-62zM51 40c-23 13 -25 35 -10 57l12 18c15 21 32 23 57 10c24 -13 62 -35 114 -35
c44 0 71 20 71 52c0 83 -253 52 -253 227c0 100 88 153 195 153c68 0 115 -22 142 -37c23 -12 26 -33 15 -56l-10 -18c-12 -24 -31 -27 -56 -16c-22 10 -55 25 -97 25c-44 0 -69 -18 -69 -50c0 -84 253 -51 253 -225c0 -90 -76 -157 -194 -157c-82 0 -139 31 -170 52z" />
    <glyph glyph-name="Tcommaaccent" unicode="&#x162;" horiz-adv-x="605" 
d="M253 -53l15 54c-19 4 -29 17 -29 41v557h-191c-28 0 -42 14 -42 41v28c0 27 14 42 42 42h510c27 0 41 -15 41 -42v-28c0 -27 -14 -41 -41 -41h-191v-557c0 -26 -12 -40 -36 -42l-9 -44c41 -5 73 -29 73 -76c0 -66 -54 -88 -108 -88c-22 0 -57 3 -57 34c0 22 10 35 21 35
c9 0 16 -3 25 -3c21 0 37 9 37 29c0 19 -19 26 -45 29c-14 1 -20 12 -15 31z" />
    <glyph glyph-name="tcommaaccent" unicode="&#x163;" horiz-adv-x="366" 
d="M164 -53l20 73c-52 27 -92 78 -92 162v220h-27c-27 0 -41 14 -41 42v17c0 27 14 42 42 42h29v104c0 27 15 42 42 42h40c27 0 42 -15 42 -42v-104h74c27 0 42 -15 42 -42v-17c0 -28 -15 -42 -41 -42h-75v-198c0 -76 47 -91 82 -95c31 -3 42 -13 42 -41v-31
c0 -30 -17 -42 -52 -42c-16 0 -32 2 -49 5l-9 -44c41 -5 73 -29 73 -76c0 -66 -54 -88 -108 -88c-22 0 -57 3 -57 34c0 22 10 35 21 35c9 0 16 -3 25 -3c21 0 37 9 37 29c0 19 -19 26 -45 29c-14 1 -20 12 -15 31z" />
    <glyph glyph-name="Tcaron" unicode="&#x164;" horiz-adv-x="605" 
d="M271 757c-23 0 -38 8 -51 27l-40 59c-19 28 -11 50 18 50h26c23 0 32 -8 43 -28l34 -53h2l33 53c12 20 20 28 44 28h26c29 0 37 -22 18 -50l-40 -59c-13 -19 -28 -27 -51 -27h-62zM239 42v557h-191c-28 0 -42 14 -42 41v28c0 27 14 42 42 42h510c27 0 41 -15 41 -42v-28
c0 -27 -14 -41 -41 -41h-191v-557c0 -28 -14 -42 -42 -42h-45c-27 0 -41 14 -41 42z" />
    <glyph glyph-name="tcaron" unicode="&#x165;" horiz-adv-x="364" 
d="M275 681c0 20 14 26 37 26h20c39 0 48 -31 48 -61c0 -55 -29 -103 -63 -103h-11c-24 0 -37 8 -37 23c0 18 11 31 11 66c0 22 -5 31 -5 49zM91 182v220h-27c-27 0 -41 14 -41 42v17c0 27 14 42 42 42h29v104c0 27 15 42 42 42h40c27 0 42 -15 42 -42v-104h74
c27 0 42 -15 42 -42v-17c0 -28 -15 -42 -41 -42h-75v-198c0 -76 47 -91 82 -95c31 -3 42 -13 42 -41v-31c0 -30 -17 -42 -52 -42c-91 0 -199 49 -199 187z" />
    <glyph glyph-name="Tbar" unicode="&#x166;" horiz-adv-x="607" 
d="M239 42v253h-109c-27 0 -42 14 -42 42v13c0 27 15 41 42 41h109v208h-191c-27 0 -42 14 -42 41v28c0 27 15 42 42 42h510c27 0 42 -15 42 -42v-28c0 -27 -15 -41 -42 -41h-191v-208h114c28 0 42 -14 42 -41v-13c0 -28 -14 -42 -42 -42h-114v-253c0 -28 -14 -42 -41 -42
h-46c-27 0 -41 14 -41 42z" />
    <glyph glyph-name="tbar" unicode="&#x167;" horiz-adv-x="366" 
d="M92 182v61h-27c-27 0 -41 14 -41 41v12c0 27 14 42 41 42h27v71h-27c-27 0 -41 14 -41 41v11c0 27 14 42 41 42h30v104c0 27 14 42 41 42h41c27 0 41 -15 41 -42v-104h75c27 0 41 -15 41 -42v-11c0 -27 -14 -41 -40 -41h-76v-71h75c27 0 41 -15 41 -42v-12
c0 -27 -14 -41 -40 -41h-76v-45c0 -72 48 -85 82 -89c31 -3 43 -13 43 -41v-31c0 -30 -18 -42 -52 -42c-91 0 -199 49 -199 187z" />
    <glyph glyph-name="Utilde" unicode="&#x168;" horiz-adv-x="719" 
d="M74 255v413c0 27 14 42 41 42h45c28 0 42 -15 42 -42v-412c0 -96 62 -150 157 -150s158 54 158 150v412c0 27 14 42 41 42h46c27 0 41 -15 41 -42v-413c0 -159 -114 -267 -285 -267c-172 0 -286 108 -286 267zM218 758c-23 0 -36 13 -36 38c0 54 41 99 101 99
c75 0 95 -65 137 -65c22 0 33 16 35 39c1 14 15 23 36 23h10c25 0 37 -10 37 -34c0 -61 -41 -103 -101 -103c-76 0 -95 65 -137 65c-23 0 -36 -18 -38 -40c-2 -14 -14 -22 -34 -22h-10z" />
    <glyph glyph-name="utilde" unicode="&#x169;" horiz-adv-x="594" 
d="M56 182v286c0 27 15 42 42 42h43c28 0 42 -15 42 -42v-260c0 -62 16 -104 79 -104c92 0 143 81 143 172v192c0 27 14 42 42 42h43c27 0 42 -15 42 -42v-426c0 -28 -15 -42 -42 -42h-39c-27 0 -41 14 -41 42v30c0 12 2 23 2 23h-2c-24 -52 -90 -107 -177 -107
c-109 0 -177 55 -177 194zM152 575c-23 0 -36 13 -36 38c0 54 41 99 101 99c75 0 95 -65 137 -65c22 0 33 16 35 39c1 14 15 23 36 23h10c25 0 37 -10 37 -34c0 -61 -41 -103 -101 -103c-76 0 -95 65 -137 65c-23 0 -36 -18 -38 -40c-2 -14 -14 -22 -34 -22h-10z" />
    <glyph glyph-name="Umacron" unicode="&#x16a;" horiz-adv-x="719" 
d="M74 255v413c0 27 14 42 41 42h45c28 0 42 -15 42 -42v-412c0 -96 62 -150 157 -150s158 54 158 150v412c0 27 14 42 41 42h46c27 0 41 -15 41 -42v-413c0 -159 -114 -267 -285 -267c-172 0 -286 108 -286 267zM270 783c-27 0 -41 13 -41 40v7c0 28 14 40 41 40h179
c27 0 42 -12 42 -40v-7c0 -27 -15 -40 -42 -40h-179z" />
    <glyph glyph-name="umacron" unicode="&#x16b;" horiz-adv-x="594" 
d="M56 182v286c0 27 15 42 42 42h43c28 0 42 -15 42 -42v-260c0 -62 16 -104 79 -104c92 0 143 81 143 172v192c0 27 14 42 42 42h43c27 0 42 -15 42 -42v-426c0 -28 -15 -42 -42 -42h-39c-27 0 -41 14 -41 42v30c0 12 2 23 2 23h-2c-24 -52 -90 -107 -177 -107
c-109 0 -177 55 -177 194zM204 600c-27 0 -41 13 -41 40v7c0 28 14 40 41 40h179c27 0 42 -12 42 -40v-7c0 -27 -15 -40 -42 -40h-179z" />
    <glyph glyph-name="Ubreve" unicode="&#x16c;" horiz-adv-x="719" 
d="M74 255v413c0 27 14 42 41 42h45c28 0 42 -15 42 -42v-412c0 -96 62 -150 157 -150s158 54 158 150v412c0 27 14 42 41 42h46c27 0 41 -15 41 -42v-413c0 -159 -114 -267 -285 -267c-172 0 -286 108 -286 267zM359 753c-71 0 -147 46 -147 115c0 15 10 25 35 25h19
c25 0 33 -14 36 -28c7 -32 29 -43 57 -43c26 0 49 11 56 43c4 13 11 28 36 28h19c26 0 36 -9 36 -25c0 -70 -75 -115 -147 -115z" />
    <glyph glyph-name="ubreve" unicode="&#x16d;" horiz-adv-x="594" 
d="M56 182v286c0 27 15 42 42 42h43c28 0 42 -15 42 -42v-260c0 -62 16 -104 79 -104c92 0 143 81 143 172v192c0 27 14 42 42 42h43c27 0 42 -15 42 -42v-426c0 -28 -15 -42 -42 -42h-39c-27 0 -41 14 -41 42v30c0 12 2 23 2 23h-2c-24 -52 -90 -107 -177 -107
c-109 0 -177 55 -177 194zM294 570c-71 0 -147 46 -147 115c0 15 10 25 35 25h19c25 0 33 -14 36 -28c7 -32 29 -43 57 -43c26 0 49 11 56 43c4 13 11 28 36 28h19c26 0 36 -9 36 -25c0 -70 -75 -115 -147 -115z" />
    <glyph glyph-name="Uring" unicode="&#x16e;" horiz-adv-x="719" 
d="M359 745c-48 0 -95 27 -95 78c0 52 47 79 95 79c47 0 94 -27 94 -79c0 -51 -47 -78 -94 -78zM359 789c20 0 34 14 34 34c0 21 -14 35 -34 35s-34 -14 -34 -35c0 -20 13 -34 34 -34zM74 255v413c0 27 14 42 41 42h45c28 0 42 -15 42 -42v-412c0 -96 62 -150 157 -150
s158 54 158 150v412c0 27 14 42 41 42h46c27 0 41 -15 41 -42v-413c0 -159 -114 -267 -285 -267c-172 0 -286 108 -286 267z" />
    <glyph glyph-name="uring" unicode="&#x16f;" horiz-adv-x="594" 
d="M294 562c-48 0 -95 27 -95 78c0 52 47 79 95 79c47 0 94 -27 94 -79c0 -51 -47 -78 -94 -78zM294 606c20 0 34 14 34 34c0 21 -14 35 -34 35s-34 -14 -34 -35c0 -20 13 -34 34 -34zM56 182v286c0 27 15 42 42 42h43c28 0 42 -15 42 -42v-260c0 -62 16 -104 79 -104
c92 0 143 81 143 172v192c0 27 14 42 42 42h43c27 0 42 -15 42 -42v-426c0 -28 -15 -42 -42 -42h-39c-27 0 -41 14 -41 42v30c0 12 2 23 2 23h-2c-24 -52 -90 -107 -177 -107c-109 0 -177 55 -177 194z" />
    <glyph glyph-name="Uhungarumlaut" unicode="&#x170;" horiz-adv-x="719" 
d="M74 255v413c0 27 14 42 41 42h45c28 0 42 -15 42 -42v-412c0 -96 62 -150 157 -150s158 54 158 150v412c0 27 14 42 41 42h46c27 0 41 -15 41 -42v-413c0 -159 -114 -267 -285 -267c-172 0 -286 108 -286 267zM435 757c-33 0 -41 21 -26 50l33 57c12 21 27 29 49 29h31
c36 0 43 -23 22 -50l-45 -61c-14 -17 -29 -25 -51 -25h-13zM260 757c-33 0 -42 21 -28 49l31 57c10 21 26 30 49 30h21c32 0 42 -20 26 -49l-31 -57c-12 -21 -27 -30 -49 -30h-19z" />
    <glyph glyph-name="uhungarumlaut" unicode="&#x171;" horiz-adv-x="594" 
d="M56 182v286c0 27 15 42 42 42h43c28 0 42 -15 42 -42v-260c0 -62 16 -104 79 -104c92 0 143 81 143 172v192c0 27 14 42 42 42h43c27 0 42 -15 42 -42v-426c0 -28 -15 -42 -42 -42h-39c-27 0 -41 14 -41 42v30c0 12 2 23 2 23h-2c-24 -52 -90 -107 -177 -107
c-109 0 -177 55 -177 194zM370 574c-33 0 -41 21 -26 50l33 57c12 21 27 29 49 29h31c36 0 43 -23 22 -50l-45 -61c-14 -17 -29 -25 -51 -25h-13zM195 574c-33 0 -42 21 -28 49l31 57c10 21 26 30 49 30h21c32 0 42 -20 26 -49l-31 -57c-12 -21 -27 -30 -49 -30h-19z" />
    <glyph glyph-name="Uogonek" unicode="&#x172;" horiz-adv-x="719" 
d="M74 255v413c0 27 14 42 41 42h45c28 0 42 -15 42 -42v-412c0 -96 62 -150 157 -150s158 54 158 150v412c0 27 14 42 41 42h46c27 0 41 -15 41 -42v-413c0 -122 -60 -179 -124 -226c-33 -22 -106 -73 -106 -109c0 -21 20 -29 35 -35c14 -6 18 -19 15 -39l-3 -21
c-3 -21 -19 -30 -38 -28c-43 6 -109 33 -109 95c0 38 26 72 52 96c-173 -3 -293 105 -293 267z" />
    <glyph glyph-name="uogonek" unicode="&#x173;" horiz-adv-x="594" 
d="M56 182v286c0 27 15 42 42 42h43c28 0 42 -15 42 -42v-260c0 -62 16 -104 79 -104c92 0 143 81 143 172v192c0 27 14 42 42 42h43c27 0 42 -15 42 -42v-426c0 -50 -69 -67 -69 -122c0 -21 20 -29 35 -35c14 -6 18 -19 15 -39l-3 -21c-3 -21 -20 -30 -39 -28
c-42 6 -108 33 -108 95c0 47 37 91 64 115c-10 6 -17 17 -17 35v30c0 12 2 23 2 23h-2c-24 -52 -90 -107 -177 -107c-109 0 -177 55 -177 194z" />
    <glyph glyph-name="Wcircumflex" unicode="&#x174;" horiz-adv-x="960" 
d="M377 757c-29 0 -37 22 -18 51l40 58c13 19 28 27 51 27h62c23 0 38 -8 51 -27l40 -58c19 -29 11 -51 -18 -51h-26c-24 0 -32 9 -44 29l-33 52h-2l-34 -52c-11 -20 -20 -29 -43 -29h-26zM192 36l-157 628c-7 28 6 46 36 46h50c24 0 39 -12 45 -37l103 -454
c9 -40 11 -75 11 -75h2s4 34 15 75l118 455c7 24 22 36 47 36h34c25 0 40 -12 45 -36l117 -455c11 -41 15 -75 15 -75h2s3 35 12 75l109 454c5 25 20 37 46 37h47c30 0 44 -18 37 -46l-163 -629c-7 -24 -22 -35 -47 -35h-71c-25 0 -40 12 -46 36l-101 384
c-12 46 -19 93 -19 93h-3s-7 -47 -18 -93l-102 -384c-6 -24 -21 -36 -46 -36h-72c-25 0 -40 12 -46 36z" />
    <glyph glyph-name="wcircumflex" unicode="&#x175;" horiz-adv-x="810" 
d="M301 574c-29 0 -37 22 -18 51l40 58c13 19 28 27 51 27h62c23 0 38 -8 51 -27l40 -58c19 -29 11 -51 -18 -51h-26c-24 0 -32 9 -44 29l-33 52h-2l-34 -52c-11 -20 -20 -29 -43 -29h-26zM154 35l-132 428c-8 28 6 47 35 47h48c25 0 40 -12 45 -37l82 -298
c6 -27 10 -54 10 -54h2s4 27 11 54l86 298c5 24 21 36 46 36h38c25 0 40 -12 46 -36l85 -298c8 -27 11 -54 11 -54h2s4 27 11 54l81 298c6 25 21 37 46 37h46c30 0 43 -19 35 -47l-131 -428c-7 -24 -23 -35 -47 -35h-67c-25 0 -41 12 -47 36l-77 255c-8 27 -12 55 -12 55h-2
s-5 -28 -13 -55l-77 -255c-6 -24 -21 -36 -46 -36h-69c-24 0 -39 11 -46 35z" />
    <glyph glyph-name="Ycircumflex" unicode="&#x176;" horiz-adv-x="580" 
d="M226 42v255l-208 363c-17 28 -4 50 28 50h56c23 0 38 -10 48 -31l96 -178c22 -44 43 -95 43 -95h2s21 51 43 95l96 178c10 21 25 31 48 31h56c33 0 45 -22 29 -50l-209 -363v-255c0 -28 -14 -42 -41 -42h-45c-28 0 -42 14 -42 42zM186 757c-29 0 -37 22 -18 51l40 58
c13 19 28 27 51 27h62c23 0 38 -8 51 -27l40 -58c19 -29 11 -51 -18 -51h-26c-24 0 -32 9 -44 29l-33 52h-2l-34 -52c-11 -20 -20 -29 -43 -29h-26z" />
    <glyph glyph-name="ycircumflex" unicode="&#x177;" horiz-adv-x="514" 
d="M24 -119c11 23 28 27 45 23c9 -4 21 -9 36 -9c37 0 66 32 81 68l19 45l-194 453c-13 29 0 49 32 49h54c25 0 39 -11 47 -34l96 -260c9 -27 19 -69 19 -69h2s9 40 17 67l90 261c7 24 22 35 47 35h50c31 0 44 -19 34 -48l-210 -538c-35 -93 -109 -134 -184 -134
c-28 0 -53 8 -71 15c-24 9 -30 31 -19 54zM156 573c-29 0 -37 22 -18 51l40 58c13 19 28 27 51 27h62c23 0 38 -8 51 -27l40 -58c19 -29 11 -51 -18 -51h-26c-24 0 -32 9 -44 29l-33 52h-2l-34 -52c-11 -20 -20 -29 -43 -29h-26z" />
    <glyph glyph-name="Ydieresis" unicode="&#x178;" horiz-adv-x="580" 
d="M226 42v255l-208 363c-17 28 -4 50 28 50h56c23 0 38 -10 48 -31l96 -178c22 -44 43 -95 43 -95h2s21 51 43 95l96 178c10 21 25 31 48 31h56c33 0 45 -22 29 -50l-209 -363v-255c0 -28 -14 -42 -41 -42h-45c-28 0 -42 14 -42 42zM373 777c-27 0 -41 14 -41 42v33
c0 27 14 41 41 41h15c27 0 41 -14 41 -41v-33c0 -28 -14 -42 -41 -42h-15zM190 777c-28 0 -42 14 -42 42v33c0 27 14 41 42 41h14c27 0 42 -14 42 -41v-33c0 -28 -15 -42 -42 -42h-14z" />
    <glyph glyph-name="Zacute" unicode="&#x179;" horiz-adv-x="601" 
d="M306 757c-29 0 -40 21 -25 47l35 60c12 21 27 29 49 29h36c36 0 44 -23 22 -50l-45 -61c-14 -17 -29 -25 -51 -25h-21zM31 42v12c0 21 5 36 17 53l298 428c28 41 52 64 52 64v2s-20 -2 -53 -2h-256c-27 0 -42 14 -42 41v28c0 27 15 42 42 42h430c27 0 41 -15 41 -41v-12
c0 -21 -4 -36 -16 -53l-299 -429c-28 -41 -52 -64 -52 -64v-2s20 2 53 2h277c27 0 42 -14 42 -41v-28c0 -28 -15 -42 -42 -42h-450c-27 0 -42 14 -42 42z" />
    <glyph glyph-name="zacute" unicode="&#x17a;" horiz-adv-x="510" 
d="M245 574c-29 0 -40 21 -25 47l35 60c12 21 27 29 49 29h36c36 0 44 -23 22 -50l-45 -61c-14 -17 -29 -25 -51 -25h-21zM28 34v10c0 21 5 31 18 47l211 264c24 29 43 47 43 47v2s-14 -2 -47 -2h-173c-28 0 -42 15 -42 42v24c0 27 14 42 42 42h350c27 0 42 -12 42 -34v-10
c0 -21 -5 -31 -18 -47l-211 -265c-23 -29 -44 -47 -44 -47v-2s15 3 48 3h190c28 0 42 -15 42 -42v-24c0 -28 -14 -42 -42 -42h-367c-27 0 -42 12 -42 34z" />
    <glyph glyph-name="Zdotaccent" unicode="&#x17b;" horiz-adv-x="601" 
d="M31 42v12c0 21 5 36 17 53l298 428c28 41 52 64 52 64v2s-20 -2 -53 -2h-256c-27 0 -42 14 -42 41v28c0 27 15 42 42 42h430c27 0 41 -15 41 -41v-12c0 -21 -4 -36 -16 -53l-299 -429c-28 -41 -52 -64 -52 -64v-2s20 2 53 2h277c27 0 42 -14 42 -41v-28
c0 -28 -15 -42 -42 -42h-450c-27 0 -42 14 -42 42zM298 782c-27 0 -41 15 -41 42v28c0 27 14 41 41 41h26c27 0 41 -14 41 -41v-28c0 -27 -14 -42 -41 -42h-26z" />
    <glyph glyph-name="zdotaccent" unicode="&#x17c;" horiz-adv-x="510" 
d="M28 34v10c0 21 5 31 18 47l211 264c24 29 43 47 43 47v2s-14 -2 -47 -2h-173c-28 0 -42 15 -42 42v24c0 27 14 42 42 42h350c27 0 42 -12 42 -34v-10c0 -21 -5 -31 -18 -47l-211 -265c-23 -29 -44 -47 -44 -47v-2s15 3 48 3h190c28 0 42 -15 42 -42v-24
c0 -28 -14 -42 -42 -42h-367c-27 0 -42 12 -42 34zM238 599c-27 0 -41 15 -41 42v28c0 27 14 41 41 41h26c27 0 41 -14 41 -41v-28c0 -27 -14 -42 -41 -42h-26z" />
    <glyph glyph-name="Zcaron" unicode="&#x17d;" horiz-adv-x="601" 
d="M280 757c-23 0 -38 8 -51 27l-40 59c-19 28 -11 50 18 50h26c23 0 32 -8 43 -28l34 -53h2l33 53c12 20 20 28 44 28h26c29 0 37 -22 18 -50l-40 -59c-13 -19 -28 -27 -51 -27h-62zM31 42v12c0 21 5 36 17 53l298 428c28 41 52 64 52 64v2s-20 -2 -53 -2h-256
c-27 0 -42 14 -42 41v28c0 27 15 42 42 42h430c27 0 41 -15 41 -41v-12c0 -21 -4 -36 -16 -53l-299 -429c-28 -41 -52 -64 -52 -64v-2s20 2 53 2h277c27 0 42 -14 42 -41v-28c0 -28 -15 -42 -42 -42h-450c-27 0 -42 14 -42 42z" />
    <glyph glyph-name="zcaron" unicode="&#x17e;" horiz-adv-x="510" 
d="M219 574c-23 0 -38 8 -51 27l-40 59c-19 28 -11 50 18 50h26c23 0 32 -8 43 -28l34 -53h2l33 53c12 20 20 28 44 28h26c29 0 37 -22 18 -50l-40 -59c-13 -19 -28 -27 -51 -27h-62zM28 34v10c0 21 5 31 18 47l211 264c24 29 43 47 43 47v2s-14 -2 -47 -2h-173
c-28 0 -42 15 -42 42v24c0 27 14 42 42 42h350c27 0 42 -12 42 -34v-10c0 -21 -5 -31 -18 -47l-211 -265c-23 -29 -44 -47 -44 -47v-2s15 3 48 3h190c28 0 42 -15 42 -42v-24c0 -28 -14 -42 -42 -42h-367c-27 0 -42 12 -42 34z" />
    <glyph glyph-name="longs" unicode="&#x17f;" horiz-adv-x="280" 
d="M90 42v360h-25c-27 0 -41 14 -41 42v17c0 27 14 42 41 42h25v24c0 162 143 187 195 187h15c27 0 41 -14 41 -42v-26c0 -27 -15 -39 -43 -41c-31 -2 -81 -9 -81 -83v-480c0 -28 -15 -42 -42 -42h-44c-27 0 -41 14 -41 42z" />
    <glyph glyph-name="florin" unicode="&#x192;" horiz-adv-x="403" 
d="M-8 -7c9 0 18 -1 29 -1c36 0 98 11 106 92l21 250h-32c-28 0 -42 14 -42 42v17c0 27 14 42 42 42h41l9 97c16 168 153 190 225 190c16 0 33 -2 47 -3c26 -3 39 -18 39 -44v-25c0 -28 -12 -43 -31 -41c-15 2 -34 4 -47 4c-37 0 -99 -12 -107 -93l-8 -85h67
c27 0 41 -15 41 -42v-17c0 -28 -14 -42 -40 -42h-77l-23 -262c-15 -168 -152 -189 -223 -189c-13 0 -26 1 -36 2c-26 2 -39 18 -39 44v25c0 28 14 42 38 39z" />
    <glyph glyph-name="Scommaaccent" unicode="&#x218;" horiz-adv-x="549" 
d="M218 -81c0 20 14 26 37 26h20c39 0 48 -31 48 -61c0 -55 -29 -103 -63 -103h-11c-24 0 -37 8 -37 23c0 18 11 31 11 66c0 22 -5 31 -5 49zM57 60c-16 14 -26 31 -6 58l22 32c16 22 33 23 58 9c23 -16 74 -52 144 -52c66 0 106 33 106 81c0 135 -331 107 -331 328
c0 125 104 206 239 206c84 0 153 -32 183 -54c22 -16 25 -35 13 -57l-18 -33c-15 -29 -36 -25 -57 -14c-29 17 -68 39 -123 39c-66 0 -108 -32 -108 -80c0 -133 331 -99 331 -325c0 -115 -86 -210 -235 -210c-101 0 -183 45 -218 72z" />
    <glyph glyph-name="scommaaccent" unicode="&#x219;" horiz-adv-x="447" 
d="M167 -81c0 20 14 26 37 26h20c39 0 48 -31 48 -61c0 -55 -29 -103 -63 -103h-11c-24 0 -37 8 -37 23c0 18 11 31 11 66c0 22 -5 31 -5 49zM51 40c-23 13 -25 35 -10 57l12 18c15 21 32 23 57 10c24 -13 62 -35 114 -35c44 0 71 20 71 52c0 83 -253 52 -253 227
c0 100 88 153 195 153c68 0 115 -22 142 -37c23 -12 26 -33 15 -56l-10 -18c-12 -24 -31 -27 -56 -16c-22 10 -55 25 -97 25c-44 0 -69 -18 -69 -50c0 -84 253 -51 253 -225c0 -90 -76 -157 -194 -157c-82 0 -139 31 -170 52z" />
    <glyph glyph-name="uni021A" unicode="&#x21a;" horiz-adv-x="606" 
d="M252 -81c0 20 14 26 37 26h20c39 0 48 -31 48 -61c0 -55 -29 -103 -63 -103h-11c-24 0 -37 8 -37 23c0 18 11 31 11 66c0 22 -5 31 -5 49zM239 42v557h-191c-28 0 -42 14 -42 41v28c0 27 14 42 42 42h510c27 0 41 -15 41 -42v-28c0 -27 -14 -41 -41 -41h-191v-557
c0 -28 -14 -42 -42 -42h-45c-27 0 -41 14 -41 42z" />
    <glyph glyph-name="uni021B" unicode="&#x21b;" horiz-adv-x="364" 
d="M148 -81c0 20 14 26 37 26h20c39 0 48 -31 48 -61c0 -55 -29 -103 -63 -103h-11c-24 0 -37 8 -37 23c0 18 11 31 11 66c0 22 -5 31 -5 49zM91 182v220h-27c-27 0 -41 14 -41 42v17c0 27 14 42 42 42h29v104c0 27 15 42 42 42h40c27 0 42 -15 42 -42v-104h74
c27 0 42 -15 42 -42v-17c0 -28 -15 -42 -41 -42h-75v-198c0 -76 47 -91 82 -95c31 -3 42 -13 42 -41v-31c0 -30 -17 -42 -52 -42c-91 0 -199 49 -199 187z" />
    <glyph glyph-name="circumflex" unicode="&#x2c6;" horiz-adv-x="494" 
d="M143 757c-29 0 -37 22 -18 51l40 58c13 19 28 27 51 27h62c23 0 38 -8 51 -27l40 -58c19 -29 11 -51 -18 -51h-26c-24 0 -32 9 -44 29l-33 52h-2l-34 -52c-11 -20 -20 -29 -43 -29h-26z" />
    <glyph glyph-name="caron" unicode="&#x2c7;" horiz-adv-x="494" 
d="M216 757c-23 0 -38 8 -51 27l-40 59c-19 28 -11 50 18 50h26c23 0 32 -8 43 -28l34 -53h2l33 53c12 20 20 28 44 28h26c29 0 37 -22 18 -50l-40 -59c-13 -19 -28 -27 -51 -27h-62z" />
    <glyph glyph-name="breve" unicode="&#x2d8;" horiz-adv-x="493" 
d="M247 753c-71 0 -147 46 -147 115c0 15 10 25 35 25h19c25 0 33 -14 36 -28c7 -32 29 -43 57 -43c26 0 49 11 56 43c4 13 11 28 36 28h19c26 0 36 -9 36 -25c0 -70 -75 -115 -147 -115z" />
    <glyph glyph-name="dotaccent" unicode="&#x2d9;" horiz-adv-x="494" 
d="M234 782c-27 0 -41 15 -41 42v28c0 27 14 41 41 41h26c27 0 41 -14 41 -41v-28c0 -27 -14 -42 -41 -42h-26z" />
    <glyph glyph-name="ring" unicode="&#x2da;" horiz-adv-x="494" 
d="M247 745c-48 0 -95 27 -95 78c0 52 47 79 95 79c47 0 94 -27 94 -79c0 -51 -47 -78 -94 -78zM247 789c20 0 34 14 34 34c0 21 -14 35 -34 35s-34 -14 -34 -35c0 -20 13 -34 34 -34z" />
    <glyph glyph-name="ogonek" unicode="&#x2db;" horiz-adv-x="494" 
d="M157 -108c0 54 53 100 81 120c15 11 33 16 55 11c25 -6 30 -19 13 -36c-21 -19 -49 -39 -49 -67c0 -21 20 -29 34 -35c15 -6 19 -19 16 -39l-3 -21c-3 -21 -20 -30 -39 -28c-42 6 -108 33 -108 95z" />
    <glyph glyph-name="tilde" unicode="&#x2dc;" horiz-adv-x="493" 
d="M105 758c-23 0 -36 13 -36 38c0 54 41 99 101 99c75 0 95 -65 137 -65c22 0 33 16 35 39c1 14 15 23 36 23h10c25 0 37 -10 37 -34c0 -61 -41 -103 -101 -103c-76 0 -95 65 -137 65c-23 0 -36 -18 -38 -40c-2 -14 -14 -22 -34 -22h-10z" />
    <glyph glyph-name="hungarumlaut" unicode="&#x2dd;" horiz-adv-x="493" 
d="M287 757c-33 0 -41 21 -26 50l33 57c12 21 27 29 49 29h31c36 0 43 -23 22 -50l-45 -61c-14 -17 -29 -25 -51 -25h-13zM112 757c-33 0 -42 21 -28 49l31 57c10 21 26 30 49 30h21c32 0 42 -20 26 -49l-31 -57c-12 -21 -27 -30 -49 -30h-19z" />
    <glyph glyph-name="uni1E9E" unicode="&#x1e9e;" horiz-adv-x="680" 
d="M74 42v454c0 125 90 214 218 214h275c27 0 42 -14 42 -41v-20c0 -20 -4 -34 -15 -51l-106 -158c-12 -18 -23 -31 -23 -31v-2l19 -1c95 -13 154 -106 154 -196c0 -118 -97 -210 -217 -210h-96c-27 0 -41 14 -41 42v28c0 27 14 41 40 41h87c60 0 95 47 95 99s-35 97 -94 97
h-43c-27 0 -41 15 -41 42v24c0 20 4 30 13 47l76 117c28 46 45 62 45 62v2s-11 -2 -44 -2h-123c-53 0 -90 -44 -90 -101v-456c0 -28 -14 -42 -41 -42h-48c-27 0 -42 14 -42 42z" />
    <glyph glyph-name="endash" unicode="&#x2013;" horiz-adv-x="671" 
d="M100 236c-27 0 -41 15 -41 42v15c0 27 14 42 41 42h471c27 0 41 -15 41 -42v-15c0 -27 -14 -42 -41 -42h-471z" />
    <glyph glyph-name="emdash" unicode="&#x2014;" horiz-adv-x="871" 
d="M100 236c-27 0 -41 15 -41 42v15c0 27 14 42 41 42h671c27 0 41 -15 41 -42v-15c0 -27 -14 -42 -41 -42h-671z" />
    <glyph glyph-name="quoteleft" unicode="&#x2018;" horiz-adv-x="217" 
d="M74 490c-31 0 -44 18 -34 47l50 152c9 22 24 33 48 33h10c30 0 40 -17 34 -45l-34 -150c-5 -25 -20 -37 -45 -37h-29z" />
    <glyph glyph-name="quoteright" unicode="&#x2019;" horiz-adv-x="215" 
d="M76 490c-30 0 -40 17 -34 45l34 150c5 25 19 37 45 37h28c31 0 44 -18 35 -47l-51 -152c-8 -22 -23 -33 -47 -33h-10z" />
    <glyph glyph-name="quotesinglbase" unicode="&#x201a;" horiz-adv-x="231" 
d="M33 -58l34 150c5 25 20 37 45 37h29c31 0 44 -19 34 -48l-50 -151c-9 -23 -24 -33 -48 -33h-10c-30 0 -40 17 -34 45z" />
    <glyph glyph-name="quotedblleft" unicode="&#x201c;" horiz-adv-x="384" 
d="M241 490c-31 0 -44 18 -34 47l50 152c9 22 24 33 48 33h11c29 0 39 -17 33 -45l-33 -150c-6 -25 -20 -37 -46 -37h-29zM74 490c-31 0 -44 18 -34 47l50 152c9 22 24 33 48 33h11c29 0 39 -17 34 -45l-34 -150c-6 -25 -20 -37 -45 -37h-30z" />
    <glyph glyph-name="quotedblright" unicode="&#x201d;" horiz-adv-x="382" 
d="M243 490c-30 0 -40 17 -34 45l34 150c5 25 19 37 45 37h29c31 0 44 -18 34 -47l-50 -152c-8 -22 -23 -33 -48 -33h-10zM76 490c-30 0 -40 17 -34 45l34 150c5 25 19 37 45 37h29c31 0 44 -18 34 -47l-50 -152c-8 -22 -23 -33 -48 -33h-10z" />
    <glyph glyph-name="quotedblbase" unicode="&#x201e;" horiz-adv-x="398" 
d="M200 -58l34 150c5 25 20 37 45 37h29c31 0 44 -19 34 -48l-50 -151c-8 -23 -23 -33 -47 -33h-11c-30 0 -40 17 -34 45zM33 -58l34 150c5 25 20 37 45 37h29c31 0 44 -19 34 -48l-50 -151c-8 -23 -23 -33 -47 -33h-11c-30 0 -40 17 -34 45z" />
    <glyph glyph-name="dagger" unicode="&#x2020;" horiz-adv-x="447" 
d="M162 -8v419h-83c-27 0 -42 15 -42 42v15c0 27 15 42 42 42h83v158c0 27 14 42 41 42h39c27 0 41 -15 41 -42v-158h86c27 0 41 -15 41 -42v-15c0 -27 -14 -42 -41 -42h-86v-419c0 -28 -14 -42 -41 -42h-39c-27 0 -41 14 -41 42z" />
    <glyph glyph-name="daggerdbl" unicode="&#x2021;" horiz-adv-x="460" 
d="M168 -8v171h-83c-27 0 -41 14 -41 41v15c0 28 14 42 41 42h83v150h-83c-27 0 -41 15 -41 42v15c0 27 14 42 41 42h83v158c0 27 15 42 42 42h38c27 0 42 -15 42 -42v-158h85c27 0 41 -15 41 -42v-15c0 -27 -14 -42 -41 -42h-85v-150h85c27 0 41 -14 41 -42v-15
c0 -27 -14 -41 -41 -41h-85v-171c0 -28 -15 -42 -42 -42h-38c-27 0 -42 14 -42 42z" />
    <glyph glyph-name="bullet" unicode="&#x2022;" horiz-adv-x="426" 
d="M213 124c-92 0 -167 75 -167 167s75 167 167 167s167 -75 167 -167s-75 -167 -167 -167z" />
    <glyph glyph-name="ellipsis" unicode="&#x2026;" horiz-adv-x="803" 
d="M625 42v45c0 27 14 41 41 41h41c27 0 41 -14 41 -41v-45c0 -28 -14 -42 -41 -42h-41c-27 0 -41 14 -41 42zM340 42v45c0 27 14 41 41 41h41c27 0 42 -14 42 -41v-45c0 -28 -15 -42 -42 -42h-41c-27 0 -41 14 -41 42zM55 42v45c0 27 14 41 42 41h40c27 0 42 -14 42 -41
v-45c0 -28 -15 -42 -42 -42h-40c-28 0 -42 14 -42 42z" />
    <glyph glyph-name="perthousand" unicode="&#x2030;" horiz-adv-x="1160" 
d="M205 406c-91 0 -163 70 -163 158c0 86 72 158 163 158c90 0 163 -72 163 -158c0 -88 -73 -158 -163 -158zM107 51l486 634c13 17 28 25 51 25h20c36 0 47 -23 25 -51l-486 -634c-13 -17 -28 -25 -51 -25h-21c-35 0 -46 23 -24 51zM205 498c37 0 67 29 67 66
c0 36 -30 66 -67 66s-66 -30 -66 -66c0 -37 29 -66 66 -66zM803 145c0 86 72 158 163 158c90 0 163 -72 163 -158c0 -87 -73 -157 -163 -157c-91 0 -163 70 -163 157zM430 145c0 86 72 158 163 158c90 0 163 -72 163 -158c0 -87 -73 -157 -163 -157c-91 0 -163 70 -163 157z
M900 146c0 -37 29 -66 66 -66s67 29 67 66c0 36 -30 66 -67 66s-66 -30 -66 -66zM527 146c0 -37 29 -66 66 -66s67 29 67 66c0 36 -30 66 -67 66s-66 -30 -66 -66z" />
    <glyph glyph-name="guilsinglleft" unicode="&#x2039;" horiz-adv-x="329" 
d="M170 101l-121 152c-16 19 -16 39 0 58l121 153c14 16 29 24 51 24h25c35 0 46 -23 24 -51l-123 -155l123 -154c22 -28 13 -51 -20 -51h-29c-22 0 -37 8 -51 24z" />
    <glyph glyph-name="guilsinglright" unicode="&#x203a;" horiz-adv-x="329" 
d="M83 77c-35 0 -46 23 -24 51l123 154l-123 155c-22 28 -13 51 20 51h29c22 0 37 -8 51 -24l121 -153c16 -19 16 -39 0 -58l-121 -152c-14 -16 -29 -24 -51 -24h-25z" />
    <glyph glyph-name="fraction" unicode="&#x2044;" horiz-adv-x="179" 
d="M-18 31c-10 -21 -25 -31 -48 -31h-14c-27 0 -36 20 -22 49l299 630c10 21 25 31 48 31h14c27 0 35 -20 22 -49z" />
    <glyph glyph-name="Euro" unicode="&#x20ac;" horiz-adv-x="603" 
d="M75 250c-29 0 -38 13 -38 38s9 38 38 38h18c-3 16 -3 42 -1 62h-16c-28 0 -39 14 -39 39s10 38 39 38h30c43 150 177 257 342 257c24 0 47 -3 64 -5c28 -4 39 -23 32 -50l-10 -37c-7 -25 -21 -35 -42 -32c-12 2 -30 4 -47 4c-96 0 -170 -53 -201 -137h208
c33 0 44 -13 39 -39c-5 -27 -17 -38 -46 -38h-219c-3 -19 -3 -42 0 -62h199c32 0 44 -14 39 -39c-6 -27 -17 -37 -46 -37h-169c32 -85 108 -140 201 -140c20 0 38 2 52 4c26 4 44 -5 48 -31l8 -38c5 -25 -5 -44 -32 -49c-19 -4 -47 -8 -78 -8c-172 0 -301 107 -342 262h-31z
" />
    <glyph glyph-name="trademark" unicode="&#x2122;" horiz-adv-x="977" 
d="M460 310l29 360c2 26 16 40 43 40h14c24 0 39 -10 48 -32l78 -177c7 -17 13 -42 13 -42h2s7 25 14 42l78 177c9 22 24 32 48 32h14c26 0 41 -14 43 -40l28 -360c1 -28 -12 -43 -40 -43h-13c-26 0 -40 13 -42 40l-14 188c-1 15 1 31 1 31h-2l-65 -146
c-9 -22 -24 -32 -48 -32h-6c-23 0 -38 10 -47 32l-65 146h-2s2 -16 1 -31l-15 -188c-2 -27 -17 -40 -43 -40h-12c-28 0 -42 15 -40 43zM229 267c-27 0 -42 14 -42 41v318h-107c-27 0 -41 12 -41 39v6c0 26 14 39 41 39h308c27 0 42 -13 42 -39v-6c0 -27 -15 -39 -42 -39
h-106v-318c0 -27 -14 -41 -41 -41h-12z" />
    <glyph glyph-name="minus" unicode="&#x2212;" horiz-adv-x="619" 
d="M87 236c-27 0 -41 15 -41 42v15c0 27 14 42 41 42h445c27 0 42 -15 42 -42v-15c0 -27 -15 -42 -42 -42h-445z" />
    <glyph glyph-name="infinity" unicode="&#x221e;" horiz-adv-x="488" 
d="M245 157c-106 0 -192 87 -192 192c0 106 86 191 192 191c105 0 190 -85 190 -191c0 -105 -85 -192 -190 -192z" />
    <glyph glyph-name="approxequal" unicode="&#x2248;" horiz-adv-x="619" 
d="M79 357l-5 7c-14 22 -13 42 8 58c34 27 79 50 127 50c94 0 127 -70 198 -70c27 0 53 12 74 27c24 15 42 15 57 -8l5 -7c14 -21 12 -42 -8 -57c-34 -28 -79 -51 -128 -51c-94 0 -127 70 -198 70c-26 0 -52 -12 -73 -27c-24 -15 -42 -15 -57 8zM79 153l-5 6
c-14 22 -13 42 8 58c34 27 79 50 127 50c94 0 127 -70 198 -70c27 0 53 12 74 27c24 15 42 15 57 -8l5 -6c14 -22 12 -42 -8 -58c-34 -27 -79 -50 -128 -50c-94 0 -127 70 -198 70c-26 0 -52 -12 -73 -27c-24 -16 -42 -15 -57 8z" />
    <glyph glyph-name="notequal" unicode="&#x2260;" horiz-adv-x="619" 
d="M151 44c-20 12 -23 32 -8 54l26 36h-60c-27 0 -42 14 -42 41v15c0 28 15 42 42 42h124l73 107h-197c-27 0 -42 15 -42 42v15c0 27 15 41 42 41h262l54 78c15 22 33 27 53 14s25 -29 15 -44l-34 -48h55c27 0 41 -14 41 -41v-15c0 -27 -14 -42 -41 -42h-119l-74 -107h193
c27 0 41 -14 41 -42v-15c0 -27 -14 -41 -41 -41h-257l-53 -76c-14 -22 -33 -28 -53 -14z" />
    <glyph glyph-name="lessequal" unicode="&#x2264;" horiz-adv-x="619" 
d="M88 231c-22 9 -32 24 -32 49v12c0 24 10 39 32 49l401 178c29 13 48 0 48 -31v-23c0 -24 -10 -39 -32 -48l-314 -130v-2l314 -130c22 -9 32 -24 32 -48v-23c0 -32 -19 -44 -48 -32zM100 -85h396c27 0 41 -15 41 -42v-15c0 -27 -14 -41 -41 -41h-396c-27 0 -42 14 -42 41
v15c0 27 15 42 42 42z" />
    <glyph glyph-name="greaterequal" unicode="&#x2265;" horiz-adv-x="619" 
d="M82 84v23c0 24 11 39 32 48l315 130v2l-315 130c-21 9 -32 24 -32 48v23c0 31 20 44 49 31l400 -178c22 -10 32 -25 32 -49v-12c0 -25 -10 -40 -32 -49l-400 -178c-29 -13 -49 0 -49 31zM124 -85h396c27 0 41 -15 41 -42v-15c0 -27 -14 -41 -41 -41h-396
c-27 0 -42 14 -42 41v15c0 27 15 42 42 42z" />
    <glyph glyph-name="commaaccent" unicode="&#xf6c3;" horiz-adv-x="335" 
d="M123 -81c0 20 14 26 37 26h20c39 0 48 -31 48 -61c0 -55 -29 -103 -63 -103h-11c-24 0 -37 8 -37 23c0 18 11 31 11 66c0 22 -5 31 -5 49z" />
    <glyph glyph-name="apple" unicode="&#xf8ff;" horiz-adv-x="1130" 
d="M168 -5v152l-126 72v278l126 71v151l265 142l134 -71l132 71l265 -142v-151l124 -71v-278l-124 -72v-152l-265 -141l-132 71l-134 -71zM208 30l238 -126l121 66l118 -66l238 126v139l114 64v249l-114 66v136l-238 126l-118 -64l-121 64l-238 -126v-136l-114 -66v-249
l114 -64v-139zM242 64v121l-99 60v225l99 58v123l215 114l110 -59l107 59l214 -114v-123l100 -58v-225l-100 -60v-121l-214 -114l-107 58l-110 -58zM433 91h99v191h194v84h-194v151h125c18 0 21 -8 21 -24v-29h89v86c0 35 -12 51 -51 51h-337v-84h54v-426z" />
    <glyph glyph-name="zero.tnum" 
d="M292 -12c-194 0 -257 164 -257 368s63 366 257 366s258 -162 258 -366s-64 -368 -258 -368zM292 106c97 0 125 110 125 250c0 138 -28 247 -125 247s-125 -109 -125 -247c0 -140 28 -250 125 -250z" />
    <glyph glyph-name="one.tnum" 
d="M88 42v28c0 27 14 41 41 41h113v394c0 24 1 48 1 48h-2s-9 -19 -27 -36l-31 -30c-20 -18 -40 -18 -58 2l-19 20c-19 19 -18 40 1 59l126 121c16 14 31 21 52 21h42c27 0 41 -15 41 -42v-557h112c27 0 42 -14 42 -41v-28c0 -28 -15 -42 -42 -42h-351c-27 0 -41 14 -41 42z
" />
    <glyph glyph-name="two.tnum" 
d="M51 42v21c0 256 332 297 332 438c0 62 -48 99 -108 99c-51 0 -87 -31 -105 -53c-19 -19 -39 -26 -59 -9l-27 21c-21 16 -26 35 -11 56c31 41 97 107 213 107c124 0 231 -76 231 -210c0 -228 -318 -267 -324 -401h293c28 0 42 -14 42 -41v-28c0 -28 -14 -42 -42 -42h-390
c-26 0 -45 14 -45 42z" />
    <glyph glyph-name="three.tnum" 
d="M66 57c-21 16 -23 37 -8 58l20 31c15 23 34 24 57 9c26 -18 71 -45 128 -45c74 0 128 45 128 106c0 75 -69 110 -152 110h-15c-23 0 -36 8 -46 29l-4 8c-9 18 -6 37 9 54l109 129c27 33 51 54 51 54v2s-22 -3 -63 -3h-171c-27 0 -41 14 -41 41v28c0 27 14 42 41 42h350
c28 0 42 -14 42 -41v-11c0 -21 -5 -36 -19 -51l-155 -179c99 -14 194 -84 194 -207c0 -121 -91 -233 -250 -233c-99 0 -170 43 -205 69z" />
    <glyph glyph-name="four.tnum" 
d="M49 183c-27 0 -41 14 -41 41v10c0 20 4 35 15 51l274 398c12 19 27 27 50 27h78c28 0 42 -15 42 -42v-378h50c27 0 42 -14 42 -41v-25c0 -27 -12 -41 -34 -41h-58v-141c0 -28 -14 -42 -42 -42h-44c-27 0 -41 14 -41 42v141h-291zM144 290h196v220c0 35 5 74 5 74h-2
s-16 -38 -35 -65l-164 -227v-2z" />
    <glyph glyph-name="five.tnum" 
d="M75 59c-20 15 -21 37 -6 57l20 30c15 23 34 24 57 8c23 -18 63 -44 118 -44c69 0 133 46 133 121c0 74 -61 123 -142 123c-36 0 -65 -11 -82 -18c-20 -7 -37 -9 -56 -2l-9 3c-23 9 -33 25 -31 50l26 283c2 26 17 40 43 40h292c28 0 42 -15 42 -42v-28
c0 -27 -14 -41 -42 -41h-220l-11 -117c-1 -19 -5 -33 -5 -33h2s33 16 76 16c157 0 250 -105 250 -233c0 -140 -109 -244 -256 -244c-99 0 -165 43 -199 71z" />
    <glyph glyph-name="six.tnum" 
d="M42 321c0 193 108 401 327 401c43 0 84 -8 107 -16c25 -8 34 -26 25 -53l-12 -33c-9 -28 -25 -32 -49 -27c-17 5 -36 10 -64 10c-115 0 -173 -95 -191 -196h2c23 29 74 56 143 56c135 0 220 -104 220 -228c0 -134 -93 -247 -234 -247c-148 0 -274 124 -274 333zM176 274
c0 -72 59 -168 140 -168c65 0 107 51 107 121c0 71 -44 130 -136 130c-63 0 -111 -33 -111 -83z" />
    <glyph glyph-name="seven.tnum" 
d="M120 49l242 485c22 44 40 65 40 65v2s-11 -2 -46 -2h-262c-27 0 -41 14 -41 41v28c0 27 14 42 41 42h405c27 0 42 -14 42 -41v-22c0 -19 -3 -34 -12 -51l-284 -566c-11 -21 -26 -30 -50 -30h-45c-32 0 -44 20 -30 49z" />
    <glyph glyph-name="eight.tnum" 
d="M38 201c0 105 86 170 109 186c-48 34 -81 78 -81 142c0 96 73 193 227 193c134 0 233 -75 233 -192c0 -91 -64 -162 -80 -178c57 -34 98 -83 98 -154c0 -107 -93 -210 -252 -210c-154 0 -254 97 -254 213zM354 397c11 16 47 60 47 118c0 61 -42 95 -107 95
c-68 0 -102 -37 -102 -83c0 -69 77 -94 162 -130zM167 215c0 -69 57 -115 126 -115c64 0 119 41 119 100c0 68 -75 89 -178 135c-19 -17 -67 -56 -67 -120z" />
    <glyph glyph-name="nine.tnum" 
d="M84 56l12 34c9 28 25 31 49 27c18 -5 36 -11 64 -11c115 0 173 96 191 197h-2c-25 -32 -82 -57 -145 -57c-130 0 -218 107 -218 233c0 133 93 243 233 243c149 0 275 -124 275 -333c0 -192 -107 -401 -327 -401c-42 0 -84 8 -107 16c-25 8 -34 26 -25 52zM298 352
c63 0 111 34 111 84c0 71 -59 167 -140 167c-65 0 -106 -50 -106 -121c0 -70 43 -130 135 -130z" />
    <glyph glyph-name="hyphen.case" horiz-adv-x="416" 
d="M99 292c-27 0 -41 15 -41 42v28c0 27 14 41 41 41h218c27 0 41 -14 41 -41v-28c0 -27 -14 -42 -41 -42h-218z" />
    <glyph glyph-name="parenleft.case" horiz-adv-x="285" 
d="M147 -40c-65 117 -104 260 -104 413c0 133 36 258 101 370c12 21 27 28 50 28h19c32 0 44 -19 29 -49c-55 -110 -86 -228 -86 -350c0 -132 30 -264 89 -388c13 -29 2 -49 -30 -49h-21c-23 0 -37 7 -47 25z" />
    <glyph glyph-name="parenright.case" horiz-adv-x="285" 
d="M40 -14c58 124 88 255 88 386c0 122 -30 240 -86 350c-15 30 -5 49 27 49h21c23 0 38 -7 50 -28c65 -112 102 -237 102 -370c0 -151 -39 -294 -103 -410c-11 -20 -26 -28 -49 -28h-20c-33 0 -43 21 -30 51z" />
    <glyph glyph-name="bracketleft.case" horiz-adv-x="303" 
d="M72 -23v753c0 27 15 41 42 41h114c27 0 42 -14 42 -41v-9c0 -27 -14 -42 -39 -42h-50v-652h47c27 0 42 -15 42 -42v-8c0 -28 -15 -42 -42 -42h-114c-27 0 -42 14 -42 42z" />
    <glyph glyph-name="bracketright.case" horiz-adv-x="303" 
d="M34 -15c0 27 14 42 41 42h48v652h-48c-27 0 -41 15 -41 42v9c0 27 14 41 41 41h115c27 0 41 -14 41 -41v-753c0 -28 -14 -42 -41 -42h-115c-27 0 -41 14 -41 42v8z" />
    <glyph glyph-name="braceleft.case" horiz-adv-x="343" 
d="M109 101v97c0 57 -29 82 -51 94c-21 12 -34 21 -34 46v39c0 25 13 34 33 47c23 10 52 36 52 95v85c0 145 110 170 153 170h13c27 0 42 -14 42 -42v-15c0 -27 -15 -41 -42 -41c-20 0 -58 -8 -58 -85v-105c0 -100 -82 -127 -82 -127v-2s82 -23 82 -126v-117
c0 -76 38 -84 58 -84c27 0 42 -15 42 -42v-15c0 -27 -15 -42 -42 -42h-13c-43 0 -153 26 -153 170z" />
    <glyph glyph-name="braceright.case" horiz-adv-x="344" 
d="M26 -12c0 27 15 42 42 42c20 0 58 8 58 84v117c0 103 82 126 82 126v2s-82 27 -82 127v105c0 77 -38 85 -58 85c-27 0 -42 14 -42 41v15c0 28 15 42 42 42h13c43 0 153 -25 153 -170v-85c0 -59 29 -85 52 -95c20 -13 33 -22 33 -47v-39c0 -25 -13 -34 -34 -46
c-22 -12 -51 -37 -51 -94v-97c0 -144 -110 -170 -153 -170h-13c-27 0 -42 15 -42 42v15z" />
    <glyph glyph-name="at.case" horiz-adv-x="770" 
d="M30 352c0 208 165 373 377 373c204 0 275 -103 275 -218v-250h31c27 0 41 -14 41 -41v-8c0 -27 -14 -42 -41 -42h-235c-135 0 -215 90 -215 186c0 95 78 183 215 183h84c-1 52 -64 88 -151 88c-145 0 -255 -129 -255 -271c0 -134 88 -248 231 -266c26 -4 40 -16 40 -43
v-16c0 -27 -15 -43 -43 -40c-213 18 -354 172 -354 365zM389 355c0 -54 38 -98 97 -98h76v196h-74c-61 0 -99 -45 -99 -98z" />
    <glyph glyph-name="guillemotleft.case" horiz-adv-x="550" 
d="M270 313c-16 19 -16 39 0 58l121 153c14 16 29 24 51 24h24c36 0 47 -23 25 -51l-123 -155l123 -154c22 -28 13 -51 -20 -51h-29c-22 0 -37 8 -51 24zM166 161l-121 152c-16 19 -16 39 0 58l121 153c14 16 29 24 51 24h25c35 0 46 -23 24 -51l-123 -155l123 -154
c22 -28 13 -51 -19 -51h-30c-22 0 -37 8 -51 24z" />
    <glyph glyph-name="guillemotright.case" horiz-adv-x="550" 
d="M284 188l123 154l-123 155c-23 28 -14 51 19 51h30c21 0 37 -8 50 -24l121 -153c16 -19 16 -39 0 -58l-121 -152c-13 -16 -29 -24 -50 -24h-25c-36 0 -46 23 -24 51zM83 137c-36 0 -46 23 -24 51l123 154l-123 155c-23 28 -13 51 20 51h29c22 0 37 -8 51 -24l120 -153
c16 -19 16 -39 0 -58l-120 -152c-14 -16 -29 -24 -51 -24h-25z" />
    <glyph glyph-name="guilsinglleft.case" horiz-adv-x="325" 
d="M166 161l-121 152c-16 19 -16 39 0 58l121 153c14 16 29 24 51 24h25c35 0 46 -23 24 -51l-123 -155l123 -154c22 -28 13 -51 -19 -51h-30c-22 0 -37 8 -51 24z" />
    <glyph glyph-name="guilsinglright.case" horiz-adv-x="325" 
d="M83 137c-36 0 -46 23 -24 51l123 154l-123 155c-23 28 -13 51 20 51h29c22 0 37 -8 51 -24l120 -153c16 -19 16 -39 0 -58l-120 -152c-14 -16 -29 -24 -51 -24h-25z" />
    <glyph glyph-name="endash.case" horiz-adv-x="668" 
d="M98 296c-27 0 -41 15 -41 42v15c0 27 14 42 41 42h471c27 0 42 -15 42 -42v-15c0 -27 -15 -42 -42 -42h-471z" />
    <glyph glyph-name="emdash.case" horiz-adv-x="868" 
d="M98 296c-27 0 -41 15 -41 42v15c0 27 14 42 41 42h671c27 0 42 -15 42 -42v-15c0 -27 -15 -42 -42 -42h-671z" />
    <glyph glyph-name="periodcentered.case" horiz-adv-x="238" 
d="M99 282c-27 0 -41 14 -41 42v43c0 28 14 42 41 42h39c27 0 42 -14 42 -42v-43c0 -28 -15 -42 -42 -42h-39z" />
    <glyph glyph-name="questiondown.case" horiz-adv-x="428" 
d="M276 504c27 0 42 -14 42 -41v-16c0 -127 -165 -160 -165 -262c0 -47 42 -83 97 -83c30 0 56 11 74 20c23 12 46 12 60 -10l17 -25c16 -22 16 -41 -7 -56c-30 -20 -84 -46 -155 -46c-113 0 -219 70 -219 188c0 157 162 184 174 285l2 17c5 21 16 29 40 29h40zM318 667v-35
c0 -27 -15 -42 -42 -42h-40c-27 0 -41 15 -41 42v35c0 28 14 42 41 42h40c27 0 42 -14 42 -42z" />
    <glyph glyph-name="exclamdown.case" horiz-adv-x="269" 
d="M149 504c26 0 41 -14 42 -41l8 -421c0 -28 -14 -43 -41 -43h-47c-27 0 -42 15 -41 43l8 421c0 27 15 41 42 41h29zM195 667v-35c0 -27 -14 -42 -41 -42h-40c-27 0 -42 15 -42 42v35c0 28 15 42 42 42h40c27 0 41 -14 41 -42z" />
    <glyph glyph-name="bullet.case" horiz-adv-x="425" 
d="M213 187c-92 0 -167 75 -167 167s75 167 167 167s167 -75 167 -167s-75 -167 -167 -167z" />
    <glyph glyph-name="zero.p_osf" horiz-adv-x="607" 
d="M57 274c0 144 74 288 247 288c172 0 246 -145 246 -289s-74 -285 -246 -285c-173 0 -247 143 -247 286zM185 275c0 -89 33 -179 119 -179c85 0 118 89 118 178s-33 180 -118 180c-86 0 -119 -90 -119 -179z" />
    <glyph glyph-name="one.p_osf" horiz-adv-x="484" 
d="M55 42v24c0 27 14 42 41 42h107v249c0 27 1 65 1 65h-2s-15 -16 -38 -30l-42 -25c-23 -14 -42 -9 -57 13l-13 19c-15 22 -10 42 13 57l128 79c16 11 31 15 51 15h41c27 0 41 -15 41 -42v-400h95c27 0 41 -15 41 -42v-24c0 -28 -14 -42 -41 -42h-325c-27 0 -41 14 -41 42z
" />
    <glyph glyph-name="two.p_osf" horiz-adv-x="553" 
d="M54 42v11c0 23 9 37 28 50c140 92 265 187 265 267c0 58 -48 81 -96 81c-47 0 -88 -26 -113 -45c-22 -16 -41 -16 -58 5l-15 19c-16 20 -17 41 4 58c35 29 103 74 199 74c113 0 208 -66 208 -175c0 -120 -102 -202 -236 -281v-2s22 4 63 4h157c27 0 42 -15 42 -42v-24
c0 -28 -15 -42 -42 -42h-364c-27 0 -42 14 -42 42z" />
    <glyph glyph-name="three.p_osf" horiz-adv-x="526" 
d="M47 14c15 23 34 23 58 9c24 -18 66 -43 121 -43c73 0 128 40 128 103c0 77 -80 109 -149 109h-21c-23 0 -38 9 -48 31c-9 22 -7 39 8 57l97 112c26 32 51 51 51 51v2s-22 -4 -63 -4h-138c-27 0 -41 15 -41 42v25c0 27 14 42 41 42h327c27 0 42 -13 42 -37v-7
c0 -21 -6 -36 -20 -52l-156 -171c96 -12 198 -73 198 -192c0 -120 -94 -219 -252 -219c-92 0 -156 38 -189 63c-21 15 -23 37 -8 58z" />
    <glyph glyph-name="four.p_osf" horiz-adv-x="596" 
d="M23 70v14c0 21 4 31 14 47l258 391c11 20 27 28 49 28h84c27 0 41 -15 41 -42v-371h54c27 0 41 -14 41 -42v-24c0 -27 -12 -42 -33 -42h-62v-103c0 -28 -14 -42 -41 -42h-44c-27 0 -41 14 -41 42v103h-279c-27 0 -41 14 -41 41zM158 137h185v217c0 35 5 74 5 74h-2
s-17 -39 -35 -67z" />
    <glyph glyph-name="five.p_osf" horiz-adv-x="535" 
d="M46 -4l14 21c14 22 33 23 57 8c23 -17 63 -41 116 -41c66 0 136 37 136 114s-65 118 -138 118c-36 0 -67 -10 -85 -17c-20 -6 -36 -7 -56 0l-8 3c-22 9 -31 24 -28 48l26 260c2 26 17 40 43 40h279c27 0 41 -15 41 -42v-25c0 -27 -14 -42 -41 -42h-211l-11 -108
c-1 -18 -5 -31 -5 -31h2s35 14 77 14c148 0 244 -89 244 -212c0 -140 -109 -228 -256 -228c-92 0 -155 38 -188 63c-22 15 -23 36 -8 57z" />
    <glyph glyph-name="six.p_osf" horiz-adv-x="594" 
d="M50 296c0 181 102 382 321 382c45 0 88 -9 105 -15c27 -8 34 -26 24 -53l-8 -24c-10 -26 -27 -30 -50 -25c-16 3 -34 9 -63 9c-118 0 -175 -98 -191 -190h2c25 31 83 54 146 54c128 0 215 -97 215 -216c0 -125 -90 -230 -232 -230c-146 0 -269 112 -269 308zM181 254
c0 -66 56 -158 138 -158c67 0 105 49 105 116s-41 122 -133 122c-62 0 -110 -32 -110 -80z" />
    <glyph glyph-name="seven.p_osf" horiz-adv-x="524" 
d="M98 -67l228 449c21 42 37 61 37 61v2s-20 -3 -46 -3h-248c-27 0 -41 15 -41 42v24c0 27 14 42 41 42h393c28 0 42 -14 42 -41v-17c0 -20 -4 -34 -13 -51l-269 -527c-11 -21 -26 -30 -50 -30h-44c-32 0 -44 20 -30 49z" />
    <glyph glyph-name="eight.p_osf" horiz-adv-x="596" 
d="M49 193c0 89 84 150 111 170c-47 31 -80 73 -80 132c0 93 71 182 221 182c128 0 225 -69 225 -184c0 -84 -72 -158 -78 -165c55 -30 95 -74 95 -141c0 -103 -90 -199 -246 -199c-150 0 -248 91 -248 205zM357 373c8 11 47 55 47 112c0 52 -42 85 -104 85
c-64 0 -98 -34 -98 -77c0 -62 77 -88 155 -120zM175 203c0 -64 57 -108 122 -108c66 0 118 38 118 96c0 60 -86 85 -170 122c-19 -14 -70 -53 -70 -110z" />
    <glyph glyph-name="nine.p_osf" horiz-adv-x="594" 
d="M100 -37c10 26 25 32 45 28c13 -2 33 -11 68 -11c118 0 175 98 191 190h-2c-25 -32 -83 -54 -146 -54c-128 0 -215 97 -215 216c0 125 90 230 232 230c146 0 268 -112 268 -308c0 -181 -101 -382 -320 -382c-45 0 -88 9 -105 14c-27 8 -34 26 -25 53zM301 216
c62 0 110 31 110 79c0 67 -56 159 -139 159c-66 0 -104 -49 -104 -116s41 -122 133 -122z" />
    <glyph glyph-name="zero.t_osf" 
d="M46 274c0 144 74 288 247 288c172 0 246 -145 246 -289s-74 -285 -246 -285c-173 0 -247 143 -247 286zM174 275c0 -89 33 -179 119 -179c85 0 118 89 118 178s-33 180 -118 180c-86 0 -119 -90 -119 -179z" />
    <glyph glyph-name="one.t_osf" 
d="M103 42v24c0 27 14 42 41 42h107v249c0 27 1 65 1 65h-2s-15 -16 -38 -30l-42 -25c-23 -14 -42 -9 -57 13l-13 19c-15 22 -10 42 13 57l128 79c16 11 31 15 51 15h41c27 0 41 -15 41 -42v-400h95c27 0 41 -15 41 -42v-24c0 -28 -14 -42 -41 -42h-325c-27 0 -41 14 -41 42
z" />
    <glyph glyph-name="two.t_osf" 
d="M68 42v11c0 23 9 37 28 50c140 92 265 187 265 267c0 58 -48 81 -96 81c-47 0 -88 -26 -113 -45c-22 -16 -41 -16 -58 5l-15 19c-16 20 -17 41 4 58c35 29 103 74 199 74c113 0 208 -66 208 -175c0 -120 -102 -202 -236 -281v-2s22 4 63 4h157c27 0 42 -15 42 -42v-24
c0 -28 -15 -42 -42 -42h-364c-27 0 -42 14 -42 42z" />
    <glyph glyph-name="three.t_osf" 
d="M75 15c15 23 34 23 58 9c24 -18 66 -43 121 -43c73 0 128 40 128 103c0 77 -80 109 -149 109h-21c-23 0 -38 9 -48 31c-9 22 -7 39 8 57l97 112c26 32 51 51 51 51v2s-22 -4 -63 -4h-138c-27 0 -41 15 -41 42v25c0 27 14 42 41 42h327c27 0 42 -13 42 -37v-7
c0 -21 -6 -36 -20 -52l-156 -171c96 -12 198 -73 198 -192c0 -120 -94 -219 -252 -219c-92 0 -156 38 -189 63c-21 15 -23 37 -8 58z" />
    <glyph glyph-name="four.t_osf" 
d="M17 70v14c0 21 4 31 14 47l258 391c11 20 27 28 49 28h84c27 0 41 -15 41 -42v-371h54c27 0 41 -14 41 -42v-24c0 -27 -12 -42 -33 -42h-62v-103c0 -28 -14 -42 -41 -42h-44c-27 0 -41 14 -41 42v103h-279c-27 0 -41 14 -41 41zM152 137h185v217c0 35 5 74 5 74h-2
s-17 -39 -35 -67z" />
    <glyph glyph-name="five.t_osf" 
d="M70 -4l14 21c14 22 33 23 57 8c23 -17 63 -41 116 -41c66 0 136 37 136 114s-65 118 -138 118c-36 0 -67 -10 -85 -17c-20 -6 -36 -7 -56 0l-8 3c-22 9 -31 24 -28 48l26 260c2 26 17 40 43 40h279c27 0 41 -15 41 -42v-25c0 -27 -14 -42 -41 -42h-211l-11 -108
c-1 -18 -5 -31 -5 -31h2s35 14 77 14c148 0 244 -89 244 -212c0 -140 -109 -228 -256 -228c-92 0 -155 38 -188 63c-22 15 -23 36 -8 57z" />
    <glyph glyph-name="six.t_osf" 
d="M47 296c0 181 102 382 321 382c45 0 88 -9 105 -15c27 -8 34 -26 24 -53l-8 -24c-10 -26 -27 -30 -50 -25c-16 3 -34 9 -63 9c-118 0 -175 -98 -191 -190h2c25 31 83 54 146 54c128 0 215 -97 215 -216c0 -125 -90 -230 -232 -230c-146 0 -269 112 -269 308zM178 254
c0 -66 56 -158 138 -158c67 0 105 49 105 116s-41 122 -133 122c-62 0 -110 -32 -110 -80z" />
    <glyph glyph-name="seven.t_osf" 
d="M126 -67l228 449c21 42 37 61 37 61v2s-20 -3 -46 -3h-248c-27 0 -41 15 -41 42v24c0 27 14 42 41 42h393c28 0 42 -14 42 -41v-17c0 -20 -4 -34 -13 -51l-269 -527c-11 -21 -26 -30 -50 -30h-44c-32 0 -44 20 -30 49z" />
    <glyph glyph-name="eight.t_osf" 
d="M44 193c0 89 84 150 111 170c-47 31 -80 73 -80 132c0 93 71 182 221 182c128 0 225 -69 225 -184c0 -84 -72 -158 -78 -165c55 -30 95 -74 95 -141c0 -103 -90 -199 -246 -199c-150 0 -248 91 -248 205zM352 373c8 11 47 55 47 112c0 52 -42 85 -104 85
c-64 0 -98 -34 -98 -77c0 -62 77 -88 155 -120zM170 203c0 -64 57 -108 122 -108c66 0 118 38 118 96c0 60 -86 85 -170 122c-19 -14 -70 -53 -70 -110z" />
    <glyph glyph-name="nine.t_osf" 
d="M94 -37c10 26 25 32 45 28c13 -2 33 -11 68 -11c118 0 175 98 191 190h-2c-25 -32 -83 -54 -146 -54c-128 0 -215 97 -215 216c0 125 90 230 232 230c146 0 268 -112 268 -308c0 -181 -101 -382 -320 -382c-45 0 -88 9 -105 14c-27 8 -34 26 -25 53zM295 216
c62 0 110 31 110 79c0 67 -56 159 -139 159c-66 0 -104 -49 -104 -116s41 -122 133 -122z" />
    <glyph glyph-name="dollar.osf" horiz-adv-x="514" 
d="M59 58c-20 16 -21 37 -8 58l17 26c16 23 35 24 57 8c27 -20 70 -49 125 -49c54 0 91 22 91 62c0 87 -290 79 -290 261c0 92 72 150 168 165v48c0 27 13 41 40 41h7c27 0 39 -12 39 -35v-53c58 -6 99 -25 124 -40c21 -13 24 -33 14 -56l-13 -28c-12 -25 -31 -28 -56 -14
c-22 12 -56 28 -100 28c-51 0 -91 -16 -91 -62c0 -84 290 -71 290 -257c0 -85 -66 -154 -172 -169v-52c0 -27 -13 -41 -39 -41h-7c-27 0 -40 12 -40 35v57c-75 9 -127 44 -156 67z" />
    <glyph glyph-name="cent.osf" horiz-adv-x="541" 
d="M245 13v42c-126 24 -205 123 -205 244c0 120 79 220 205 244v43c0 27 14 41 41 41h6c27 0 42 -10 42 -30v-49c65 -7 111 -35 138 -53c21 -15 24 -37 9 -58l-15 -23c-15 -23 -33 -24 -57 -10c-18 14 -50 33 -93 33c-93 0 -150 -63 -150 -136c0 -76 57 -139 150 -139
c43 0 74 18 93 32c24 15 42 14 57 -10l15 -23c14 -21 12 -42 -9 -57c-27 -19 -73 -48 -138 -53v-38c0 -27 -15 -41 -42 -41h-6c-27 0 -41 14 -41 41z" />
    <glyph glyph-name="sterling.osf" horiz-adv-x="594" 
d="M53 42v24c0 27 15 42 39 42h20v129h-13c-24 0 -35 12 -35 39v6c0 26 11 39 35 39h13v70c0 117 103 202 235 202c65 0 116 -20 146 -36c25 -12 29 -34 15 -56l-15 -25c-14 -22 -32 -26 -56 -16c-20 9 -51 20 -87 20c-63 0 -110 -40 -110 -91v-68h161c27 0 41 -13 41 -39
v-6c0 -27 -14 -39 -41 -39h-161v-129h269c28 0 42 -15 42 -42v-24c0 -28 -14 -42 -42 -42h-414c-27 0 -42 14 -42 42z" />
    <glyph glyph-name="yen.osf" horiz-adv-x="607" 
d="M116 132c-27 0 -41 11 -41 35v6c0 24 14 35 41 35h122v16l-37 63h-85c-27 0 -41 11 -41 35v6c0 24 14 35 41 35h41l-100 169c-17 28 -4 49 29 49h55c23 0 38 -9 48 -30l69 -128c22 -43 43 -98 43 -98h2s22 55 43 98l70 128c10 21 25 30 48 30h55c33 0 45 -21 28 -49
l-99 -169h45c27 0 42 -11 42 -35v-6c0 -24 -15 -35 -42 -35h-90l-36 -63v-16h126c27 0 42 -11 42 -35v-6c0 -24 -15 -35 -42 -35h-126v-90c0 -28 -15 -42 -42 -42h-45c-27 0 -42 14 -42 42v90h-122z" />
    <glyph glyph-name="florin.osf" horiz-adv-x="405" 
d="M-6 -17c9 0 17 -1 30 -1c36 0 100 11 107 92l19 215h-34c-27 0 -42 14 -42 42v17c0 27 15 42 42 42h42l9 99c15 167 152 189 224 189c16 0 33 -2 47 -3c26 -2 39 -18 39 -44v-25c0 -28 -12 -42 -31 -40c-15 2 -34 3 -47 3c-37 0 -100 -11 -107 -92l-9 -87h68
c27 0 41 -15 41 -42v-17c0 -28 -14 -42 -41 -42h-77l-19 -227c-15 -168 -152 -189 -223 -189c-13 0 -25 1 -36 2c-26 2 -39 17 -39 44v25c0 28 14 42 37 39z" />
    <glyph glyph-name="Euro.osf" horiz-adv-x="577" 
d="M81 192c-27 0 -41 9 -41 31v9c0 22 14 30 41 30h23c-2 14 -2 37 -1 55h-22c-27 0 -41 9 -41 31v8c0 22 14 31 41 31h34c35 112 136 206 308 206c22 0 42 -3 57 -5c27 -3 38 -22 31 -49l-6 -22c-6 -25 -20 -35 -39 -32c-12 2 -28 4 -45 4c-88 0 -145 -45 -171 -102h179
c29 0 42 -12 39 -34l-1 -5c-5 -23 -19 -31 -44 -31h-192c-3 -17 -1 -41 1 -55h174c30 0 43 -12 39 -34l-1 -5c-5 -22 -18 -31 -43 -31h-143c26 -55 83 -98 167 -98c19 0 35 2 47 4c27 4 44 -5 49 -32l4 -22c5 -26 -5 -45 -32 -49c-17 -4 -41 -7 -70 -7
c-166 0 -268 92 -306 204h-36z" />
    <glyph glyph-name="zero.numerator" horiz-adv-x="396" 
d="M198 262c-123 0 -162 101 -162 230c0 128 39 229 162 229s162 -101 162 -229c0 -129 -39 -230 -162 -230zM198 349c52 0 66 63 66 143c0 78 -14 141 -66 141c-51 0 -66 -63 -66 -141c0 -80 15 -143 66 -143z" />
    <glyph glyph-name="one.numerator" horiz-adv-x="318" 
d="M70 272c-27 0 -41 12 -41 39v5c0 26 12 39 35 39h56v207c0 16 3 28 3 28h-2s-3 -6 -14 -16l-16 -15c-10 -9 -24 -8 -36 3l-11 11c-18 19 -15 39 5 57l61 60c16 14 30 21 51 21h13c27 0 41 -15 41 -42v-314h50c27 0 41 -13 41 -39v-5c0 -27 -14 -39 -41 -39h-195z" />
    <glyph glyph-name="two.numerator" horiz-adv-x="367" 
d="M68 272c-27 0 -42 14 -42 42c0 171 207 181 207 267c0 31 -27 52 -61 52c-21 0 -39 -10 -51 -19c-22 -15 -38 -19 -57 -2l-5 4c-20 18 -22 39 -2 57c23 21 63 48 121 48c79 0 151 -49 151 -136c0 -143 -190 -157 -198 -230h163c27 0 42 -13 42 -39v-5
c0 -27 -15 -39 -42 -39h-226z" />
    <glyph glyph-name="three.numerator" horiz-adv-x="362" 
d="M166 262c-60 0 -101 23 -124 41c-21 14 -22 33 -8 54l5 6c15 22 31 21 54 9c15 -11 36 -23 68 -23c39 0 71 27 71 63s-37 57 -73 57h-11c-20 0 -32 7 -39 23c-6 15 -3 31 13 48l56 64c8 10 24 24 24 24v2s-20 -3 -35 -3h-88c-27 0 -41 13 -41 40v5c0 26 14 39 41 39h197
c27 0 42 -11 42 -30v-6c0 -20 -6 -31 -20 -47l-79 -90c63 -12 109 -55 109 -127c0 -77 -61 -149 -162 -149z" />
    <glyph glyph-name="four.numerator" horiz-adv-x="394" 
d="M259 272c-27 0 -42 14 -42 42v57h-162c-27 0 -41 11 -41 32v11c0 20 4 27 15 44l156 226c13 18 28 27 50 27h34c27 0 42 -15 42 -42v-216h26c25 0 35 -14 35 -38v-5c0 -25 -10 -39 -35 -39h-26v-57c0 -28 -15 -42 -42 -42h-10zM110 453h107v110c0 26 4 55 4 55h-2
s-12 -27 -26 -47l-83 -116v-2z" />
    <glyph glyph-name="five.numerator" horiz-adv-x="362" 
d="M169 262c-56 0 -96 24 -121 41c-21 15 -21 35 -6 57l3 4c15 22 32 20 54 8c14 -11 35 -23 63 -23c40 0 77 27 77 68c0 40 -35 69 -79 69c-18 0 -33 -5 -43 -9c-20 -4 -37 -7 -53 0c-17 7 -25 22 -23 46l15 148c2 26 17 40 44 40h163c27 0 42 -13 42 -39v-4
c0 -26 -15 -39 -42 -39h-126l-5 -51c-1 -16 -4 -25 -4 -25l2 -1s20 8 51 8c92 0 154 -65 154 -144s-63 -154 -166 -154z" />
    <glyph glyph-name="six.numerator" horiz-adv-x="381" 
d="M205 262c-93 0 -172 73 -172 205c0 119 63 254 208 254c29 0 46 -6 58 -10c27 -9 31 -30 22 -51l-2 -5c-11 -26 -17 -34 -38 -29c-9 2 -21 7 -39 7c-56 0 -90 -43 -101 -97h2c15 13 40 21 65 21c90 0 148 -63 148 -143c0 -85 -60 -152 -151 -152zM204 349
c37 0 57 29 57 66c0 38 -23 73 -73 73c-30 0 -58 -17 -58 -45c0 -37 28 -94 74 -94z" />
    <glyph glyph-name="seven.numerator" horiz-adv-x="346" 
d="M83 272c-33 0 -45 21 -29 50l147 267c14 24 24 38 24 38v2s-18 -2 -39 -2h-126c-27 0 -41 13 -41 40v5c0 26 14 39 41 39h232c27 0 41 -12 41 -32v-7c0 -20 -3 -33 -13 -50l-175 -321c-10 -20 -25 -29 -49 -29h-13z" />
    <glyph glyph-name="eight.numerator" horiz-adv-x="392" 
d="M197 261c-82 0 -165 46 -165 137c0 56 47 95 68 111c-28 21 -48 48 -48 89c0 81 72 122 146 122s149 -42 149 -123c0 -51 -43 -97 -52 -108c35 -21 62 -50 62 -99c0 -80 -77 -129 -160 -129zM229 520c9 10 29 37 29 71c0 31 -31 47 -60 47c-28 0 -55 -13 -55 -44
c0 -37 42 -54 86 -74zM196 342c32 0 66 20 66 53c0 39 -51 55 -101 79c-14 -13 -37 -38 -37 -71c0 -39 36 -61 72 -61z" />
    <glyph glyph-name="nine.numerator" horiz-adv-x="381" 
d="M84 272c-27 9 -31 29 -23 51l2 5c11 25 18 33 39 29c9 -3 20 -7 39 -7c55 0 89 42 101 96h-2c-16 -12 -41 -21 -65 -21c-90 0 -148 63 -148 144c0 85 59 152 150 152c94 0 173 -74 173 -205c0 -119 -63 -254 -208 -254c-29 0 -47 6 -58 10zM194 494c31 0 59 18 59 45
c0 38 -29 94 -74 94c-37 0 -57 -29 -57 -66s23 -73 72 -73z" />
    <glyph glyph-name="zerosuperior" unicode="&#x2070;" horiz-adv-x="396" 
d="M198 413c-123 0 -162 101 -162 230c0 128 39 229 162 229s162 -101 162 -229c0 -129 -39 -230 -162 -230zM198 500c52 0 66 63 66 143c0 78 -14 141 -66 141c-51 0 -66 -63 -66 -141c0 -80 15 -143 66 -143z" />
    <glyph glyph-name="foursuperior" unicode="&#x2074;" horiz-adv-x="393" 
d="M259 423c-27 0 -42 14 -42 42v57h-162c-27 0 -41 11 -41 32v11c0 20 4 27 15 44l156 226c13 18 28 27 50 27h34c27 0 42 -15 42 -42v-216h26c25 0 35 -14 35 -38v-5c0 -25 -10 -39 -35 -39h-26v-57c0 -28 -15 -42 -42 -42h-10zM110 604h107v110c0 26 4 55 4 55h-2
s-12 -27 -26 -47l-83 -116v-2z" />
    <glyph glyph-name="fivesuperior" unicode="&#x2075;" horiz-adv-x="362" 
d="M169 413c-56 0 -96 24 -121 41c-21 15 -21 35 -6 57l3 4c15 22 32 20 54 8c14 -11 35 -23 63 -23c40 0 77 27 77 68c0 40 -35 69 -79 69c-18 0 -33 -5 -43 -9c-20 -4 -37 -7 -53 0c-17 7 -25 22 -23 46l15 148c2 26 17 40 44 40h163c27 0 42 -13 42 -39v-4
c0 -26 -15 -39 -42 -39h-126l-5 -51c-1 -16 -4 -25 -4 -25l2 -1s20 8 51 8c92 0 154 -65 154 -144s-63 -154 -166 -154z" />
    <glyph glyph-name="sixsuperior" unicode="&#x2076;" horiz-adv-x="383" 
d="M205 413c-93 0 -172 73 -172 205c0 119 63 254 208 254c29 0 46 -6 58 -10c27 -9 31 -30 22 -51l-2 -5c-11 -26 -17 -34 -38 -29c-9 2 -21 7 -39 7c-56 0 -90 -43 -101 -97h2c15 13 40 21 65 21c90 0 148 -63 148 -143c0 -85 -60 -152 -151 -152zM204 500
c37 0 57 29 57 66c0 38 -23 73 -73 73c-30 0 -58 -17 -58 -45c0 -37 28 -94 74 -94z" />
    <glyph glyph-name="sevensuperior" unicode="&#x2077;" horiz-adv-x="345" 
d="M83 423c-33 0 -45 21 -29 50l147 267c14 24 24 38 24 38v2s-18 -2 -39 -2h-126c-27 0 -41 13 -41 40v5c0 26 14 39 41 39h232c27 0 41 -12 41 -32v-7c0 -20 -3 -33 -13 -50l-175 -321c-10 -20 -25 -29 -49 -29h-13z" />
    <glyph glyph-name="eightsuperior" unicode="&#x2078;" horiz-adv-x="392" 
d="M197 413c-82 0 -165 46 -165 137c0 56 47 95 68 111c-28 21 -48 48 -48 89c0 81 72 122 146 122s149 -42 149 -123c0 -51 -43 -97 -52 -108c35 -21 62 -50 62 -99c0 -80 -77 -129 -160 -129zM229 672c9 10 29 37 29 71c0 31 -31 47 -60 47c-28 0 -55 -13 -55 -44
c0 -37 42 -54 86 -74zM196 494c32 0 66 20 66 53c0 39 -51 55 -101 79c-14 -13 -37 -38 -37 -71c0 -39 36 -61 72 -61z" />
    <glyph glyph-name="ninesuperior" unicode="&#x2079;" horiz-adv-x="383" 
d="M84 423c-27 9 -31 29 -23 51l2 5c11 25 18 33 39 29c9 -3 20 -7 39 -7c55 0 89 42 101 96h-2c-16 -12 -41 -21 -65 -21c-90 0 -148 63 -148 144c0 85 59 152 150 152c94 0 173 -74 173 -205c0 -119 -63 -254 -208 -254c-29 0 -47 6 -58 10zM194 645c31 0 59 18 59 45
c0 38 -29 94 -74 94c-37 0 -57 -29 -57 -66s23 -73 72 -73z" />
    <glyph glyph-name="zeroinferior" unicode="&#x2080;" horiz-adv-x="396" 
d="M198 -167c-123 0 -162 101 -162 230c0 128 39 229 162 229s162 -101 162 -229c0 -129 -39 -230 -162 -230zM198 -80c52 0 66 63 66 143c0 78 -14 141 -66 141c-51 0 -66 -63 -66 -141c0 -80 15 -143 66 -143z" />
    <glyph glyph-name="oneinferior" unicode="&#x2081;" horiz-adv-x="317" 
d="M70 -157c-27 0 -41 12 -41 39v5c0 26 12 39 35 39h56v207c0 16 3 28 3 28h-2s-3 -6 -14 -16l-16 -15c-10 -9 -24 -8 -36 3l-11 11c-18 19 -15 39 5 57l61 60c16 14 30 21 51 21h13c27 0 41 -15 41 -42v-314h50c27 0 41 -13 41 -39v-5c0 -27 -14 -39 -41 -39h-195z" />
    <glyph glyph-name="twoinferior" unicode="&#x2082;" horiz-adv-x="367" 
d="M68 -157c-27 0 -42 14 -42 42c0 171 207 181 207 267c0 31 -27 52 -61 52c-21 0 -39 -10 -51 -19c-22 -15 -38 -19 -57 -2l-5 4c-20 18 -22 39 -2 57c23 21 63 48 121 48c79 0 151 -49 151 -136c0 -143 -190 -157 -198 -230h163c27 0 42 -13 42 -39v-5
c0 -27 -15 -39 -42 -39h-226z" />
    <glyph glyph-name="threeinferior" unicode="&#x2083;" horiz-adv-x="362" 
d="M166 -167c-60 0 -101 23 -124 41c-21 14 -22 33 -8 54l5 6c15 22 31 21 54 9c15 -11 36 -23 68 -23c39 0 71 27 71 63s-37 57 -73 57h-11c-20 0 -32 7 -39 23c-6 15 -3 31 13 48l56 64c8 10 24 24 24 24v2s-20 -3 -35 -3h-88c-27 0 -41 13 -41 40v5c0 26 14 39 41 39h197
c27 0 42 -11 42 -30v-6c0 -20 -6 -31 -20 -47l-79 -90c63 -12 109 -55 109 -127c0 -77 -61 -149 -162 -149z" />
    <glyph glyph-name="fourinferior" unicode="&#x2084;" horiz-adv-x="393" 
d="M259 -157c-27 0 -42 14 -42 42v57h-162c-27 0 -41 11 -41 32v11c0 20 4 27 15 44l156 226c13 18 28 27 50 27h34c27 0 42 -15 42 -42v-216h26c25 0 35 -14 35 -38v-5c0 -25 -10 -39 -35 -39h-26v-57c0 -28 -15 -42 -42 -42h-10zM110 24h107v110c0 26 4 55 4 55h-2
s-12 -27 -26 -47l-83 -116v-2z" />
    <glyph glyph-name="fiveinferior" unicode="&#x2085;" horiz-adv-x="362" 
d="M169 -167c-56 0 -96 24 -121 41c-21 15 -21 35 -6 57l3 4c15 22 32 20 54 8c14 -11 35 -23 63 -23c40 0 77 27 77 68c0 40 -35 69 -79 69c-18 0 -33 -5 -43 -9c-20 -4 -37 -7 -53 0c-17 7 -25 22 -23 46l15 148c2 26 17 40 44 40h163c27 0 42 -13 42 -39v-4
c0 -26 -15 -39 -42 -39h-126l-5 -51c-1 -16 -4 -25 -4 -25l2 -1s20 8 51 8c92 0 154 -65 154 -144s-63 -154 -166 -154z" />
    <glyph glyph-name="sixinferior" unicode="&#x2086;" horiz-adv-x="383" 
d="M205 -167c-93 0 -172 73 -172 205c0 119 63 254 208 254c29 0 46 -6 58 -10c27 -9 31 -30 22 -51l-2 -5c-11 -26 -17 -34 -38 -29c-9 2 -21 7 -39 7c-56 0 -90 -43 -101 -97h2c15 13 40 21 65 21c90 0 148 -63 148 -143c0 -85 -60 -152 -151 -152zM204 -80
c37 0 57 29 57 66c0 38 -23 73 -73 73c-30 0 -58 -17 -58 -45c0 -37 28 -94 74 -94z" />
    <glyph glyph-name="seveninferior" unicode="&#x2087;" horiz-adv-x="345" 
d="M83 -157c-33 0 -45 21 -29 50l147 267c14 24 24 38 24 38v2s-18 -2 -39 -2h-126c-27 0 -41 13 -41 40v5c0 26 14 39 41 39h232c27 0 41 -12 41 -32v-7c0 -20 -3 -33 -13 -50l-175 -321c-10 -20 -25 -29 -49 -29h-13z" />
    <glyph glyph-name="eightinferior" unicode="&#x2088;" horiz-adv-x="392" 
d="M197 -166c-82 0 -165 46 -165 137c0 56 47 95 68 111c-28 21 -48 48 -48 89c0 81 72 122 146 122s149 -42 149 -123c0 -51 -43 -97 -52 -108c35 -21 62 -50 62 -99c0 -80 -77 -129 -160 -129zM229 93c9 10 29 37 29 71c0 31 -31 47 -60 47c-28 0 -55 -13 -55 -44
c0 -37 42 -54 86 -74zM196 -85c32 0 66 20 66 53c0 39 -51 55 -101 79c-14 -13 -37 -38 -37 -71c0 -39 36 -61 72 -61z" />
    <glyph glyph-name="nineinferior" unicode="&#x2089;" horiz-adv-x="383" 
d="M84 -157c-27 9 -31 29 -23 51l2 5c11 25 18 33 39 29c9 -3 20 -7 39 -7c55 0 89 42 101 96h-2c-16 -12 -41 -21 -65 -21c-90 0 -148 63 -148 144c0 85 59 152 150 152c94 0 173 -74 173 -205c0 -119 -63 -254 -208 -254c-29 0 -47 6 -58 10zM194 65c31 0 59 18 59 45
c0 38 -29 94 -74 94c-37 0 -57 -29 -57 -66s23 -73 72 -73z" />
    <glyph glyph-name="zero.denominator" horiz-adv-x="396" 
d="M198 -10c-123 0 -162 101 -162 230c0 128 39 229 162 229s162 -101 162 -229c0 -129 -39 -230 -162 -230zM198 77c52 0 66 63 66 143c0 78 -14 141 -66 141c-51 0 -66 -63 -66 -141c0 -80 15 -143 66 -143z" />
    <glyph glyph-name="one.denominator" horiz-adv-x="317" 
d="M70 0c-27 0 -41 12 -41 39v5c0 26 12 39 35 39h56v207c0 16 3 28 3 28h-2s-3 -6 -14 -16l-16 -15c-10 -9 -24 -8 -36 3l-11 11c-18 19 -15 39 5 57l61 60c16 14 30 21 51 21h13c27 0 41 -15 41 -42v-314h50c27 0 41 -13 41 -39v-5c0 -27 -14 -39 -41 -39h-195z" />
    <glyph glyph-name="two.denominator" horiz-adv-x="367" 
d="M68 0c-27 0 -42 14 -42 42c0 171 207 181 207 267c0 31 -27 52 -61 52c-21 0 -39 -10 -51 -19c-22 -15 -38 -19 -57 -2l-5 4c-20 18 -22 39 -2 57c23 21 63 48 121 48c79 0 151 -49 151 -136c0 -143 -190 -157 -198 -230h163c27 0 42 -13 42 -39v-5
c0 -27 -15 -39 -42 -39h-226z" />
    <glyph glyph-name="three.denominator" horiz-adv-x="362" 
d="M166 -10c-60 0 -101 23 -124 41c-21 14 -22 33 -8 54l5 6c15 22 31 21 54 9c15 -11 36 -23 68 -23c39 0 71 27 71 63s-37 57 -73 57h-11c-20 0 -32 7 -39 23c-6 15 -3 31 13 48l56 64c8 10 24 24 24 24v2s-20 -3 -35 -3h-88c-27 0 -41 13 -41 40v5c0 26 14 39 41 39h197
c27 0 42 -11 42 -30v-6c0 -20 -6 -31 -20 -47l-79 -90c63 -12 109 -55 109 -127c0 -77 -61 -149 -162 -149z" />
    <glyph glyph-name="four.denominator" horiz-adv-x="393" 
d="M259 0c-27 0 -42 14 -42 42v57h-162c-27 0 -41 11 -41 32v11c0 20 4 27 15 44l156 226c13 18 28 27 50 27h34c27 0 42 -15 42 -42v-216h26c25 0 35 -14 35 -38v-5c0 -25 -10 -39 -35 -39h-26v-57c0 -28 -15 -42 -42 -42h-10zM110 181h107v110c0 26 4 55 4 55h-2
s-12 -27 -26 -47l-83 -116v-2z" />
    <glyph glyph-name="five.denominator" horiz-adv-x="362" 
d="M169 -10c-56 0 -96 24 -121 41c-21 15 -21 35 -6 57l3 4c15 22 32 20 54 8c14 -11 35 -23 63 -23c40 0 77 27 77 68c0 40 -35 69 -79 69c-18 0 -33 -5 -43 -9c-20 -4 -37 -7 -53 0c-17 7 -25 22 -23 46l15 148c2 26 17 40 44 40h163c27 0 42 -13 42 -39v-4
c0 -26 -15 -39 -42 -39h-126l-5 -51c-1 -16 -4 -25 -4 -25l2 -1s20 8 51 8c92 0 154 -65 154 -144s-63 -154 -166 -154z" />
    <glyph glyph-name="six.denominator" horiz-adv-x="383" 
d="M205 -10c-93 0 -172 73 -172 205c0 119 63 254 208 254c29 0 46 -6 58 -10c27 -9 31 -30 22 -51l-2 -5c-11 -26 -17 -34 -38 -29c-9 2 -21 7 -39 7c-56 0 -90 -43 -101 -97h2c15 13 40 21 65 21c90 0 148 -63 148 -143c0 -85 -60 -152 -151 -152zM204 77
c37 0 57 29 57 66c0 38 -23 73 -73 73c-30 0 -58 -17 -58 -45c0 -37 28 -94 74 -94z" />
    <glyph glyph-name="seven.denominator" horiz-adv-x="345" 
d="M83 0c-33 0 -45 21 -29 50l147 267c14 24 24 38 24 38v2s-18 -2 -39 -2h-126c-27 0 -41 13 -41 40v5c0 26 14 39 41 39h232c27 0 41 -12 41 -32v-7c0 -20 -3 -33 -13 -50l-175 -321c-10 -20 -25 -29 -49 -29h-13z" />
    <glyph glyph-name="eight.denominator" horiz-adv-x="392" 
d="M197 -10c-82 0 -165 46 -165 137c0 56 47 95 68 111c-28 21 -48 48 -48 89c0 81 72 122 146 122s149 -42 149 -123c0 -51 -43 -97 -52 -108c35 -21 62 -50 62 -99c0 -80 -77 -129 -160 -129zM229 249c9 10 29 37 29 71c0 31 -31 47 -60 47c-28 0 -55 -13 -55 -44
c0 -37 42 -54 86 -74zM196 71c32 0 66 20 66 53c0 39 -51 55 -101 79c-14 -13 -37 -38 -37 -71c0 -39 36 -61 72 -61z" />
    <glyph glyph-name="nine.denominator" horiz-adv-x="383" 
d="M84 0c-27 9 -31 29 -23 51l2 5c11 25 18 33 39 29c9 -3 20 -7 39 -7c55 0 89 42 101 96h-2c-16 -12 -41 -21 -65 -21c-90 0 -148 63 -148 144c0 85 59 152 150 152c94 0 173 -74 173 -205c0 -119 -63 -254 -208 -254c-29 0 -47 6 -58 10zM194 222c31 0 59 18 59 45
c0 38 -29 94 -74 94c-37 0 -57 -29 -57 -66s23 -73 72 -73z" />
    <glyph glyph-name="thinspace" unicode="&#x2009;" horiz-adv-x="20" 
 />
    <glyph glyph-name="uni00A0" unicode="&#xa0;" horiz-adv-x="250" 
 />
    <glyph glyph-name="uni00AD" unicode="&#xad;" horiz-adv-x="417" 
d="M100 230c-27 0 -42 14 -42 42v28c0 27 15 41 42 41h217c27 0 42 -14 42 -41v-28c0 -28 -15 -42 -42 -42h-217z" />
    </font>
</defs>
</svg>
